<svg xmlns="http://www.w3.org/2000/svg" width="685.013" height="712.219" viewBox="0 0 685.013 712.219">
  <path id="Path_193" data-name="Path 193" d="M705.19,485.9a61.851,61.851,0,0,0-4.31-5.1c-8.922-9.581-16.582-20.278-24.722-31.578-6.722-9.357-13.679-19.027-21.529-28.217-7.079-8.207-13.735-16.5-19.988-24.811-27.268-36.045-48.194-73.173-66.652-105.934L561.848,279.3c-19.318-34.593-39.316-70.359-70.638-96.544a72.9,72.9,0,0,0-7.66-5.248c-1.351-.837-3.372-2.1-5-3.238.86-1.9,2.021-4.132,2.847-5.728,2.445-4.768,4.768-9.268,5.84-13.8,2.769-11.669,3.841-24.5,3.238-39.2l-.033-2.579c-.134-10.027-.491-40.489-25.236-40.489-14.259.078-27.112,13.388-41.237,29.468-1.675,1.9-3.115,3.551-4.243,4.735l-30.049,31.623c-.826.871-2.378,2.5-2.59,2.7a18.318,18.318,0,0,1-2.836-.011c-3.931-1.262-7.872-2.434-11.859-3.361-.246-.078-.4-.145-.659-.223a243.479,243.479,0,0,0-37.552-8.006c-13.321-1.887-26.754-3.026-40.187-3.584-16.325-.681-32.572-.056-48.875.592-3.182.134-6.354.246-9.525.5-6.912.569-13.79,1.463-20.713,1.921a90.551,90.551,0,0,1-18.57-.435c-22.947-3.45-42.733-7.872-51.778-12.931,2.892,6.186,13.277,22.187,34.984,34.236,8.576,4.511,16.024,3.908,22.545,10.641a5.548,5.548,0,0,1,1.675,2.881c-3.841-1.038-7.716-1.921-11.613-2.7q-5.578-1.122-11.2-1.932c-4.344-.625-8.844-1.351-13.232-1.105a40.269,40.269,0,0,0-5.907.726c-4.634,1.038-9.29,2.021-13.835,3.406-1.329.391-2.323.77-3.417,1.061-30.886,10.7-58.846,13.165-80.274-2.926,2.021,3.808,9.413,21.194,28.653,27.938-10.351,5.974-21.417,12.16-30.06,15.32-3.194-48.283-1.887-85.087-1-99.547C72.587,96.9,98.716,82.083,137.786,67.467c48-18.011,125.911-39.462,224.543-39.462,165.763.034,275.428,60.209,300.552,75.473,1.708,27.257,5.594,130.846-23.3,246.027-.759,3.015-1.8,5.751-2.59,8.743,5.338,7.872,10.921,15.722,16.816,23.516,1.429,1.9,2.892,3.517,4.321,5.36,3.015-10.117,5.974-20.289,8.62-30.785,34.113-136.072,24-257.025,23.55-262.095l-.592-6.588-5.4-3.718C679.317,80.487,560.43.033,362.329,0,164.251.033,45.374,80.487,40.383,83.937l-5.4,3.718L34.4,94.188c-.346,3.919-6.543,76.679,6.465,172.709.748,5.5,1.53,11.055,2.412,16.716,1.15,7.414,2.6,15.086,4,22.712.648,3.462,1.128,6.811,1.82,10.306,2.468,12.651,5.326,25.537,8.576,38.557,20.077,80.565,51.555,150,93.529,206.342a420.84,420.84,0,0,0,92.312,91.206c3.048,2.2,6.275,4.154,9.391,6.276,4.857,3.294,9.648,6.688,14.661,9.77,4.165,2.568,8.475,4.924,12.729,7.347a431.617,431.617,0,0,0,77.617,34.638l4.422,1.452,4.422-1.452c64.173-21.383,119.635-55.72,165.819-102.071-.48-.491-1.016-.916-1.5-1.407-2.657-2.725-5.215-5.606-7.626-8.632l-4.511-2.423-8.8-4.734c-41.539,40.88-90.949,71.565-147.808,91.173a401.287,401.287,0,0,1-72.67-33.51l17.3-49.779q17.721-50.818,35.241-101.7c18.268,17.308,45.771,26.654,70.75,28.418,8.955.637,18.19-.29,27.089-1.184,13.254-1.34,25.805-2.591,34.727,1.429,13.3,5.985,25.012,15.376,38.87,26.486a196.509,196.509,0,0,0,18.1,12.361c8.006,5.025,16.292,10.228,21.439,15.856a25.78,25.78,0,0,1,2.345,3.83c8.989,16.247,24.744,38.379,57.741,42.945,31.723,4.5,50.672-18.9,65.747-37.664,5.773-7.18,11.244-13.98,16.805-18.692,24.923-21.1,29.122-59.472,9.38-85.567m-27.96,63.6c-7.682,6.488-14.282,14.695-20.646,22.612-14.639,18.223-24.287,29.222-39.372,27.212-16.012-2.222-26.587-10.452-36.648-28.608a43.661,43.661,0,0,0-6.186-9.134c-7.749-8.464-17.7-14.728-27.335-20.769a168.061,168.061,0,0,1-16.861-11.624c-13.266-10.619-26.978-21.607-43.616-29.1-15.968-7.18-33.689-5.393-49.411-3.808-8.04.8-15.588,1.563-22.187,1.117-21.317-1.507-55.742-12.428-63.235-36.357l-13.21-42.175-14.17,41.874c-14.572,43.135-29.579,86.148-44.576,129.16l-14.739,42.365c-23.427-19.206-72.737-62.509-91.128-87.119-39.763-53.274-69.678-119.222-88.884-195.979-4.645-18.57-8.43-36.86-11.535-54.637-.916-5.271-1.586-10.307-2.367-15.477,2.122-1.708,4.087-3.484,6.264-5.159a500.145,500.145,0,0,1,44.721-30.819A514.768,514.768,0,0,1,260.816,183.5a411.165,411.165,0,0,1,68.829-12.171c16.973-1.452,34.526-2.926,51.086-1.72,4.132.313,10.351.737,16.682-1.753,6.141-2.412,10.318-6.8,13.109-9.715l30.06-31.623c1.329-1.407,3.037-3.35,5-5.583,2.981-3.383,10.507-11.97,15.678-16.649.324,3.417.38,7.269.4,9.011l.067,3.383c.469,12.048-.335,22.344-2.49,31.411a68.272,68.272,0,0,1-3.428,7.258c-3.875,7.5-7.883,15.275-7.1,23.282,1.184,11.859,11.847,18.491,19.642,23.338a42.727,42.727,0,0,1,4.4,2.87c27.268,22.79,45.927,56.2,63.972,88.5l6.2,11.055c18.9,33.555,40.321,71.576,68.751,109.139,6.633,8.788,13.656,17.587,21.127,26.23,7.012,8.207,13.31,16.962,19.976,26.252,8.3,11.535,16.883,23.472,27.1,34.448a33.487,33.487,0,0,1,2.3,2.736l.056.078c10.507,13.857,8.23,35.029-5,46.228" transform="translate(-32.622)" fill="#484848" style="mix-blend-mode: multiply;isolation: isolate"/>
</svg>
