<svg xmlns="http://www.w3.org/2000/svg" width="7.775" height="8.021" viewBox="0 0 7.775 8.021">
  <path id="Path_115" data-name="Path 115" d="M600.336,117.634l-.011-.008a2.264,2.264,0,0,0-.259-.154h0a7.351,7.351,0,0,0-3.041-.815l-.054,0q-.2-.011-.419-.011H596.5q-.215,0-.42.011l-.054,0a7.352,7.352,0,0,0-3.041.815h0a2.258,2.258,0,0,0-.259.154l-.011.008-.077.053v.094h0v.008a15.718,15.718,0,0,0,.583,3.394c.037.123.076.243.115.36l0,.009q.059.173.121.337v0c.04.1.081.207.123.306s.095.213.144.315l.013.027c.024.049.047.1.072.145v0a5.151,5.151,0,0,0,.554.866,3.578,3.578,0,0,0,.416.434l0,0,.046.038,0,0,.012.01c.041.034.083.068.125.1l.025.018c.026.02.053.04.079.058l.042.026.013.009.028.017c.04.025.08.05.121.073l.043.023c.041.022.081.043.122.062l.047.021c.041.018.081.036.122.052l.053.019c.04.014.081.029.121.041l.059.016c.039.011.079.022.119.031l.069.013c.038.007.075.015.114.02s.057.006.086.01.067.008.1.011c.051,0,.1,0,.155.005h.073c.052,0,.1,0,.155-.005.034,0,.067-.007.1-.011s.058-.005.086-.01.076-.013.114-.02l.069-.013c.04-.009.079-.02.119-.031l.059-.016c.041-.012.081-.027.121-.041l.053-.019c.041-.016.082-.034.122-.052l.047-.021c.041-.019.082-.04.122-.062l.044-.023c.041-.023.081-.048.121-.073l.028-.017.013-.009.041-.026c.027-.018.053-.039.079-.058l.024-.018q.063-.048.125-.1l.013-.01,0,0,.046-.038,0,0a3.587,3.587,0,0,0,.416-.434,5.144,5.144,0,0,0,.554-.866v0c.024-.047.048-.1.072-.145l.013-.027c.049-.1.1-.206.144-.315s.083-.2.123-.306v0q.063-.164.121-.337l0-.009c.04-.117.078-.237.115-.36a15.7,15.7,0,0,0,.582-3.394v-.008h0v-.094Z" transform="translate(-592.638 -116.64)" fill="#bfcdd5"/>
</svg>
