<svg xmlns="http://www.w3.org/2000/svg" xmlns:xlink="http://www.w3.org/1999/xlink" width="261.947" height="59.67" viewBox="0 0 261.947 59.67">
  <defs>
    <clipPath id="clip-path">
      <rect id="Rectangle_177" data-name="Rectangle 177" width="261.947" height="59.67" fill="none"/>
    </clipPath>
  </defs>
  <g id="Group_229" data-name="Group 229" transform="translate(0 -0.001)">
    <path id="Path_215" data-name="Path 215" d="M95.065,62.54l1.913,6.9H97l1.94-6.9h1.56l1.927,6.887h.025l1.876-6.887h1.409l-2.5,8.812h-1.574l-1.927-6.9h-.025l-1.938,6.9H96.2l-2.53-8.812Z" transform="translate(-26.826 -17.911)" fill="#fff"/>
    <path id="Path_216" data-name="Path 216" d="M122.546,70.144v1.209h-5.615V62.54H122.4v1.209h-4.1v2.417h3.8v1.209h-3.8v2.77Z" transform="translate(-33.488 -17.911)" fill="#fff"/>
    <path id="Path_217" data-name="Path 217" d="M131.945,71.352h-1.422l3.689-8.812h1.435l3.664,8.812h-1.436l-.856-2.052h-4.2Zm2.971-7.314L133.3,68.1h3.223l-1.586-4.066Z" transform="translate(-37.381 -17.911)" fill="#fff"/>
    <path id="Path_218" data-name="Path 218" d="M148.987,71.352V62.54h1.359v7.6H154v1.209Z" transform="translate(-42.669 -17.911)" fill="#fff"/>
    <path id="Path_219" data-name="Path 219" d="M159.929,62.54h6.8v1.209h-2.72v7.6h-1.359v-7.6h-2.719Z" transform="translate(-45.802 -17.911)" fill="#fff"/>
    <path id="Path_220" data-name="Path 220" d="M175.8,71.352V62.54h1.359v3.638h3.966V62.54h1.359v8.812h-1.359V67.386h-3.966v3.966Z" transform="translate(-50.348 -17.911)" fill="#fff"/>
    <path id="Path_221" data-name="Path 221" d="M201.649,62.54h1.573l2.821,6.572h.025l2.807-6.572h1.574v8.812H209.09V64.945h-.025l-2.392,5.879h-1.235l-2.4-5.879h-.025v6.407h-1.359Z" transform="translate(-57.751 -17.911)" fill="#fff"/>
    <path id="Path_222" data-name="Path 222" d="M221.563,71.352h-1.422l3.689-8.812h1.435l3.664,8.812h-1.436l-.856-2.052h-4.2Zm2.971-7.314L222.923,68.1h3.223l-1.586-4.066Z" transform="translate(-63.047 -17.911)" fill="#fff"/>
    <path id="Path_223" data-name="Path 223" d="M238.605,71.352V62.54h1.624l4.658,7.025h.025V62.54h1.36v8.812h-1.624L239.99,64.34h-.025v7.012Z" transform="translate(-68.335 -17.911)" fill="#fff"/>
    <path id="Path_224" data-name="Path 224" d="M256.922,71.352H255.5l3.689-8.812h1.435l3.664,8.812h-1.436L262,69.3h-4.2Zm2.971-7.314L258.282,68.1H261.5l-1.586-4.066Z" transform="translate(-73.173 -17.911)" fill="#fff"/>
    <g id="Group_230" data-name="Group 230" transform="translate(0 0.001)">
      <g id="Group_229-2" data-name="Group 229" clip-path="url(#clip-path)">
        <path id="Path_225" data-name="Path 225" d="M279.6,64.38a3.258,3.258,0,0,0-2.329-.819,3.326,3.326,0,0,0,0,6.648,7.547,7.547,0,0,0,1.926-.227V66.9h1.359v4a9.934,9.934,0,0,1-3.285.541,4.559,4.559,0,1,1,3.185-7.956Z" transform="translate(-78.093 -17.851)" fill="#fff"/>
        <path id="Path_226" data-name="Path 226" d="M296.607,70.144v1.209h-5.615V62.54h5.464v1.209h-4.1v2.417h3.8v1.209h-3.8v2.77Z" transform="translate(-83.338 -17.911)" fill="#fff"/>
        <path id="Path_227" data-name="Path 227" d="M305.709,62.54h1.573l2.821,6.572h.025l2.807-6.572h1.574v8.812H313.15V64.945h-.025l-2.392,5.879H309.5l-2.4-5.879h-.025v6.407h-1.359Z" transform="translate(-87.553 -17.911)" fill="#fff"/>
        <path id="Path_228" data-name="Path 228" d="M331.347,70.144v1.209h-5.615V62.54H331.2v1.209h-4.1v2.417h3.8v1.209h-3.8v2.77Z" transform="translate(-93.287 -17.911)" fill="#fff"/>
        <path id="Path_229" data-name="Path 229" d="M340.448,71.352V62.54h1.624l4.658,7.025h.025V62.54h1.36v8.812h-1.624l-4.659-7.012h-.025v7.012Z" transform="translate(-97.502 -17.911)" fill="#fff"/>
        <path id="Path_230" data-name="Path 230" d="M357.548,62.54h6.8v1.209h-2.72v7.6h-1.359v-7.6h-2.719Z" transform="translate(-102.399 -17.911)" fill="#fff"/>
        <path id="Path_231" data-name="Path 231" d="M94.078,23.756a.521.521,0,0,1,.469.293c.734,1.788,2.2,4.9,6.422,4.9,2.961,0,4.867-1.7,4.867-4.193,0-3.958-5.1-3.724-8.913-6.011a4.766,4.766,0,0,1-2.669-4.31c0-3.49,2.814-5.747,6.8-5.747,1.877,0,3.812.967,4.222.967.176,0,.469-.234.675-.234.176,0,.41.088.439.234.235,1.349.617,3.577.617,3.988,0,.616-.235.821-.41.821-.235,0-.323-.146-.411-.41a5.5,5.5,0,0,0-1.935-2.757,5.772,5.772,0,0,0-3.842-1.407c-2.316,0-4.281,1.2-4.281,3.255,0,4.691,6.8,3.4,10.41,7.272a4.468,4.468,0,0,1,1.172,3.137c0,4.222-3.108,6.686-6.832,6.686-2.492,0-3.958-.147-5.776-1.115-.617-.352-1.437-4.486-1.437-4.75,0-.44.206-.616.41-.616" transform="translate(-26.826 -2.488)" fill="#fff"/>
        <path id="Path_232" data-name="Path 232" d="M118.261,9.177c.821,0,1.672.117,3.314.117,1.377,0,.557-.059,2.756-.059.263,0,.615.029.615.41,0,1-2.052-.879-2.052,3.343v.821c0,2.551-.029,4.6-.029,6.333,0,4.017,0,9.031,6.8,9.031,3.284,0,7.594-.029,7.594-8.679,0-4.985-.029-4.985-.029-6.216,0-1.583-.03-3.225-1.055-3.928-.7-.5-1.818-.176-1.818-.645,0-.235.117-.47.586-.47.352,0,1.935.059,2.257.059,1.232,0,1.935-.088,2.493-.088.615,0,.615.235.615.381,0,.47-1.085.645-1.408,1.261a3.527,3.527,0,0,0-.322,1.935c0,.5.029,1.085.029,1.965,0,11.2-1.142,13.634-4.75,15.159a14.165,14.165,0,0,1-4.192.644c-3.577,0-5.542-.586-6.95-1.876-2.346-2.141-2.374-4.809-2.374-10.82v-.5c0-2.023.059-3.313.059-4.222,0-2.023-.176-2.727-2.169-3.02-.617-.088-.645-.41-.645-.557,0-.2,0-.381.674-.381" transform="translate(-33.676 -2.629)" fill="#fff"/>
        <path id="Path_233" data-name="Path 233" d="M164.557,8.807a12.225,12.225,0,0,1,7.3,2.082c.2,0,.587-.44.821-.44.294,0,.44.264.44.587.059,1.935.41,3.724.41,4.075,0,.469-.235.5-.352.5a.607.607,0,0,1-.5-.353,9.794,9.794,0,0,0-8.386-5.307c-4.691,0-8.444,3.079-8.444,8.68,0,5.307,3.195,10.555,8.708,10.555,3.049,0,5.864-1.612,6.128-3.372.029-.234.088-2.492.088-3.694a2.224,2.224,0,0,0-.5-1.642,2.111,2.111,0,0,0-1.29-.469c-.586-.059-1.085-.059-1.085-.645,0-.176.117-.323.528-.323.734,0,2.521.146,3.255.146,1.349,0,2.7-.029,2.785-.029.117,0,.469.029.469.264,0,.469-1.436.469-1.583,1.349a21.4,21.4,0,0,0-.2,3.284,25.93,25.93,0,0,0,.146,3.284c0,.352-.821.235-1.846.791a13.5,13.5,0,0,1-6.627,2.258c-8.855,0-11.729-5.131-11.729-10.145,0-6.245,3.958-11.436,11.465-11.436" transform="translate(-43.844 -2.523)" fill="#fff"/>
        <path id="Path_234" data-name="Path 234" d="M187.19,29.039c1.7-.645,1.494-1.232,10.2-19.763.263-.587.411-.674.88-.674.615,0,.235.059,2.111,4.721,1.378,3.4,5.513,12.99,5.747,13.459,1.466,2.961,3.254,1.613,3.254,2.668,0,.147-.059.44-.791.44-.675,0-1.818-.176-2.639-.176-1.055,0-1.876.117-2.727.117-1.232,0-1.407-.059-1.407-.41,0-.645,1.466-.264,1.466-1.378a22.341,22.341,0,0,0-1.964-5.571c-.117-.235-.235-.5-1.2-.5-.615,0-1.642.059-3.547.059h-1.555c-1.818,0-1.935.146-2.257.85-1.055,2.229-1.876,3.754-1.876,4.574,0,2.023,2.169,1.085,2.169,1.994,0,.235-.03.41-.5.41s-1.407-.029-2.433-.029c-1.144,0-1.876.118-2.521.118-.528,0-.851-.059-.851-.352a.565.565,0,0,1,.441-.557m8.414-8.562h.91c1.29,0,2.785-.029,2.785-.029.762,0,1.145-.147,1.145-.47,0-.352-2.7-6.861-3.255-6.861-.38,0-3.079,6.45-3.079,6.8,0,.528.263.557,1.5.557" transform="translate(-53.484 -2.464)" fill="#fff"/>
        <path id="Path_235" data-name="Path 235" d="M222,9.059h4.868c1.26,0,1.9-.088,2.932-.088,3.343,0,6.392,1.789,6.392,4.926,0,4.339-3.666,5.132-3.666,5.6s4.633,6.949,5.835,8.21a3.8,3.8,0,0,0,2.7,1.378.388.388,0,0,1,.411.352c0,.5-.059.733-2.17.733a6.013,6.013,0,0,1-2.522-.674c-1.554-.908-3.753-4.6-5.249-7.037-1.232-1.994-1.818-2.287-2.17-2.287h-2.4c-.44,0-.5,0-.5,2.082,0,4.135.029,3.724.029,4.135,0,3.548,3.607,2.316,3.607,3.284,0,.293-.117.469-.527.469-.118,0-3.9-.2-4.194-.2-1.407,0-2.9.117-3.226.117-.293,0-.615-.088-.615-.469,0-1.027,2.463.263,2.463-2.961,0-1.877.029-5.981.029-9.236,0-3.079-.029-4.164-.029-4.955,0-3.167-2.845-1.994-2.845-2.9,0-.381.235-.469.851-.469m4.691,9.734a2.118,2.118,0,0,0,1.26.264h1.144c3.577,0,4.633-1.994,4.633-4.076,0-2.023-1.5-4.808-5.718-4.808-1.5,0-1.554.587-1.554,3.226v.821c0,3.841,0,4.428.235,4.574" transform="translate(-63.335 -2.57)" fill="#fff"/>
        <path id="Path_236" data-name="Path 236" d="M252.473,9.054c.235,0,.5.059.791.059.7,0,1.379.118,2.552.118,1.583,0,2.55-.118,3.078-.118.383,0,.5.059.5.293,0,1.261-2.2-.381-2.4,3.167-.089,1.818-.235,11.934-.235,12.256V26c0,.968.2,2.17.7,2.316a3.3,3.3,0,0,0,1.26.235c9.354,0,8.269-2.786,9.119-2.786.176,0,.352.147.352.5,0,1.759-2.286,3.841-3.46,3.841-3.753,0-6.275-.293-8.064-.293-1.612,0-2.229.234-3.664.234-.587,0-.851-.146-.851-.352a.5.5,0,0,1,.469-.469,1.383,1.383,0,0,0,.851-.293c.645-.5,1-1.261,1-5.747V19.551c0-1.613.087-3.255.087-5.073,0-.85-.029-1.73-.059-2.668-.059-1.231-1.232-1.788-2.374-1.818-.41,0-.44-.176-.44-.41,0-.44.557-.528.792-.528" transform="translate(-72.08 -2.593)" fill="#fff"/>
        <path id="Path_237" data-name="Path 237" d="M289.821,8.685c8.855,0,11.084,6.685,11.084,9.676,0,8.239-5.073,11.963-11.494,11.963-7.272,0-10.937-5.132-10.937-10.409,0-6.3,3.871-11.229,11.346-11.229m.529,20.349c3.255,0,8.151-2.58,8.151-7.975,0-7.389-4.516-11.2-9.677-11.2-3.928,0-7.769,2.58-7.769,8.562,0,3.724,2.667,10.614,9.295,10.614" transform="translate(-79.753 -2.488)" fill="#fff"/>
        <path id="Path_238" data-name="Path 238" d="M312,29.039c1.7-.645,1.5-1.232,10.2-19.763.265-.587.411-.674.88-.674.617,0,.235.059,2.111,4.721,1.379,3.4,5.513,12.99,5.747,13.459,1.466,2.961,3.255,1.613,3.255,2.668,0,.147-.059.44-.793.44-.674,0-1.818-.176-2.639-.176-1.055,0-1.876.117-2.726.117-1.232,0-1.407-.059-1.407-.41,0-.645,1.466-.264,1.466-1.378a22.29,22.29,0,0,0-1.965-5.571c-.117-.235-.234-.5-1.2-.5-.617,0-1.642.059-3.549.059h-1.553c-1.818,0-1.935.146-2.259.85-1.055,2.229-1.876,3.754-1.876,4.574,0,2.023,2.169,1.085,2.169,1.994,0,.235-.029.41-.5.41s-1.407-.029-2.434-.029c-1.143,0-1.877.118-2.522.118-.528,0-.85-.059-.85-.352a.565.565,0,0,1,.44-.557m8.416-8.562h.908c1.29,0,2.786-.029,2.786-.029.762,0,1.143-.147,1.143-.47,0-.352-2.7-6.861-3.254-6.861-.382,0-3.079,6.45-3.079,6.8,0,.528.264.557,1.5.557" transform="translate(-89.228 -2.464)" fill="#fff"/>
        <path id="Path_239" data-name="Path 239" d="M346.717,9.013h.792c2.022,0,1.935.176,6.363.176,3.9,0,3.724-.147,6.657-.147.2,0,.5.088.5.7,0,.587-.235,1.5-.41,2.991-.029.352-.2.587-.439.587s-.411-.176-.411-.587c0-1.026-.352-1.965-1.349-2.023-2.58-.2-4.222-.352-5.278-.352-2.024,0-1.906.5-1.965,1.877-.059,1.055-.087,3.547-.087,4.9,0,.527,0,1.436.528,1.466.263,0,.527.029.732.029.44,0,.792-.029,1.262-.029h.908c2.521,0,2.814-.147,3.372-.528a1.369,1.369,0,0,0,.41-.41c.38-.587.117-1.172.7-1.172.352,0,.38.117.38.469,0,.528-.263,1.407-.263,2.433,0,1,.2,1.848.2,2.4,0,.7-.176.733-.41.733-.44,0-.557-.323-.615-.733-.089-.528-.089-1.173-.645-1.408a12.574,12.574,0,0,0-2.845-.41h-2.55c-.617,0-1.2.088-1.2.557,0,1.671-.059,2.58-.059,4.222,0,.411-.029.792-.029,1.173,0,.762.234,3.049,2.346,3.049.674,0,.88.323.88.528,0,.146-.148.557-.91.557-.908,0-2.082-.235-2.844-.235-1.613,0-2.111.176-3.548.176-.293,0-.587,0-.587-.323,0-.527.058-.469,1.262-.908,1.259-.44,1.084-2.376,1.142-9.295,0-1.613.088-3.284.088-5.1v-1.7a2.462,2.462,0,0,0-1.379-2.58c-.645-.323-1.466.029-1.466-.586,0-.088.088-.5.762-.5" transform="translate(-99.079 -2.582)" fill="#fff"/>
        <rect id="Rectangle_176" data-name="Rectangle 176" width="195.105" height="0.309" transform="translate(66.841 35.884)" fill="#fff"/>
        <path id="Path_240" data-name="Path 240" d="M56.348,40.709a5.129,5.129,0,0,0-.361-.428,26.675,26.675,0,0,1-2.07-2.645c-.564-.784-1.146-1.594-1.8-2.363q-.891-1.033-1.675-2.079a76.567,76.567,0,0,1-5.584-8.874l-.515-.918c-1.618-2.9-3.294-5.894-5.919-8.089a6.025,6.025,0,0,0-.642-.44c-.113-.069-.283-.176-.42-.271.073-.158.17-.346.239-.48a5.315,5.315,0,0,0,.49-1.156A11.994,11.994,0,0,0,38.36,9.68l0-.217c-.011-.84-.041-3.392-2.114-3.392-1.195.006-2.271,1.122-3.455,2.469-.14.159-.26.3-.355.4l-2.518,2.649c-.069.074-.2.21-.217.226a1.456,1.456,0,0,1-.238,0c-.329-.106-.659-.2-.993-.281l-.055-.019a20.235,20.235,0,0,0-3.146-.671c-1.116-.158-2.241-.254-3.367-.3-1.368-.057-2.728-.006-4.1.049-.265.011-.532.021-.8.042-.579.048-1.155.123-1.735.161a7.609,7.609,0,0,1-1.556-.037A15.664,15.664,0,0,1,9.376,9.673a7.081,7.081,0,0,0,2.931,2.869c.719.378,1.342.328,1.889.891a.464.464,0,0,1,.14.241c-.321-.087-.646-.161-.973-.226-.311-.062-.624-.117-.938-.162a5.617,5.617,0,0,0-1.109-.092,3.3,3.3,0,0,0-.495.061c-.388.086-.778.169-1.159.285-.111.034-.195.065-.286.089-2.588.9-4.93,1.1-6.725-.245a4.351,4.351,0,0,0,2.4,2.341,18.418,18.418,0,0,1-2.518,1.284,69.454,69.454,0,0,1-.084-8.341A38.11,38.11,0,0,1,8.811,5.652,53.919,53.919,0,0,1,27.623,2.346C41.511,2.349,50.7,7.391,52.8,8.67a71.469,71.469,0,0,1-1.952,20.612c-.064.253-.151.482-.217.733.447.659.916,1.317,1.409,1.97.12.159.242.295.361.448.253-.847.5-1.7.723-2.579A73.346,73.346,0,0,0,55.1,7.9l-.049-.552L54.6,7.032C54.181,6.744,44.221,0,27.623,0S1.068,6.744.651,7.032L.2,7.344l-.049.547A70.908,70.908,0,0,0,.691,22.36c.063.462.128.927.2,1.4.1.622.218,1.264.336,1.9.054.29.094.57.152.863.207,1.06.446,2.14.718,3.231A48.245,48.245,0,0,0,9.935,47.045a35.272,35.272,0,0,0,7.733,7.641c.255.185.527.348.787.525.407.276.808.561,1.228.819.349.216.71.412,1.067.616a36.225,36.225,0,0,0,6.5,2.9l.37.122.371-.122A34.976,34.976,0,0,0,41.886,51c-.04-.041-.085-.076-.126-.117q-.334-.343-.639-.724l-.377-.2-.737-.4a32.608,32.608,0,0,1-12.384,7.639,33.629,33.629,0,0,1-6.088-2.807l1.449-4.171Q24.47,45.96,25.936,41.7a9.85,9.85,0,0,0,5.928,2.381,13.414,13.414,0,0,0,2.27-.1,6.127,6.127,0,0,1,2.909.12A15.783,15.783,0,0,1,40.3,46.316a15.974,15.974,0,0,0,1.517,1.035,9.177,9.177,0,0,1,1.8,1.329,2.177,2.177,0,0,1,.2.321,6.39,6.39,0,0,0,4.838,3.6c2.657.377,4.245-1.583,5.508-3.155a11.765,11.765,0,0,1,1.408-1.567,5.308,5.308,0,0,0,.785-7.168m-2.342,5.329a13.574,13.574,0,0,0-1.73,1.895c-1.226,1.526-2.034,2.448-3.3,2.279a3.95,3.95,0,0,1-3.071-2.4,3.671,3.671,0,0,0-.518-.764,10.806,10.806,0,0,0-2.29-1.74,14.028,14.028,0,0,1-1.413-.974A17.233,17.233,0,0,0,38.032,41.9a8.016,8.016,0,0,0-4.14-.32,11.6,11.6,0,0,1-1.859.093c-1.786-.126-4.67-1.04-5.3-3.045l-1.107-3.534L24.442,38.6c-1.221,3.614-2.478,7.218-3.734,10.822l-1.235,3.549a60.148,60.148,0,0,1-7.634-7.3A45.839,45.839,0,0,1,4.391,29.254C4,27.7,3.684,26.166,3.424,24.676c-.076-.441-.132-.863-.2-1.3.178-.143.343-.292.525-.433A41.96,41.96,0,0,1,7.5,20.366a43.133,43.133,0,0,1,11.621-4.992,34.4,34.4,0,0,1,5.766-1.02,27.661,27.661,0,0,1,4.28-.144,3.056,3.056,0,0,0,1.4-.147,3.1,3.1,0,0,0,1.1-.814l2.518-2.65c.112-.118.255-.28.42-.467.25-.284.881-1,1.314-1.394.027.285.031.608.033.754l.006.283a9.76,9.76,0,0,1-.208,2.632,5.757,5.757,0,0,1-.288.608,3.664,3.664,0,0,0-.6,1.95c.1.994.992,1.55,1.646,1.955a3.469,3.469,0,0,1,.369.241c2.284,1.909,3.847,4.708,5.359,7.414l.52.927a78.336,78.336,0,0,0,5.76,9.143c.556.736,1.145,1.474,1.77,2.2.587.687,1.115,1.422,1.673,2.2a29.144,29.144,0,0,0,2.27,2.886,2.669,2.669,0,0,1,.193.229l0,.006a2.9,2.9,0,0,1-.419,3.873" transform="translate(0 0)" fill="#fff"/>
      </g>
    </g>
  </g>
</svg>
