<svg xmlns="http://www.w3.org/2000/svg" xmlns:xlink="http://www.w3.org/1999/xlink" width="573.556" height="529.187" viewBox="0 0 573.556 529.187">
  <defs>
    <clipPath id="clip-path">
      <rect id="Rectangle_242" data-name="Rectangle 242" width="520.242" height="469.283" fill="#2a99eb"/>
    </clipPath>
    <clipPath id="clip-path-2">
      <rect id="Rectangle_177" data-name="Rectangle 177" width="283.23" height="84.103" fill="none"/>
    </clipPath>
  </defs>
  <g id="Group_337" data-name="Group 337" transform="translate(-72.235 -1781.305)">
    <g id="Group_320" data-name="Group 320" transform="translate(129.426 1781.306) rotate(7)">
      <g id="Group_319" data-name="Group 319" transform="translate(0 -0.001)" clip-path="url(#clip-path)">
        <path id="Path_895" data-name="Path 895" d="M235.228,48.426c-.011-.044-.036-.075-.048-.117a.841.841,0,0,1-.048.113l.1,0" transform="translate(89.658 18.422)" fill="#2a99eb"/>
        <path id="Path_896" data-name="Path 896" d="M216.63,76.1l-.012,0v0h.012" transform="translate(82.599 29.018)" fill="#2a99eb"/>
        <path id="Path_897" data-name="Path 897" d="M244.68,57.145l-.023-.006v.006h.023" transform="translate(93.291 21.789)" fill="#2a99eb"/>
        <path id="Path_898" data-name="Path 898" d="M295.557,10.1l-.145-.25a.686.686,0,0,1-.064.2l.209.047" transform="translate(112.62 3.756)" fill="#2a99eb"/>
        <path id="Path_899" data-name="Path 899" d="M266.239,25.674l-.087-.065a.6.6,0,0,1-.028.088c.04-.012.072-.008.115-.023" transform="translate(101.476 9.766)" fill="#2a99eb"/>
        <path id="Path_900" data-name="Path 900" d="M75.6,173.407c-.076-.018-.14-.011-.211-.023a.544.544,0,0,1,.012.155l.2-.131" transform="translate(28.745 66.115)" fill="#2a99eb"/>
        <path id="Path_901" data-name="Path 901" d="M238.946,47.036c0-.026-.012-.041-.014-.068-.019.018-.04.028-.059.043.025.007.048.018.073.025" transform="translate(91.085 17.911)" fill="#2a99eb"/>
        <path id="Path_902" data-name="Path 902" d="M264.168,46.767l-.039-.014a.213.213,0,0,1,.007.029l.032-.015" transform="translate(100.716 17.829)" fill="#2a99eb"/>
        <path id="Path_903" data-name="Path 903" d="M230.293,55.894c.106.007.206.006.314.012-.061-.075-.124-.138-.185-.211,0,.01,0,.018,0,.028a.728.728,0,0,1-.124.171" transform="translate(87.813 21.239)" fill="#2a99eb"/>
        <path id="Path_904" data-name="Path 904" d="M236.007,322.041c-.1.058-.2.105-.294.162a.591.591,0,0,1,.233.145c.022-.1.036-.2.061-.307" transform="translate(89.88 122.799)" fill="#2a99eb"/>
        <path id="Path_905" data-name="Path 905" d="M252.793,28.271c.036.018.068.039.1.057-.01-.039-.024-.075-.032-.115a.593.593,0,0,1-.052.048l-.019.01" transform="translate(96.393 10.759)" fill="#2a99eb"/>
        <path id="Path_906" data-name="Path 906" d="M209.175,79.574l.355-.03c-.109-.051-.213-.1-.32-.153,0,.026.019.046.015.075-.006.046-.036.07-.05.109" transform="translate(79.761 30.274)" fill="#2a99eb"/>
        <path id="Path_907" data-name="Path 907" d="M208.1,93.111l.182-.059-.167-.14a.95.95,0,0,1,.006.155c0,.019-.018.026-.021.044" transform="translate(79.353 35.43)" fill="#2a99eb"/>
        <path id="Path_908" data-name="Path 908" d="M21.941,184.885c0-.039,0-.072,0-.112-.03.022-.057.047-.087.068a.586.586,0,0,1,.065.021c.011.007.015.017.026.023" transform="translate(8.332 70.458)" fill="#2a99eb"/>
        <path id="Path_909" data-name="Path 909" d="M193.241,78.866c-.036-.032-.073-.055-.109-.086a.882.882,0,0,1-.026.128c.044-.015.091-.026.135-.043" transform="translate(73.634 30.041)" fill="#2a99eb"/>
        <path id="Path_910" data-name="Path 910" d="M307.491,8.148l.149.035c-.017-.051-.04-.093-.055-.144a.544.544,0,0,1-.029.047.68.68,0,0,1-.065.062" transform="translate(117.25 3.067)" fill="#2a99eb"/>
        <path id="Path_911" data-name="Path 911" d="M340.04,468.774h0l2.312.011,1.651,0c6.512-.4,12.94-1.243,19.075-3.625.461-.178.927-.352,1.366-.575,2.533-1.285,3.337-3.152,2.149-5.72a106.011,106.011,0,0,0-6.306-12.336q-2.424-3.839-4.865-7.67a14.147,14.147,0,0,0-5.963-5.3c-4.62-2.206-7.092-6.183-8.241-10.987-1.745-7.292-5.7-13.121-11.585-18.106,3.076-.05,5.912.065,8.74-.142a100.168,100.168,0,0,0,14.758-1.811,17.837,17.837,0,0,0,2.825-.89,13.184,13.184,0,0,1,5.119-1.107,12.008,12.008,0,0,0,7.407-2.894c2.4-1.855,4.717-3.811,7.074-5.719a3.665,3.665,0,0,0,1.174-2.482c2.448-16.4,8.416-31.5,16.84-45.708,3.144-5.3,6.1-10.718,7.76-16.721a31.67,31.67,0,0,0,.746-14.4c-.22-1.184-.163-2.416-.275-3.622-.1-1.057.373-1.094,1.164-.742a11.294,11.294,0,0,1,4.984,3.957c4.192,6.248,9.744,11.033,15.991,15.118,5.871,3.84,10.289,8.835,11.7,15.944,1.162,5.85.026,11.512-1.738,17.081-3.006,9.491-7.571,18.279-12.331,26.967a14.216,14.216,0,0,1-8.635,7.23,6.007,6.007,0,0,0-3.587,2.986c-1.689,2.967-3.05,3.068-5.159.378-1.019-1.3-1.952-2.669-2.941-3.992-2.807-3.754-6.623-4.908-10.951-3.119a14.123,14.123,0,0,1-5.587,1.191,8.553,8.553,0,0,0-5.535,2.3,32.076,32.076,0,0,0-9.212,12.919c-1.39,3.455-.492,5.525,2.941,7.045a31.876,31.876,0,0,1,6.585,3.732,16.294,16.294,0,0,0,8.238,3.154c6.02.657,12.035,1.616,18.1,1.517a74.228,74.228,0,0,0,14.7-2.115,13.856,13.856,0,0,0,10.976-10.364c3.156-12.022,8.705-22.883,15.349-33.277a19.98,19.98,0,0,1,7.01-7.013c4.917-2.8,6.72-7.664,7.371-13a28.059,28.059,0,0,1,1.611-7.038c2.514-6.373.332-11.773-4.006-16.5a63.228,63.228,0,0,1-10.2-14.371,69.362,69.362,0,0,1-6.614-23.39c-1.008-8.694-1.392-17.544-4.622-25.79-1.713-4.375-2.644-8.437-.782-13.012.921-2.263.67-4.9.195-7.368a26.011,26.011,0,0,1,2.167-16.432,21.4,21.4,0,0,0,1.044-16.659c-2.232-6.746-2.923-13.893-4.975-20.7a140.6,140.6,0,0,1-4.4-16.753,44,44,0,0,1,1.087-20.923c2.062-6.592,2.829-13.465,4.344-20.177a17.02,17.02,0,0,1,1.74-4.964,3.565,3.565,0,0,1,5.081-1.537,4.916,4.916,0,0,1,1,.572c7.177,5.759,15.435,10.027,22.3,16.222a74.3,74.3,0,0,1,10.885,12.191,27.009,27.009,0,0,1,5.013,13.111,14.92,14.92,0,0,0,1.481,5.049,10.278,10.278,0,0,0,8.7,6.2,49.445,49.445,0,0,0,13.5-.03,10.092,10.092,0,0,0,8.419-7.2,9.6,9.6,0,0,1,2.162-3.808c1.437-1.479,1.713-3.521,2.185-5.448.344-1.4.3-2.938,1.336-4.119V159.7c-.113.032-.273.054-.308-.015-1.068-2.207-3.009-3.886-3.587-6.416a184.241,184.241,0,0,1-4.2-28.111c-.412-5.825-.692-11.656-1.051-17.479a26.872,26.872,0,0,1,1.722-12.131,5.182,5.182,0,0,0-.39-4.64A89.448,89.448,0,0,1,505.4,74.713c-.96-2.879-1.75-5.828-2.934-8.615a5.128,5.128,0,0,1,1.311-6.391A14.789,14.789,0,0,0,508.5,49.6a41.1,41.1,0,0,0-.83-11.189c-.231-1.022-.383-2.062-.63-3.08-.182-.747-.33-1.626-1.243-1.785-.995-.173-1.222.743-1.593,1.4-1.921,3.406-3.54,6.988-6.1,10.017-1.985,2.352-3.256,2.71-6.045,1.427-5.427-2.5-8.314-6.86-9.3-12.629a10.465,10.465,0,0,1,.2-2.793c.064-.67.076-1.379-.664-1.72a1.559,1.559,0,0,0-1.812.454c-1.3,1.279-2.37,2.76-3.539,4.154-1.5,1.79-2.484,2.1-4.632,1.274-3.9-1.5-7.585-3.332-10.136-6.846a19.655,19.655,0,0,1-2.5-5.2c-1.952-5.585-5.161-10.1-10.795-12.515a15.859,15.859,0,0,0-1.695-.658c-.772-.233-1.206-.218-1.209.847,0,1.478-.475,1.734-1.881,1.04-3.974-1.961-8.462-2.489-12.265-4.6-.246.166-.3.257-.305.372-.041.615.552,1.392-.239,1.805-.745.388-1.369-.214-1.938-.62a13.155,13.155,0,0,1-3.176-3.981A10.4,10.4,0,0,0,422.86.939c-1.2-.691-1.511-.507-1.58.9a5.948,5.948,0,0,0,.63,3.039c.7,1.38,1.461,2.723,2.194,4.082.319.591.869,1.267.38,1.931.017.051.04.093.055.144L424.387,11c-.492.5-1.2.138-1.8.023a6.427,6.427,0,0,0-2.366-.272c.291,1,1.293,1.9.235,2.783-.978.823-2.061.46-3.14.138-4.06-1.214-7.462-3.282-9.513-7.159a2.909,2.909,0,0,0-.63-.765c-.718-.655-1.59-1.322-2.495-.717-.79.53-.131,1.428.086,2.12a19.24,19.24,0,0,0,2.025,3.786,9.025,9.025,0,0,1,.847,1.608,1.31,1.31,0,0,1,.044.843c.05.086.094.164.145.25l-.21-.047c-.171.214-.508.283-1.007.182-5.462-1.1-10.6-2.832-13.975-7.7a12.315,12.315,0,0,0-5.5-4.346,5.155,5.155,0,0,0-.931-.341c-.576-.122-1.345-.547-1.691,0-.4.626.454,1,.823,1.424a23.717,23.717,0,0,1,2.228,2.439c.308.47.587,1.014.238,1.543s-.9.225-1.367.151c-.526-.081-1.024-.45-1.658-.13a2.964,2.964,0,0,0,1.08,1.753,79.2,79.2,0,0,1,5.383,6.71,36.212,36.212,0,0,0,8.719,8.746,1.816,1.816,0,0,1,.768.844.672.672,0,0,1-.022.112l.8.349a1.179,1.179,0,0,1-1.173.113,1.872,1.872,0,0,1-.265.094c-4.126-.555-8.143-1.475-11.676-3.815a12.666,12.666,0,0,1-4.962-6.832c-.441-1.314-.961-2.6-2.652-3.1.171,7.7,3.105,13.784,9.452,18.138.884.608,2.05.89,2.549,2,0,.01-.008.012-.011.022a.933.933,0,0,1,.678.495,3.2,3.2,0,0,1-1.229.03,4.038,4.038,0,0,1-.463.106,66.422,66.422,0,0,0-12.813,1.372c-4.615.815-8.607-.573-12.285-3.21-2.145-1.539-4.094-3.329-6.322-5.123.724,3.4,2.828,5.589,5.165,7.617.374.326.807.586,1.162.932.29.283.713.566.619.992.029.021.057.043.086.065-.041.014-.073.011-.115.023a.786.786,0,0,1-.07.153c-.32.51-.874.32-1.362.225-.79-.155-1.485-.768-2.609-.453A11.933,11.933,0,0,0,368.1,39a23.844,23.844,0,0,0,8.224,1.688,81.006,81.006,0,0,1,8.4.691,3.214,3.214,0,0,1,2.053.815,1.351,1.351,0,0,1-1.076.832c-3.509.761-6.887,1.966-10.32,2.988-4.286,1.276-8.2-.055-11.792-2.37-4.959-3.192-8.706-7.6-12.02-12.4-3.046-4.411-6.5-8.375-11.432-10.767a3.842,3.842,0,0,0-2.894-.576c1.725,1.274,2.768,2.861,4.1,4.2a30.919,30.919,0,0,1,7.565,13.042c.164.539.532,1.2,0,1.631.01.039.023.075.033.113-.037-.017-.068-.039-.1-.057-.586.385-1.144-.13-1.612-.478a23.2,23.2,0,0,1-4.261-4.6,14.873,14.873,0,0,0-6.424-4.792,10.093,10.093,0,0,0-6.179-.336c.707.971,1.673,1.142,2.427,1.616.279.177.584.312.859.5.688.466,1.6.939,1.4,1.863-.21.97-1.272.872-2.073.989-.272.04-.553.021-.825.061s-.6.043-.7.341c-.141.413.232.572.5.74.838.536,1.786.874,2.622,1.414.666.431,1.374.979,1.153,1.833-.185.714-1.05.71-1.684.826-1.463.269-2.984-.091-4.724.448a29.613,29.613,0,0,1,10,5.266,68.3,68.3,0,0,1,7.67,7.28c4.573,5.083,9.556,9.677,16.355,11.686.5.149,1.122.32,1.162.9l.039.014-.032.015c0,.018.012.028.012.046-.019.637-.707.76-1.227.939a6.568,6.568,0,0,1-4.228-.1,38.66,38.66,0,0,0-10.229-1.866,24.046,24.046,0,0,0-7.994,1.16c-3.381,1.051-6.42.28-9.324-1.49-.283-.171-.529-.4-.812-.57-.456-.271-.963-.84-1.463-.381-.472.435.134.881.349,1.294.2.39.514.786.127,1.2-.015.017-.032.019-.047.033,0,.026.012.041.014.068-.025-.007-.05-.017-.073-.025a1.128,1.128,0,0,1-1.131.041,25.563,25.563,0,0,1-2.835-1.363,5.956,5.956,0,0,0-4.086-.486c.061.729.662.869,1.08,1.151a10.265,10.265,0,0,1,1.358.943,1.421,1.421,0,0,1,.593,1.3.736.736,0,0,1-.1.228c.014.043.037.072.048.117l-.1-.006a1.536,1.536,0,0,1-1.007.394,1.378,1.378,0,0,0-.805.323c1.968,1.9,3.8,3.92,5.826,5.726,2.4,2.133,4.9,4.136,8.159,4.865.42.093,1.019.232.985.778l.025.006H337.6c0,.026.012.041.008.069-.086.483-.7.481-1.126.488a14.364,14.364,0,0,1-10.121-3.358,27.907,27.907,0,0,1-3.441-3.8c-.826-1.047-1.771-1.677-3.072-.584a2.15,2.15,0,0,1-2.209.309c-3.383-1.347-6.846-.776-10.313-.492,1.361.517,2.782.8,4.177,1.181a13.953,13.953,0,0,1,5.745,2.823c.4.356.877.745.638,1.362.061.073.124.137.185.213-.108-.007-.207-.007-.314-.014a1.294,1.294,0,0,1-1.167.372c-3.767-.247-7.32.877-10.926,1.656a12.421,12.421,0,0,1-5.255.16c-.941-.2-1.334-.068-1.087,1.053.59,2.674,0,3.159-2.783,2.927-2.909-.243-5.835-.336-8.751-.423a21.342,21.342,0,0,1-9.532-2.409c-1.406-.745-1.818-.522-2.008,1.048-.2,1.685.583,2.97,2.461,3.9a37.757,37.757,0,0,0,4.047,1.459,6.708,6.708,0,0,1,2.833,1.648c.937,1.026.774,1.656-.577,1.913-3.276.624-6.4,2.245-9.893,1.5-.74-.156-.742.352-.673.935.218,1.866.068,2.043-1.847,2.21-1.723.151-3.272.97-5.279,1.181a2.6,2.6,0,0,0,1.362.454c7.507,1.381,14.779,3.674,22.108,5.745,2.339.66,4.719,1.16,7.05,1.839.431.126,1.04.232,1.026.808l.012,0h-.011c0,.017.01.023.008.04-.043.481-.612.635-1.03.687-3.71.454-7.4,1.377-11.173.5-.849-.2-1.644-.541-2.644-.851a9.894,9.894,0,0,0,3.623,3.241c.4.232.961.46.97.931.108.05.211.1.32.153l-.355.03c-.148.435-.731.5-1.163.559-4.452.644-8.653.069-12.045-3.138a10.151,10.151,0,0,0-9.861-2.8,63.273,63.273,0,0,0-6.568,1.945c1.794.565,3.672.2,5.387.843.859.322,2.124.477,2.083,1.544l0,.019c.037.03.075.054.111.086-.046.017-.091.028-.137.044-.157.854-1.3.876-2.1,1.048a6.688,6.688,0,0,0-2.716,1.166c-.3.228-.751.41-.72.834.039.493.577.443.914.546a58.713,58.713,0,0,1,15.273,7.451,110.909,110.909,0,0,1,9.117,6.879c.465.383,1,.816.964,1.466.055.048.111.093.166.141l-.184.059c-.186.725-.957.774-1.555.961a84.931,84.931,0,0,0-8.179,2.68,4.041,4.041,0,0,0-2.753,2.816,17.385,17.385,0,0,1,8.742-1.662c1.921.17,3.833.46,5.749.7a30.235,30.235,0,0,0,8.408-.019c.579-.088,1.309-.348,1.662.312.4.747-.322,1.2-.739,1.67-3.5,3.957-8.081,6.064-13.024,7.491A156.474,156.474,0,0,1,268,147.316a17.762,17.762,0,0,1-12.185-1.924c-2.239-1.294-4.821-1.046-7.252-1.437A110.457,110.457,0,0,0,234.226,143a99.838,99.838,0,0,0-12.707.611A85.531,85.531,0,0,0,208,145.961a47.912,47.912,0,0,0-16.179,7.753,20.689,20.689,0,0,1-1.91,1.312,7.04,7.04,0,0,1-8.228-.341,26.465,26.465,0,0,0-5.225-3.167c-7.068-2.956-13.954-1.956-20.682,1.1a51.157,51.157,0,0,1-14.547,4.289c-10.845,1.435-19.061,7.075-25.234,15.953-3.441,4.949-6.179,10.323-9.419,15.391-3.2,5.009-6.831,9.636-11.944,12.886a25.623,25.623,0,0,1-16.519,4.125,30.566,30.566,0,0,0-7.6.134,7.432,7.432,0,0,1-1.484.111c-4.638-.2-9.259.3-13.89.4-6.021.127-10.943,3-15.547,7.168,3.477-1.235,6.523-2.692,9.8-3.517a16.113,16.113,0,0,1,9.139.025c.6.2,1.528.243,1.518,1.028-.01.8-.923.8-1.546.964-4.645,1.211-9.351,2.181-13.919,3.7a49.35,49.35,0,0,0-18.349,10.61,41.111,41.111,0,0,0-9.582,13.377c-2.031,4.532-3.8,9.2-8,12.624a3.764,3.764,0,0,0,2.638-.191c.582-.182,1.232-.45,1.711.069.575.622.088,1.268-.232,1.815A23.6,23.6,0,0,1,9.2,258.737a33.728,33.728,0,0,1-4.572,4.2c.015.2.086.267.211.3,3.1.768,3.4,1.5,2.127,4.394a17.935,17.935,0,0,1-6.042,6.988c3.973-.369,7.148-1.583,9.148-4.922,1.5-2.51,2.854-5.1,4.194-7.7a13.906,13.906,0,0,1,7.5-7.123,3.313,3.313,0,0,1,1.109-.316c.844-.011,1.127.4.75,1.156a17.986,17.986,0,0,1-1.33,1.9,45.548,45.548,0,0,0-3.778,7.9,20.767,20.767,0,0,1-3.018,5.1c.127.062-.51.173.018.2.137.007.282-.109.427-.166a8.209,8.209,0,0,0,5.6-5,27,27,0,0,1,5.876-9.119,7.174,7.174,0,0,1,1.55-1.233c.267-.138.554-.322.859-.192l.086-.068c.006.04,0,.073.006.112a.9.9,0,0,1,.3,1.008,6.021,6.021,0,0,1-1.431,2.571c-.46.587-1.593,1.261-.816,1.984.7.655,1.68-.119,2.285-.769a43.961,43.961,0,0,0,7.009-9.6c3.7-7.123,9.921-9.64,17.463-9.9a3.234,3.234,0,0,1,.825.057c.367.081.834.094.869.593a.827.827,0,0,1-.575.742c-5.42,2.576-8.473,7.623-12.3,11.848a26.51,26.51,0,0,1-5.724,4.8c4.469-.058,7.886-2.481,10.969-5.466a42.223,42.223,0,0,1,25.85-12.161,39.29,39.29,0,0,1,9.742.268,29.413,29.413,0,0,0,14.359-1.286,20.428,20.428,0,0,1,3.865-.9c.439-.064.99-.106,1.166.369.072.012.135.006.211.023l-.2.131c.033.39-.326.688-.648.9a25.479,25.479,0,0,1-7.057,3.207,36.647,36.647,0,0,1-11.292,1.369,26.233,26.233,0,0,0-11.638,2.039,22.584,22.584,0,0,0-5.353,3.567,2.272,2.272,0,0,0-.767,1.062c-.175.593.026.867.658.678a12.414,12.414,0,0,0,1.224-.507,40.144,40.144,0,0,1,19.265-2.829,35.521,35.521,0,0,0,25.105-7.539,54.621,54.621,0,0,0,8.3-8.059,9.382,9.382,0,0,1,3.855-2.75c5.214-1.995,10.584-3.493,15.917-5.112a31.239,31.239,0,0,0,7.168-2.967,15.84,15.84,0,0,0,6.52-7.7c1.515-3.611,2.336-7.489,4.228-10.957a8.536,8.536,0,0,1,1.26-1.935c.225-.232.46-.572.819-.445.439.155.412.6.4.986a6.4,6.4,0,0,1-.251,1.3,51.578,51.578,0,0,0-1.571,13.107,72.4,72.4,0,0,0,6.308,27.577c4.71,10.968,10.524,21.381,16.084,31.923.721,1.367,1.388,2.761,2.1,4.132a30.577,30.577,0,0,0,9.9,11.375,22.989,22.989,0,0,1,6.423,6.324,145.716,145.716,0,0,0,12.915,15.929,20.975,20.975,0,0,1,5.234,10.352,13.309,13.309,0,0,0,3.876,7.353,23.33,23.33,0,0,1,7.081,15.757c.631,8.554,4.579,15.248,11.982,19.685a96.193,96.193,0,0,1,17.33,13.483c2.1,2.022,4.312,3.951,6.427,5.959,6.2,5.89,11.772,12.29,14.856,20.443a11.673,11.673,0,0,0,5.71,6.373,24.588,24.588,0,0,1,2.833,1.713c1.75,1.263,2.321,2.908,1.28,4.761-1.513,2.692-1.337,5.346-.5,8.148,1.18,3.97,2.533,7.882,3.858,11.8,1.865,5.521,5.778,8.286,11.567,8.857a30.54,30.54,0,0,0,18.207-3.538,5.411,5.411,0,0,1,1.059-.467,1.207,1.207,0,0,1,.785-.011c.1-.058.195-.1.294-.163-.025.105-.039.2-.062.307a1.045,1.045,0,0,1,.218.825c-.046.659-.091,1.322-.163,1.977-.577,5.274,1.727,9.782,3.7,14.4,1.159,2.707,2.448,5.208,5.448,6.284a.522.522,0,0,1,.366.649h.663c1.4-.714,2.89-.175,4.333-.3M26.485,240.325c1.829-8.755,17.3-18.606,27.991-17.726a88.685,88.685,0,0,1-27.991,17.726m99.456-11.418c4.448-6.235,7.2-13.359,12.957-18.652-1.028,8.972-6.878,17.46-12.957,18.652m249.7,126.183c-2.037,5.412-4.7,10.542-7.108,15.784-1.652,3.587-3.416,7.115-3.366,11.27.028,2.329-3.9,6.133-6.206,6.528a1.9,1.9,0,0,1-1.532-.4c-2.1-1.548-3.439-6.183-2.457-8.586a3.907,3.907,0,0,1,.577-.995c.409-.5.859-1.2,1.555-.984.629.2.312.937.316,1.473a1.2,1.2,0,0,0,2.091.877c2.394-2.542,5.074-4.992,5.107-9.075-.733-2.057.392-3.749,1.406-5.568a73.194,73.194,0,0,0,3.786-7.878c.89-2.17,2.345-3.681,4.927-3.761,1.164-.036,1.278.318.9,1.312m19.293-53.913q-3.352-1.15-6.7-2.31a8.8,8.8,0,0,1-1.07-.416,2.682,2.682,0,0,1-1.747-2.043c-.061-.9.975-1.1,1.6-1.453a15.716,15.716,0,0,1,4.883-1.971,3.062,3.062,0,0,1,1.676.58,9.161,9.161,0,0,1,3.6,5.73c.325,1.74-.566,2.457-2.239,1.883m45.915,68.45c-4.21,8.528-8.2,17.177-13.326,25.223a31.94,31.94,0,0,0-4.561,10.176c-.7,3.13-4.992,6.129-8.27,6.085a3.016,3.016,0,0,1-2.17-1.032,7.413,7.413,0,0,1,.343-10.411c.275-.245.53-.695.948-.5.457.217.4.731.387,1.18-.025.823-.605,1.833.553,2.319,1.234.519,2.064-.224,2.875-1.051,1.5-1.536,3.021-3.062,4.6-4.521,2.468-2.282,3.989-5.252,5.86-7.963a2.61,2.61,0,0,0-.385-3.477c-.4-.431-.722-.794-.358-1.427,2.87-4.988,5.406-10.147,7.837-15.4a4.011,4.011,0,0,1,.084,2.178c-.087.689-.029,1.365.805,1.587a1.4,1.4,0,0,0,1.815-1.029c.566-1.778,1.019-3.593,1.508-5.4.195-.717.365-1.441.6-2.363a4.824,4.824,0,0,1,.861,5.814m-7.759-75.385c3.068,9,5.735,18.142,9.908,26.737a91.087,91.087,0,0,0,8.9,15.418c2.311,3.054,2.457,6.239,1.937,9.687a12.538,12.538,0,0,1-1.131,3.781,3.06,3.06,0,0,1-3.368,1.834,2.686,2.686,0,0,1-2.54-2.767,14.231,14.231,0,0,0-.968-3.835,10.281,10.281,0,0,1-1-4.149c.229-2.423-.879-3.992-2.453-5.611a37.686,37.686,0,0,1-6.261-9.675,7.448,7.448,0,0,0-1.026-1.674,1.776,1.776,0,0,0-2.276-.294c-.745.376-.738,1.028-.558,1.711.127.483.387,1.115.019,1.413-.5.4-.986-.214-1.454-.43-2.952-1.365-5.952-2.681-8.153-5.2-.584-.669-1.768-1.508-1.261-2.261s1.7,0,2.58.287c.711.231,1.649.8,2.16.117.528-.709-.217-1.507-.659-2.169a8.612,8.612,0,0,0-2.445-2.2c-5.851-4.031-10.625-8.925-12.824-15.9-.22-.7-.648-1.385-1.434-1.454-.938-.084-.995.833-1.316,1.442-.537,1.019-1.127,2.011-1.763,3.134a7.643,7.643,0,0,1-1.47-2.4,3.562,3.562,0,0,1,3.793-5.051,6.841,6.841,0,0,1,3.213,1.21,30.654,30.654,0,0,1,9.009,8.4,5.445,5.445,0,0,0,.872.989,1.406,1.406,0,0,0,1.663.377c.5-.307.12-.924.058-1.384a13.553,13.553,0,0,0-2.272-5.076,16.519,16.519,0,0,1-2.113-4.05c5.532,1.432,9.708,4.8,14.015,8.527a16.346,16.346,0,0,0-2.542-7.281,24.755,24.755,0,0,0-3.7-4.644,35.541,35.541,0,0,1-2.908-3.165,4.214,4.214,0,0,1,1.656-6.622c1.464-.675,2.419.064,3.136,1.279a58.9,58.9,0,0,1,4.982,10.948m1.5-183.847c-.251-.344-.207-.685-.01-1.2a1.128,1.128,0,0,1,.01,1.2m-97.217-8.589a27.606,27.606,0,0,0,11.483-5.551A69.642,69.642,0,0,0,358.024,87c-1.111,7.038-11.1,14.794-19.206,15.1h0c-.167.048-.337.066-.5.1-.048.011-.1.021-.142.029a11.356,11.356,0,0,1-3.858-.059l3.064-.366M228.353,269.879a16.907,16.907,0,0,1-4.254-2.507c-.637-.539-1.365-1.065-2.216-.391-.807.637-.579,1.488-.3,2.276,1.816,5.132,3.4,10.354,5.551,15.356a14.585,14.585,0,0,1,.541,9.7c-.521,2.05-1.671,2.383-3.159.9-2.354-2.343-4.995-4.341-7.5-6.5a12.214,12.214,0,0,1-2.174-2.025c-2.25-3.21-5.462-5.162-8.69-7.209-5.574-3.532-10.017-8.11-12-14.638-.166-.546-.67-1.228-.117-1.653.62-.478,1.224.131,1.764.5.682.467,1.351.953,2.042,1.406a1.837,1.837,0,0,0,2.431-.1,1.765,1.765,0,0,0,.312-2.387,14.092,14.092,0,0,0-5.036-5.748,41.446,41.446,0,0,1-18.608-23.39c-1.506-4.6-3.375-9.074-5.129-13.587-3.6-9.277-3.857-18.514-.115-27.857,3.477-8.679,7.42-17.08,13.451-24.314,8.4-10.073,18.837-16.537,32.057-18.323,7.161-.967,14.288-2.12,21.532-2.1a79.144,79.144,0,0,1,10.22.692A2.447,2.447,0,0,1,251.3,150.1c.492,2.108,1.343,2.832,3.561,2.988,4.2.294,8.364-.26,12.541-.5,4.018-.233,8-.968,12.038-.9a23.469,23.469,0,0,1,7.3,1.242c2.274.783,3.2,2.25,2.673,4.6-2.116,9.4-1.477,18.859-.83,28.331.1,1.486.385,2.774,2.187,2.97,1.843.2,2.421-1.022,2.956-2.478,2.549-6.936,4.332-14.092,6.206-21.224s3.76-14.266,7.865-20.561a36.788,36.788,0,0,1,18.793-15.206c12-4.259,22.241-11.245,31.448-19.923,7.693-7.249,14.116-15.635,21.229-23.4,14.547-15.875,31.946-27.241,52.913-32.78,9.447-2.5,19.084-2.578,28.755-2.037a5.67,5.67,0,0,1,.841.185c-1.1,1.3-2.17,2.474-3.127,3.731a10.033,10.033,0,0,0-2.04,6.5,1.371,1.371,0,0,0,1.01,1.495,1.232,1.232,0,0,0,1.513-.718c2.979-5.688,8.1-9.882,11.015-16.159.591,4.8,1.134,9.136,1.653,13.479.1.84.133,1.678,1.122,2,1.043.343,1.652-.309,2.245-.988q3.806-4.361,7.605-8.729c.475-.547.89-1.24,1.721-.515a2.564,2.564,0,0,1,.812,2.833c-.1.349-.519.291-.867.189-1.365-.4-1.6.242-1.74,1.515-.467,4.373.115,8.688.431,13.023a15.027,15.027,0,0,1,0,2.81c-.191,1.63-.163,2.985,1.305,4.249,1.062.914.956,2.638,1.147,4.051a33.764,33.764,0,0,1,.238,10.248c-1.565-2.048-2.065-4.3-2.839-6.427-.325-.887-.695-1.49-1.764-1.148a.834.834,0,0,1-.492.023c-3.357-1.2-6.582-.108-9.864.466-2.731.475-4.074-.7-4.337-3.41-.222-2.278-.361-2.4-2.5-1.7-.782.257-1.126.137-1.53-.626a5.641,5.641,0,0,1-.394-4.466c.343-1.16.634-2.336.924-3.51a1.354,1.354,0,0,0-.546-1.6,1.654,1.654,0,0,0-1.731.019,6.023,6.023,0,0,0-2.811,7.5c1.909,4.9,4,9.689,8.264,13.107a1.821,1.821,0,0,1,.555,1.488,4.835,4.835,0,0,0,2.8,4.2c2.445,1.254,4.927,2.446,7.454,3.528a8.374,8.374,0,0,0,7.049-.066c1.421-.652,1.973-.361,2.315,1.228a28.078,28.078,0,0,0,3.308,8.412c3.532,5.965,6.3,12.342,10.153,18.144a22.8,22.8,0,0,1,3.52,16.438,2.876,2.876,0,0,1-.481,1.616,20.234,20.234,0,0,1-.664-4.795c-.188-1.642-.3-3.3-.564-4.927a13.7,13.7,0,0,0-1.611-4.669c-1.624,2.517-2.42,7.9-1.3,10.74a12.487,12.487,0,0,1-.488,10.237,3.538,3.538,0,0,0-.2.45c-.881,2.989-2.873,4.645-5.849,5.619-4.576,1.5-5.018,2.964-2.81,7.344.035.068-.04.191-.083.367a5.538,5.538,0,0,1-1.892-2.982c-.685-1.908-1.144-3.886-2.5-5.529-.739-.9,0-1.884.495-2.732a2.538,2.538,0,0,1,2.068-1.2c.57-.046.616.524.525.986-.164.841-.1,1.566.894,1.816a2.56,2.56,0,0,0,2.72-.757c.649-.756.106-1.441-.355-2.073-.736-1.012-1.173-1.74.774-1.553,1.234.12,2.006-.659,2.2-1.985a22.132,22.132,0,0,0-.122-2.852c1.162.116,1.508.814,1.68,1.75.084.465.157,1.1.695,1.229.591.141,1-.38,1.343-.789.841-.99,1.308-2.108.506-3.315-2.352-3.536-2.988-7.545-3.213-11.646a50.961,50.961,0,0,0-1.7-11.745c-.175-.594-.285-1.33-.975-1.344-.605-.011-.722.753-.9,1.238a7.465,7.465,0,0,0-.018,4.082c.189.97.4,1.937.6,2.9a1.234,1.234,0,0,1,.131,1.453c-.137.191-.46-.086-.548-.372a4.86,4.86,0,0,1-1.235-2.286c-.222-.561-.374-1.155-.645-1.689-.935-1.85-1.984-2.484-3.142-1.961-1.046.47-2.087,2.948-1.649,4.165a12.705,12.705,0,0,0,4.851,6.112c1.631,1.155,3.22,2.34,3.977,4.3a1,1,0,0,1,.052,1.026c-1.8-1.441-3.586-2.87-5.441-4.355a3.5,3.5,0,0,0,.133,3.136c.28.717.658,1.4.946,2.109.591,1.466.387,2.687-1.12,3.5a2.9,2.9,0,0,0-1.76,2.254c-2.89-3.047-5.858-5.814-8.375-9.009a1.559,1.559,0,0,1-.251-1.974c.492-.729,1.149-.406,1.787-.244,1.782.453,2.3,0,1.941-1.768a4.783,4.783,0,0,0-3.1-3.944c-3.332-1.222-5.163-3.855-6.119-7.115-2.589-8.817-5.111-17.655-7.655-26.485-.457-1.587-.9-3.178-1.347-4.766-.207-.729-.506-1.449-1.435-1.243s-.931.971-.8,1.725c1.62,9.175,3.558,18.253,7.665,26.723,1.419,2.923,1.557,6.172,1.9,9.34a3.363,3.363,0,0,1-1.605,2.931,39.634,39.634,0,0,0-5.332,5.172c-1.946,2.238-3.213,2.373-5.755.782a33.986,33.986,0,0,1-16.089-23.94c-2.124-12.385,1.112-23.25,10.067-32.244,1.2-1.2,1.626-2.486.731-4a1.857,1.857,0,0,1,.528-2.5c2.323-2.245,1.576-3.778.669-5.995a1.407,1.407,0,0,0-2.129-.834,4.977,4.977,0,0,0-3.317,4.328A21.505,21.505,0,0,1,443.5,81.276c-.236.291-.446.659-1.062.521.22-.594.316-1.21-.362-1.618-.793-.475-1.329.079-1.95.412-8.846,4.741-13.081,12.85-16.172,21.87-4.586,13.375-8.991,26.808-13.4,40.242-.394,1.2-.972,2.34-1.362,3.54-.344,1.058-1,2.351.652,2.892,1.631.536,1.977-.859,2.294-1.931A80.182,80.182,0,0,1,422.19,125.77a41.286,41.286,0,0,1,10.585-11.046c.305-.217.577-.811,1.094-.394.389.314.055.718,0,1.076a13.666,13.666,0,0,1-3.263,7.123c-6.634,7.39-10.426,16.235-13.46,25.513a168.858,168.858,0,0,0-7.1,32.9c-2.061,17.6-5.743,34.751-12.218,51.27a33.172,33.172,0,0,0-1.08,3.468c-.573,2.129-.184,3.286,1.265,3.974a3.3,3.3,0,0,0,4.328-1.283c.91-1.242,1.756-2.536,2.573-3.844,4.075-6.524,6.681-13.734,9.624-20.785,1.779-4.26,3.442-8.57,5.151-12.86.591-1.482,1.874-1.7,2.89-.465a2.5,2.5,0,0,1,.5.85c1.62,5.593,3.974,10.975,4.855,16.78.772,5.082.2,9.981-2.793,14.241-1.945,2.772-2.211,5.659-1.826,8.8a21.1,21.1,0,0,1-.472,8.368,10.845,10.845,0,0,1-2.736,4.836,9.366,9.366,0,0,0-2.645,5.388c-.12.785-.24,1.571-.4,2.63a5.2,5.2,0,0,1-.131-2.3c-.449-3.4-1.641-6.619-2.478-9.923a29.618,29.618,0,0,1-1.159-9.3c.047-.682.108-1.4-.779-1.559a1.431,1.431,0,0,0-1.736,1.166c-.892,3.3-1.734,6.619-1.4,10.086.847,8.72-.475,16.918-5.716,24.2-.544.756-1.18,1.6-.291,2.511.931.952,1.8.3,2.67-.207a25.393,25.393,0,0,0,9.889-11.256c.116-.3.231-.594.485-1.245a5.285,5.285,0,0,1-.17,2.915c.084,5.141-2.638,8.711-6.545,11.582a6.323,6.323,0,0,1-4.527,1.246,5.543,5.543,0,0,0-4.73,1.822c-3.036,2.908-3.293,2.821-4.44-1.1-.5-1.727-1.54-2.053-2.908-.859-.787.688-1.445,1.524-2.242,2.2a11.4,11.4,0,0,1-11.879,2.292c-4.951-1.793-9.237-4.5-11.451-9.57a15.7,15.7,0,0,1-.1-12.247c2.415-6.3,1.692-12.549.03-18.823a2.534,2.534,0,0,0-2.529-1.9,27.5,27.5,0,0,1,.428,4.217,12.441,12.441,0,0,1-3.1,7.324c-2.066,2.427-4.241,4.76-6.478,7.259a1.453,1.453,0,0,1,.152-1.865,6.343,6.343,0,0,0,.95-2.09c.191-.691.4-1.46-.359-1.948s-1.355-.039-1.913.457c-.866.769-1.7,1.573-2.6,2.3a54.262,54.262,0,0,1-13.27,7.637,12.871,12.871,0,0,0-6.042,4.911c-1.025,1.568-2.156,3.065-3.216,4.609a24.112,24.112,0,0,1-6.324,6.46l.689.315c7.017-1.312,13.547-3.709,19.019-8.491.443-.388.782-.949,1.437-1.061l1.028-1.735a14.372,14.372,0,0,1,4.119-4.875c2.185-1.866,3.952-1.874,6.263-.142a23.1,23.1,0,0,1,5.847,6.889c2.957,4.963,5.688,10.059,9.119,14.734,5.69,7.753,12.509,14.019,21.782,17.265,2.724.954,3.964,3,3.876,5.9-.108,3.47-.93,6.882-.931,10.364,0,.662.015,1.322,0,1.982a3.63,3.63,0,0,1-3.025,3.777c-1.826.445-3.185-.236-4.107-2.181a16.732,16.732,0,0,1-1.81-7.81c.1-2.839.081-5.641-2-7.951a2.565,2.565,0,0,1-.32-1.253c-.209-1.37-.948-1.724-2.153-.954-1.431.912-1.593,2.337-1.282,3.8.981,4.641,1.642,9.329,2.232,14.031.1.758.129,1.526.207,2.492-1.379-1.022-1.25-2.316-1.189-3.54a7.726,7.726,0,0,0-.134-2.782,1.922,1.922,0,0,0-2.314-1.379c-1.14.108-1.369.89-1.442,1.861a16.593,16.593,0,0,0,1.453,7.378,11.514,11.514,0,0,1,1.021,4.031,12.869,12.869,0,0,1-4.351-9.024,17.813,17.813,0,0,1,.155-4.455,6.181,6.181,0,0,0-1.292-5.112c-.42-.564-1.029-.986-1.261-1.689-.7.485-1.14-.182-1.608-.443-3.076-1.716-6.118-3.495-9.184-5.228a7.259,7.259,0,0,0-1.669-.687,1.422,1.422,0,0,0-1.617.55c-.367.54-.086,1.036.251,1.514.311.441.878.948.57,1.452-.329.539-1,.106-1.507.032-9.731-1.424-17.51-6.249-23.817-13.657-.329-.387-.546-1.316-1.272-.877a1.645,1.645,0,0,0-.617,1.92c.454,1.467.967,2.916,1.457,4.379a9.248,9.248,0,0,1-9.295-6.259c-.789-2.267-1.825-4.487-1.734-7.007a1.79,1.79,0,0,0-1.7-2.068c-1.26-.083-1.7.782-1.944,1.833-.184.805-.345,1.619-.6,2.4-.57,1.771-1.408,2.078-2.953,1.062-5.284-3.47-9.356-7.639-10.226-14.424-.762-5.941-2.394-11.756-3.155-17.726-.822-6.434-.137-12.755.917-19.08,1.014-6.089,2.209-12.162,1.811-18.391-.057-.877-.2-1.75-.3-2.626a1.645,1.645,0,0,0-1.171-1.624c-.971-.254-1.173.57-1.519,1.178-.128.225-.294.43-.537.779a9.433,9.433,0,0,1-.246-6.122,62.09,62.09,0,0,1,2.67-9.009,7.358,7.358,0,0,0,.423-1.423,2.068,2.068,0,0,0-1.019-2.542,2.3,2.3,0,0,0-2.981.616,11.215,11.215,0,0,0-2.292,4.888,141.782,141.782,0,0,0-3.326,23.868,64.415,64.415,0,0,1-4.83,21.492,37.288,37.288,0,0,0-2.815,16.465c.115,3.053-1.169,4.665-3.959,4.415-10.586-.952-21.337-1.178-31.545-4.408-24.112-7.63-38.765-24.035-43.94-48.795a53.785,53.785,0,0,1-.407-18.928c.1-.706.081-1.431.115-2.148.041-.9.135-1.805-1.055-2.1-1.251-.307-1.876.441-2.276,1.409a39.189,39.189,0,0,0-2.323,7.728c-2.035,10.823-.336,21.307,3.082,31.577,4.938,14.839,14.241,26.328,27.264,34.874a61.189,61.189,0,0,1,5.415,3.851,2.105,2.105,0,0,1-3.04-.149,19.284,19.284,0,0,0-6.925-4.379M265.072,356.5c.069.4.363.956-.1,1.217-.525.3-.9-.231-1.269-.535a5.07,5.07,0,0,1-1.564-2.477,43.992,43.992,0,0,0-10.621-17.823,24.6,24.6,0,0,1-6.453-13.505c-1.05-6.186-1.9-12.4-2.857-18.606a4.289,4.289,0,0,1,.106-1.959,2.142,2.142,0,0,1,3.252-1.34c2.415,1.537,4.924,2.891,7.423,4.281,2.883,1.6,4.185,4.336,4.5,7.489a52.894,52.894,0,0,0,7,22.148,13.362,13.362,0,0,1,1.638,7.324c.041,3.05-.754,6-1.08,9.012a17.16,17.16,0,0,0,.011,4.774m28.811,68.161c-.442-.617-1.026-1.3-.594-2.1s1.249-.445,1.948-.388c1.591.131,2.077-.329,1.776-1.877a27.288,27.288,0,0,0-4.507-10.541,1.851,1.851,0,0,0-2.267-.852c-3.116.967-4.071.423-4.8-2.652-.073-.307-.287-.648.01-.925s.611-.076.921.029c.732.246,1.54,1.05,2.2.047.691-1.05-.041-1.868-.738-2.612-2.591-2.771-4.424-5.879-4.54-9.809-.026-.89.059-2.04-1.3-2.1-1.4-.062-1.482,1.028-1.609,2.042-.039.3.094.664-.228.884l-19-20.762c1-.075,1.968.126,2.859-.688-4.812-3.1-7.629-8.549-13.145-10.984-3-1.326-5.351-3.533-5.766-7.115a5.055,5.055,0,0,1,.01-1.8c.541-2.083-.124-3.641-1.553-5.228a90.256,90.256,0,0,1-7.386-8.691,15.534,15.534,0,0,1-2.817-12.044,5.634,5.634,0,0,1,.985-2.428,3.066,3.066,0,0,1,3.346-1.224,2.492,2.492,0,0,1,1.978,2.529,30.286,30.286,0,0,0,1.264,8.125c1.62,4.525,4.181,8.6,6.063,13,.409.957,1.439,1.5,2.263,2.134a1.377,1.377,0,0,0,1.945-.091c.663-.628.262-1.191-.12-1.754-.641-.946-1.865-2.351-1-2.977.84-.609,1.96.954,2.734,1.823a11,11,0,0,1,2.366,5.036,20.475,20.475,0,0,0,6.255,10.852c8.652,7.934,17.083,16.131,26.524,23.162,2.384,1.775,4.891,3.386,7.326,5.093,3.948,2.767,6.709,6.342,7.532,11.207.808,4.766-2.223,7.583-6.82,6.355-.829-.221-1.879-.971-2.462-.213-.6.783.347,1.7.774,2.464,1.612,2.892,3.674,3.268,6.78,1.315,1.876-1.181,2.525-1.061,3.948.727a11.318,11.318,0,0,1,1.811,4.741c.348,1.5,1.069,2.047,2.593,1.569a2.6,2.6,0,0,1,3.4,1.551,31.251,31.251,0,0,1,1.305,3.025c.774,2.188-.2,3.9-1.743,5.3a10.326,10.326,0,0,1-8.708,2.651,13.9,13.9,0,0,1-9.807-5.8M318.05,443.2a21.258,21.258,0,0,1-8.331,1.768c-.66-.036-1.325-.044-1.982-.112-5.3-.547-8.208-3.821-8.2-9.165,0-1.443.619-2.144,2.087-2.122a36.784,36.784,0,0,0,6.274-.166,12.909,12.909,0,0,0,7.263-3.609c1.206-1.18,1.85-1.112,2.68.344a23.313,23.313,0,0,1,2.931,8.186,4.044,4.044,0,0,1-2.725,4.876m2.988-59.1a65.977,65.977,0,0,0-2.6,7.3c-.88,2.613-1.75,2.816-3.583.761-5.437-6.092-10.57-12.439-15.549-18.906a17.3,17.3,0,0,1-3.278-9.9,62.291,62.291,0,0,0-7.386-26.154,14.57,14.57,0,0,1-.116-13.672c2.366-4.969,4.754-9.919,5.886-15.366a34.549,34.549,0,0,0,.55-9.861c-.169-2.124.468-2.771,2.62-2.8,1.821-.023,3.643-.006,6.285-.006,8.545-.862,16.15,2.792,22.724,9.14a10.532,10.532,0,0,0,8.1,3.094A22.086,22.086,0,0,1,347,310.794c5.357,3.024,11.292,3.938,17.335,4.165,3.561.134,5.587,1.872,6.808,5.162,3.808,10.26,3.55,20.22-1.506,30.048-2.413,4.69-4.632,9.494-6.659,14.362a21.226,21.226,0,0,1-6.26,8.358,28.826,28.826,0,0,0-5.608,5.576,1.628,1.628,0,0,1-2.452.412,15.639,15.639,0,0,1-3.04-2.782c-2.41-2.431-5.471-3.221-8.734-3.315a4.954,4.954,0,0,0-4.285,2.109,4.97,4.97,0,0,1-3.1,1.989c-4.079.9-6.721,3.535-8.465,7.221m9.041,64.855a3.715,3.715,0,0,1-.338-1.66A6.059,6.059,0,0,1,331,443.682c1.845-2.833,1.778-3.587-.24-6.317a7.4,7.4,0,0,1-1.246-4.7c.04-1.495,1.336-2.084,2.6-1.261a4.782,4.782,0,0,1,1.522,1.485,18.706,18.706,0,0,0,4.788,5.187c.087.068.163.148.244.224,3.29,3.073,3.039,5.079-1.053,6.871a15.473,15.473,0,0,0-5.354,4.261c-1.271,1.434-1.453,1.347-2.181-.475M333,456.962a4.87,4.87,0,0,1,.641-2.695,14.975,14.975,0,0,1,7.588-6.576c2.167-.859,4.138-.18,5.619,1.946a22.462,22.462,0,0,1,3.812,10.76,2.735,2.735,0,0,1-2.311,3.305,29.644,29.644,0,0,1-10,.693c-2.873-.24-5.362-3.956-5.348-7.434" transform="translate(0.352 0.211)" fill="#2a99eb"/>
        <path id="Path_912" data-name="Path 912" d="M233.882,48.292a.7.7,0,0,0-.675.391c-.146.33.087.511.3.685,4.924,4.064,8.567,9.894,15.534,11.144.035-.546-.566-.684-.985-.778-3.257-.728-5.76-2.731-8.159-4.865-2.031-1.805-3.858-3.822-5.826-5.726a1.388,1.388,0,0,1,.8-.323,1.543,1.543,0,0,0,1.008-.392c-.41-.021-.72-.033-1.018-.055a9.811,9.811,0,0,0-.981-.082" transform="translate(88.907 18.415)" fill="#2a99eb"/>
        <path id="Path_913" data-name="Path 913" d="M205.183,75.581c.941,2.84,3.044,4.075,5.549,5.261-.008-.471-.57-.7-.97-.931a9.87,9.87,0,0,1-3.623-3.241c1,.311,1.794.653,2.644.851,3.775.88,7.463-.043,11.173-.5.419-.051.988-.207,1.03-.687,0-.017-.01-.025-.008-.04-5.252.678-10.515,2.427-15.8-.718" transform="translate(78.239 28.821)" fill="#2a99eb"/>
        <path id="Path_914" data-name="Path 914" d="M239.506,53.018A9.475,9.475,0,0,0,238,51.5c-.706-.594-1.4-.822-2.075.149a1.709,1.709,0,0,1-2.211.644c-2.718-1.381-5.612-.84-8.445-.9a8.309,8.309,0,0,0-3.654.7c4.09,1.756,8.872,1.518,12.117,5.388.239-.617-.235-1.007-.638-1.365a13.984,13.984,0,0,0-5.745-2.822c-1.4-.38-2.817-.664-4.177-1.181,3.467-.285,6.93-.855,10.313.49a2.144,2.144,0,0,0,2.209-.309c1.3-1.09,2.246-.46,3.072.587a27.989,27.989,0,0,0,3.441,3.8,14.362,14.362,0,0,0,10.121,3.357c.428-.008,1.04,0,1.126-.486,0-.029-.011-.043-.008-.069-6.39.416-10.131-1.37-13.937-6.473" transform="translate(84.504 19.444)" fill="#2a99eb"/>
        <path id="Path_915" data-name="Path 915" d="M203.805,77.425c-2.1-2.144-4.963-2.7-7.983-2.253-3.13.47-6.021,1.709-9.251,2.662,2.942,1.344,6.371.12,9.05,2.376l0-.018c.04-1.069-1.224-1.222-2.083-1.544-1.716-.642-3.593-.278-5.387-.844a63.5,63.5,0,0,1,6.568-1.944,10.152,10.152,0,0,1,9.861,2.8c3.391,3.207,7.593,3.782,12.045,3.138.432-.062,1.015-.123,1.163-.559-.525.044-.814.065-1.084.1-4.875.6-9.244-.178-12.9-3.909" transform="translate(71.142 28.61)" fill="#2a99eb"/>
        <path id="Path_916" data-name="Path 916" d="M286.867,5.173a10.829,10.829,0,0,0-8.1-4.59c-.318-.036-.714-.157-.909.159s.106.619.279.891a12.152,12.152,0,0,0,2,2.191,5.6,5.6,0,0,1,2.008,3.01c-1.028-.291-1.851-.587-2.7-.739a1.151,1.151,0,0,0-1.283.554c-.206.449.345.613.584.866a73.794,73.794,0,0,1,5.282,6.36c3.159,4.19,6.31,8.39,10.988,11.074l.106.046a.668.668,0,0,0,.021-.112,1.8,1.8,0,0,0-.768-.843,36.292,36.292,0,0,1-8.719-8.748,79.4,79.4,0,0,0-5.382-6.71A2.966,2.966,0,0,1,279.2,6.828c.635-.319,1.133.048,1.658.131.472.073,1.022.37,1.367-.152s.072-1.073-.236-1.543a23.721,23.721,0,0,0-2.228-2.439c-.37-.424-1.22-.8-.825-1.423.345-.548,1.116-.123,1.691,0a5.208,5.208,0,0,1,.932.341,12.305,12.305,0,0,1,5.5,4.346c3.37,4.865,8.512,6.6,13.973,7.7.5.1.837.03,1.008-.182-6.085-1.338-11.567-3.057-15.175-8.432" transform="translate(105.926 0.203)" fill="#2a99eb"/>
        <path id="Path_917" data-name="Path 917" d="M232.25,45.7c.757,1.862,3.4,1.729,4.028,3.819a.743.743,0,0,0,.1-.229,1.422,1.422,0,0,0-.593-1.3,10.34,10.34,0,0,0-1.356-.943c-.42-.28-1.021-.421-1.08-1.151a5.958,5.958,0,0,1,4.086.486,25.415,25.415,0,0,0,2.833,1.363A1.125,1.125,0,0,0,241.4,47.7c-3.038-.959-5.6-3.714-9.148-2.008" transform="translate(88.56 17.218)" fill="#2a99eb"/>
        <path id="Path_918" data-name="Path 918" d="M272.708,29.8a3.574,3.574,0,0,0-1.9-.464c-.334.039-.715.035-.877.356-.187.37.2.584.4.8a14.644,14.644,0,0,0,5.284,3.88,24.253,24.253,0,0,0,7.393,1.591c3.648.308,7.344.166,11.2,1.151-.663.215-1.065.39-1.485.475a53.821,53.821,0,0,0-8.559,2.435,12.138,12.138,0,0,1-5.846.729,18.193,18.193,0,0,1-9.2-4.174,49.945,49.945,0,0,1-10.3-11.574,29.018,29.018,0,0,0-11.553-10.365,4.817,4.817,0,0,0-3.691-.373c6.025,5.413,10.95,11.3,12.8,19.338.536-.432.169-1.093,0-1.63a30.919,30.919,0,0,0-7.565-13.042c-1.329-1.334-2.372-2.923-4.1-4.2a3.834,3.834,0,0,1,2.892.575c4.937,2.394,8.387,6.357,11.432,10.769,3.314,4.8,7.061,9.212,12.02,12.4,3.594,2.315,7.506,3.647,11.792,2.37,3.433-1.022,6.811-2.227,10.32-2.988a1.351,1.351,0,0,0,1.076-.832,3.214,3.214,0,0,0-2.053-.815,80.252,80.252,0,0,0-8.4-.691,23.813,23.813,0,0,1-8.224-1.689,11.922,11.922,0,0,1-4.9-3.821c1.124-.315,1.819.3,2.609.454.488.1,1.042.285,1.362-.227a.777.777,0,0,0,.07-.152,2.539,2.539,0,0,1-2.013-.3" transform="translate(92.878 5.363)" fill="#2a99eb"/>
        <path id="Path_919" data-name="Path 919" d="M282.6,26.5a17.206,17.206,0,0,1-16.808-4.346c-1.6-1.485-3.357-2.789-5.2-4.31a12.213,12.213,0,0,0,1.061,3.7c1.366,3.02,3.887,5,6.612,7.025.094-.424-.329-.707-.619-.99-.355-.348-.787-.606-1.162-.932-2.337-2.029-4.441-4.217-5.165-7.617,2.228,1.793,4.177,3.583,6.324,5.122,3.677,2.638,7.669,4.027,12.285,3.212a66.409,66.409,0,0,1,12.812-1.373,3.528,3.528,0,0,0,.463-.106,1.571,1.571,0,0,1-.577-.239,35.45,35.45,0,0,0-10.021.85" transform="translate(99.366 6.804)" fill="#2a99eb"/>
        <path id="Path_920" data-name="Path 920" d="M188.433,82.338c10.443,2.96,19.011,8.86,27.188,15.927.039-.651-.5-1.084-.963-1.466a110.287,110.287,0,0,0-9.117-6.879,58.673,58.673,0,0,0-15.273-7.452c-.338-.1-.876-.051-.914-.544-.033-.424.421-.608.72-.836a6.688,6.688,0,0,1,2.716-1.166c.793-.173,1.941-.195,2.1-1.048-2.431.855-5.166.787-6.455,3.464" transform="translate(71.852 30.077)" fill="#2a99eb"/>
        <path id="Path_921" data-name="Path 921" d="M267.756,47.816c-5.593-1.691-11.256-2.377-16.922-.551a10.657,10.657,0,0,1-10.113-1.811,6.271,6.271,0,0,0-1.414-.829c-.391-.148-.946-.272-1.25.1-.355.436-.081.935.174,1.373.329.559,1.03.9,1.077,1.819.015-.014.032-.018.047-.033.387-.417.077-.815-.126-1.2-.217-.413-.823-.859-.349-1.293.5-.46,1.006.111,1.461.38.285.169.529.4.812.572,2.9,1.769,5.942,2.54,9.324,1.49a24.05,24.05,0,0,1,8-1.162A38.715,38.715,0,0,1,268.7,48.534a6.572,6.572,0,0,0,4.23.1c.518-.18,1.206-.3,1.225-.939,0-.018-.011-.028-.011-.044-2.181,1.272-4.281.8-6.387.166" transform="translate(90.709 16.962)" fill="#2a99eb"/>
        <path id="Path_922" data-name="Path 922" d="M253.185,26.188a15.053,15.053,0,0,0-7.2-5.332,10.191,10.191,0,0,0-6.944.021c1.1,1.664,2.935,1.93,4.307,2.888.486.341,1.257.709,1.075,1.319-.169.568-1.017.452-1.59.5-.966.079-2.433-.269-2.626.776-.209,1.134,1.341,1.341,2.217,1.8,1.106.575,2.347.953,2.736,2.4-2.408.6-5.033-.372-7.289,1.3a6.342,6.342,0,0,0,.814.345,27.467,27.467,0,0,1,10.323,5.375,94.393,94.393,0,0,1,8.769,8.538c3.528,3.673,7.224,7.137,12,9.169,1.39.593,2.846,1.036,4.366,1.579-.04-.577-.659-.75-1.163-.9-6.8-2.008-11.78-6.6-16.353-11.686a68.194,68.194,0,0,0-7.672-7.28,29.61,29.61,0,0,0-10-5.264c1.742-.539,3.263-.18,4.725-.448.634-.116,1.5-.112,1.682-.827.221-.854-.486-1.4-1.153-1.833-.836-.539-1.782-.879-2.622-1.413-.264-.169-.637-.329-.5-.74.1-.3.435-.3.7-.341s.554-.021.826-.061c.8-.117,1.862-.021,2.072-.99.2-.924-.713-1.4-1.4-1.863-.274-.185-.579-.322-.859-.5-.753-.474-1.718-.646-2.426-1.616a10.074,10.074,0,0,1,6.179.336,14.863,14.863,0,0,1,6.424,4.792,23.158,23.158,0,0,0,4.261,4.6c.468.348,1.026.862,1.611.478-2.4-1.189-3.835-3.174-5.3-5.118" transform="translate(90.704 7.726)" fill="#2a99eb"/>
        <path id="Path_923" data-name="Path 923" d="M236.831,56.387c-3.757.914-7.512,2.17-11.443.809a4.974,4.974,0,0,0,.442,2.557c.356,1.481-.149,2.177-1.629,1.95a55.908,55.908,0,0,0-6.759-.421c-4.753-.148-9.513-.291-13.567-3.308-.449-.334-.6-.146-.837.286a4.187,4.187,0,0,0,1.877,6.15c1.228.6,2.578.938,3.865,1.41,1.489.547,3.013,1.05,3.986,2.6-2.242.582-4.405,1.146-6.571,1.7a8.529,8.529,0,0,1-4.253.066c-.526-.131-1.124-.344-1.535.178s.155.9.326,1.319c.586,1.445.409,1.772-1.182,1.735-1.912-.043-3.59.908-5.43,1.164a1.068,1.068,0,0,0-1.03.986c11.126,1.62,21.6,5.755,32.5,8.271.014-.575-.6-.682-1.026-.808-2.332-.678-4.712-1.178-7.05-1.839-7.329-2.069-14.6-4.362-22.108-5.743A2.622,2.622,0,0,1,194.041,75c2.007-.211,3.557-1.03,5.279-1.181,1.914-.169,2.065-.344,1.847-2.21-.069-.584-.066-1.093.673-.935,3.493.739,6.616-.881,9.893-1.506,1.351-.257,1.514-.885.577-1.913a6.722,6.722,0,0,0-2.833-1.648,37.757,37.757,0,0,1-4.047-1.459c-1.879-.931-2.665-2.216-2.462-3.9.191-1.572.6-1.793,2.01-1.048a21.33,21.33,0,0,0,9.531,2.408c2.916.087,5.842.18,8.751.423,2.782.232,3.373-.251,2.783-2.927-.247-1.12.146-1.25,1.087-1.051a12.422,12.422,0,0,0,5.254-.162c3.607-.779,7.159-1.9,10.926-1.655a1.3,1.3,0,0,0,1.167-.372,25.388,25.388,0,0,0-7.647.528" transform="translate(73.628 21.275)" fill="#2a99eb"/>
        <path id="Path_924" data-name="Path 924" d="M19.959,194.405c-.464.807-.307,1.307.816,1.26a4.922,4.922,0,0,0,3.669-2.267,64.668,64.668,0,0,0,6.48-9.36c3.478-6.314,11.643-10.162,17.965-8.553a21.075,21.075,0,0,0-7.217,5.5c-1.142,1.271-2.243,2.583-3.317,3.913-2.589,3.214-5.379,6.2-9.566,8.3a15.377,15.377,0,0,0,10.854-3.654c1.254-1.077,2.42-2.26,3.667-3.344,9.372-8.148,20.159-12.046,32.616-10.494,5.452.68,10.758.591,15.967-1.3a11.719,11.719,0,0,1,2.392-.619,6.678,6.678,0,0,1,2.325-.3h0c-.175-.474-.727-.431-1.166-.369a20.6,20.6,0,0,0-3.866.9,29.421,29.421,0,0,1-14.357,1.286,39.224,39.224,0,0,0-9.742-.268,42.212,42.212,0,0,0-25.85,12.161c-3.084,2.985-6.5,5.406-10.969,5.466a26.561,26.561,0,0,0,5.726-4.8c3.825-4.225,6.879-9.271,12.3-11.848a.833.833,0,0,0,.575-.742c-.036-.5-.5-.511-.87-.594a3.3,3.3,0,0,0-.825-.055c-7.542.258-13.763,2.775-17.461,9.9a43.946,43.946,0,0,1-7.01,9.6c-.605.651-1.58,1.426-2.285.769-.776-.722.356-1.4.816-1.982a6.043,6.043,0,0,0,1.432-2.572.9.9,0,0,0-.3-1.007,4.114,4.114,0,0,1-1.312,3.1,14.861,14.861,0,0,0-1.485,1.97" transform="translate(7.518 66.002)" fill="#2a99eb"/>
        <path id="Path_925" data-name="Path 925" d="M70.593,188.884c-3.788.235-7.605-.155-11.364.761a22.426,22.426,0,0,0-10.088,5.373c-.7.641-1.315,1.384-.724,2.278.609.923,1.269-.053,1.807-.29a38.8,38.8,0,0,1,19.2-3.122,36.706,36.706,0,0,0,18.552-3.047A43.768,43.768,0,0,0,103.333,178.8a11.893,11.893,0,0,1,5.33-3.7c5.5-1.937,11.1-3.56,16.678-5.263,6.752-2.061,11.205-6.318,13.158-13.135.213-.74.441-1.477.7-2.2,1.039-2.944,2.076-5.889,4.1-8.423.256.493.036.832-.057,1.193a55.165,55.165,0,0,0-1.781,13.234c-.076,10.443,2.694,20.243,6.814,29.72,4.875,11.214,11.009,21.792,16.491,32.7,3.194,6.351,7.315,11.763,13.523,15.421a7.891,7.891,0,0,1,2.582,2.532c4.318,6.633,9.512,12.56,14.763,18.447a18.618,18.618,0,0,1,4.679,9.332,14.386,14.386,0,0,0,4.256,8.223c4.466,4.239,6.369,9.487,6.839,15.473a24.19,24.19,0,0,0,10.441,18.677c2.377,1.689,4.94,3.118,7.315,4.808,8.078,5.748,15.047,12.75,22.013,19.738a45.16,45.16,0,0,1,10.687,15.961,13.064,13.064,0,0,0,6.158,7.017c.765.432,1.557.826,2.292,1.305,2.178,1.42,2.638,2.79,1.348,5.011a8,8,0,0,0-.738,6.368,139.815,139.815,0,0,0,4.756,14.744,11.7,11.7,0,0,0,9.034,7.448,31.165,31.165,0,0,0,13.124-.187,32.692,32.692,0,0,0,9.386-3.9,1.2,1.2,0,0,0-.783.011,5.336,5.336,0,0,0-1.059.467,30.531,30.531,0,0,1-18.207,3.539c-5.79-.57-9.7-3.337-11.567-8.858-1.325-3.92-2.678-7.832-3.859-11.8-.833-2.8-1.007-5.456.5-8.148,1.042-1.854.471-3.5-1.28-4.761a24.27,24.27,0,0,0-2.833-1.711,11.685,11.685,0,0,1-5.709-6.373c-3.086-8.155-8.658-14.555-14.856-20.445-2.115-2.008-4.329-3.935-6.427-5.959a96.305,96.305,0,0,0-17.33-13.483c-7.4-4.437-11.35-11.131-11.983-19.684a23.323,23.323,0,0,0-7.079-15.758,13.3,13.3,0,0,1-3.876-7.353,20.975,20.975,0,0,0-5.234-10.352,145.426,145.426,0,0,1-12.915-15.929,22.964,22.964,0,0,0-6.423-6.322,30.582,30.582,0,0,1-9.9-11.377c-.716-1.369-1.384-2.764-2.105-4.131-5.558-10.541-11.374-20.956-16.083-31.924a72.376,72.376,0,0,1-6.308-27.575,51.591,51.591,0,0,1,1.571-13.109,6.406,6.406,0,0,0,.251-1.3c.012-.384.04-.831-.4-.988-.361-.127-.6.213-.819.445a8.537,8.537,0,0,0-1.26,1.935c-1.892,3.467-2.714,7.346-4.228,10.957a15.828,15.828,0,0,1-6.52,7.7,31.29,31.29,0,0,1-7.168,2.967c-5.333,1.619-10.7,3.119-15.918,5.112a9.39,9.39,0,0,0-3.854,2.75,54.621,54.621,0,0,1-8.3,8.059,35.529,35.529,0,0,1-25.105,7.541A40.117,40.117,0,0,0,50.9,196.3a12.387,12.387,0,0,1-1.222.506c-.633.189-.834-.086-.658-.678a2.261,2.261,0,0,1,.767-1.061,22.591,22.591,0,0,1,5.353-3.568,26.229,26.229,0,0,1,11.638-2.039,36.652,36.652,0,0,0,11.292-1.369,25.452,25.452,0,0,0,7.056-3.207c.323-.213.681-.511.648-.9-.3.195-.483.32-.664.437a29.568,29.568,0,0,1-14.512,4.46" transform="translate(18.372 55.668)" fill="#2a99eb"/>
        <path id="Path_926" data-name="Path 926" d="M400.862,154.656c-1.083-4.723-2.109-9.456-2.833-14.252a322.245,322.245,0,0,1-2.788-34.268,20.714,20.714,0,0,1,1.566-9.7,6.047,6.047,0,0,0-.37-5.854c-.664-1.14-1.242-2.332-1.811-3.522-3.434-7.176-5.365-14.9-8.1-22.33a3.482,3.482,0,0,1,1.193-3.986,16.756,16.756,0,0,0,5.437-11.165c.4-4.862-.645-9.543-1.568-14.245-.192-.975-.372-2.055-1.609-2.238-1.3-.193-1.6.892-2.048,1.772a53.224,53.224,0,0,1-6.458,10.538c-.805.945-1.68,1.807-3.091,1.49-7.289-1.638-12.012-10.057-10.885-15.186.214-.974.532-2.138-.811-2.717-1.287-.554-2.112.213-2.847,1.069q-1.828,2.136-3.568,4.348a2.388,2.388,0,0,1-2.945.83c-6.275-2.332-11.335-5.723-13.417-12.734A18.389,18.389,0,0,0,330.891,9.549c-.419-.123-.919-.608-1.365-.135s-.04.916.162,1.359c.191.419.314.923-.054,1.239-.436.377-.808-.13-1.163-.322a22.034,22.034,0,0,0-3.8-1.582q-3.45-1.123-6.9-2.257c-.861-.283-1.763-1.4-2.428-1-1.064.64.417,1.612.229,2.507-.01.05-.062.09-.151.21A5.224,5.224,0,0,1,312.6,7.52c-.941-1.289-1.783-2.648-2.678-3.97a8.5,8.5,0,0,0-3.731-3.4c-.785-.323-1.076-.16-1.233.655a8.567,8.567,0,0,0,1.379,5.971A23.517,23.517,0,0,1,308.6,11.1c.489-.664-.061-1.34-.38-1.931-.732-1.359-1.495-2.7-2.193-4.082a5.948,5.948,0,0,1-.63-3.039c.069-1.412.379-1.6,1.58-.9A10.4,10.4,0,0,1,310.3,4.98a13.14,13.14,0,0,0,3.177,3.981c.568.406,1.194,1.008,1.937.62.791-.413.2-1.191.239-1.805.007-.115.059-.206.305-.372,3.8,2.115,8.292,2.642,12.266,4.6,1.406.693,1.876.438,1.88-1.04,0-1.065.436-1.08,1.209-.847a15.991,15.991,0,0,1,1.7.658c5.633,2.417,8.842,6.93,10.794,12.515a19.655,19.655,0,0,0,2.5,5.2c2.551,3.514,6.238,5.346,10.137,6.846,2.147.827,3.129.517,4.63-1.274,1.17-1.394,2.239-2.875,3.54-4.154a1.558,1.558,0,0,1,1.812-.454c.739.341.727,1.05.663,1.72a10.468,10.468,0,0,0-.2,2.793c.984,5.77,3.87,10.133,9.3,12.629,2.789,1.283,4.06.925,6.045-1.427,2.557-3.029,4.176-6.611,6.1-10.017.369-.656.6-1.572,1.593-1.4.912.159,1.06,1.037,1.242,1.785.247,1.018.4,2.058.631,3.08a41.1,41.1,0,0,1,.829,11.189,14.789,14.789,0,0,1-4.727,10.107,5.126,5.126,0,0,0-1.31,6.391c1.182,2.787,1.973,5.737,2.934,8.615A89.354,89.354,0,0,0,396.2,91.114a5.182,5.182,0,0,1,.388,4.64,26.869,26.869,0,0,0-1.722,12.131c.359,5.824.639,11.654,1.051,17.479a184.411,184.411,0,0,0,4.2,28.111c.579,2.531,2.521,4.209,3.587,6.416.034.069.195.047.308.015a10.872,10.872,0,0,0-2.586-4.083,2.354,2.354,0,0,1-.558-1.167" transform="translate(116.237 0.001)" fill="#2a99eb"/>
        <path id="Path_927" data-name="Path 927" d="M245.232,345.749c-3-1.076-4.289-3.576-5.448-6.284-1.977-4.619-4.279-9.128-3.7-14.4.072-.656.117-1.318.163-1.978a1.05,1.05,0,0,0-.218-.825,19.138,19.138,0,0,0-.453,6.038c.352,3.93,2.223,7.328,3.627,10.9,1.272,3.239,2.938,5.971,6.4,7.194a.523.523,0,0,0-.366-.649" transform="translate(89.8 122.884)" fill="#2a99eb"/>
        <path id="Path_928" data-name="Path 928" d="M277.553,96.282c-2.29.953-3.113,2.033-3.207,4.2,4.006-2.616,8.383-2.381,12.814-1.753,3.609.511,7.217.943,10.864.247.4-.077.989-.675,1.289-.01.217.485-.365.861-.677,1.2a24.005,24.005,0,0,1-8.984,6.024c-6.651,2.589-13.656,3.841-20.6,5.277a17.353,17.353,0,0,1-13.227-2.064,4.962,4.962,0,0,0-1.888-.544,126.6,126.6,0,0,0-37.233-.343c-9.118,1.343-17.679,4.079-25.1,9.8-3.823,2.95-6.227,2.946-10.166.131a22.341,22.341,0,0,0-11.081-4.358c-5.4-.494-10.365.954-15.176,3.178a46.217,46.217,0,0,1-13.584,3.9A34.586,34.586,0,0,0,121.305,131c-4.546,4.459-7.753,9.853-10.91,15.3-2.821,4.865-5.623,9.744-9.465,13.914-5.438,5.9-11.99,9.607-20.182,9.383-7.844-.214-15.657.432-23.491.4a23.465,23.465,0,0,0-9.778,2.126c-3.314,1.482-7.3,4.43-8.483,6.43,7.042-2.245,13.653-6.538,21.377-3.3-.3.414-.754.42-1.181.525-3.952.985-7.934,1.869-11.846,3-14.41,4.165-25.416,12.494-31.47,26.518-1.861,4.314-3.864,8.4-7.668,11.372,1.808,1.789,3.455-.4,5.2-.057a26.043,26.043,0,0,1-9.733,11.432c1.006.261,1.794.5,2.6.673,1.343.291,1.713,1.013,1.166,2.283a15.628,15.628,0,0,1-4.207,6.23c-1,.816-2.028,1.591-3.231,2.531,5.148.087,9.054-1.59,11.443-6.09.412-.778.844-1.546,1.261-2.322,1.409-2.611,2.517-5.4,4.463-7.7a11.306,11.306,0,0,1,6.844-4.01c-2.4,2.735-3.735,5.984-5.045,9.249a26.579,26.579,0,0,1-3.6,6.463c.137.348.5.291.757.416a7.356,7.356,0,0,0,4.713-2.794,17.132,17.132,0,0,0,2.292-4.183,21.344,21.344,0,0,1,7.049-8.973c-.305-.131-.591.054-.859.193a7.2,7.2,0,0,0-1.55,1.232,27,27,0,0,0-5.876,9.119,8.2,8.2,0,0,1-5.6,5c-.145.057-.291.173-.427.167-.529-.026.109-.137-.018-.2a20.751,20.751,0,0,0,3.018-5.1,45.5,45.5,0,0,1,3.778-7.9,18.1,18.1,0,0,0,1.329-1.894c.378-.756.094-1.167-.75-1.158a3.317,3.317,0,0,0-1.108.318,13.906,13.906,0,0,0-7.5,7.122c-1.338,2.6-2.688,5.2-4.192,7.7-2,3.34-5.177,4.556-9.148,4.924a17.927,17.927,0,0,0,6.04-6.991c1.269-2.89.974-3.626-2.126-4.393-.127-.03-.2-.1-.213-.3a33.831,33.831,0,0,0,4.574-4.2,23.653,23.653,0,0,0,3.565-5.162c.32-.544.807-1.193.232-1.812-.481-.521-1.13-.254-1.713-.069A3.76,3.76,0,0,1,9,216.608c4.2-3.427,5.971-8.089,8-12.622a41.126,41.126,0,0,1,9.582-13.378A49.371,49.371,0,0,1,44.934,180c4.567-1.521,9.274-2.489,13.919-3.7.623-.163,1.536-.167,1.546-.964s-.923-.832-1.518-1.028a16.105,16.105,0,0,0-9.14-.026c-3.278.825-6.324,2.283-9.8,3.518,4.6-4.173,9.526-7.041,15.547-7.168,4.632-.1,9.251-.6,13.889-.4a7.342,7.342,0,0,0,1.485-.108,30.629,30.629,0,0,1,7.6-.137,25.608,25.608,0,0,0,16.518-4.123c5.115-3.25,8.742-7.878,11.946-12.888,3.241-5.067,5.977-10.44,9.419-15.388,6.173-8.879,14.389-14.518,25.234-15.953a51.262,51.262,0,0,0,14.547-4.29c6.728-3.057,13.614-4.06,20.681-1.1a26.3,26.3,0,0,1,5.227,3.167,7.042,7.042,0,0,0,8.228.34,20.869,20.869,0,0,0,1.91-1.311,47.889,47.889,0,0,1,16.179-7.755,85.37,85.37,0,0,1,13.524-2.348,99.583,99.583,0,0,1,12.707-.611,109.966,109.966,0,0,1,14.341.953c2.431.392,5.013.142,7.251,1.437a17.757,17.757,0,0,0,12.185,1.924,156.5,156.5,0,0,0,17.411-4.035c4.942-1.428,9.526-3.533,13.024-7.489.417-.472,1.138-.923.739-1.67-.352-.66-1.083-.4-1.663-.312a30.287,30.287,0,0,1-8.408.018c-1.915-.242-3.826-.53-5.748-.7a17.392,17.392,0,0,0-8.742,1.659,4.049,4.049,0,0,1,2.753-2.817,85.016,85.016,0,0,1,8.177-2.677c.6-.188,1.37-.238,1.557-.964-.716.232-1.238.4-1.754.564-2.732.836-5.5,1.562-8.15,2.663" transform="translate(0 35.484)" fill="#2a99eb"/>
        <path id="Path_929" data-name="Path 929" d="M289.959,21.052c-5.518-1.358-9.567-4.332-11.091-10.093A3.9,3.9,0,0,0,277.4,8.818c-.443-.33-.99-.692-1.517-.481-.678.274-.3.972-.269,1.456q.823,13.008,12.328,19.174c.044.015.091.028.137.041,0-.01.008-.012.011-.022-.5-1.111-1.665-1.394-2.549-2-6.347-4.354-9.282-10.443-9.452-18.139,1.691.506,2.212,1.789,2.652,3.1a12.666,12.666,0,0,0,4.962,6.832c3.533,2.34,7.55,3.26,11.676,3.814a1.871,1.871,0,0,0,.265-.093,2.716,2.716,0,0,1-.384-.206c-1.767-.414-3.536-.811-5.3-1.245" transform="translate(105.043 3.157)" fill="#2a99eb"/>
        <path id="Path_930" data-name="Path 930" d="M308.415,9.187a1,1,0,0,0,.242,1.207c.388.472,1.177.84.6,1.642a1.654,1.654,0,0,1-1.949.521c-4.176-1.271-8.154-2.832-10.2-7.163A3.334,3.334,0,0,0,294.163,3.3c-1.565-.091-1.829.235-1.434,1.781a13.229,13.229,0,0,0,1.533,3.459c.709,1.195,1.4,2.408,2.21,3.8a1.3,1.3,0,0,0-.044-.843,8.894,8.894,0,0,0-.845-1.609,19.307,19.307,0,0,1-2.026-3.785c-.215-.692-.876-1.591-.084-2.12.9-.605,1.775.062,2.495.717a2.876,2.876,0,0,1,.628.764c2.051,3.877,5.453,5.947,9.513,7.159,1.079.323,2.162.685,3.14-.137,1.058-.888.057-1.786-.235-2.783a6.461,6.461,0,0,1,2.368.271c.605.115,1.31.479,1.8-.023-1.348-.311-2.535-.582-3.71-.856-.367-.086-.8-.327-1.057.084" transform="translate(111.559 1.256)" fill="#2a99eb"/>
        <path id="Path_931" data-name="Path 931" d="M247.573,339.618c-1.427.1-2.868-.2-4.283.171H247.6a.79.79,0,0,1,.015-.171Z" transform="translate(92.769 129.494)" fill="#2a99eb"/>
        <path id="Path_932" data-name="Path 932" d="M247.573,339.669h.039a.965.965,0,0,1,.011-.127c-1.442.123-2.931-.416-4.333.3,1.416-.367,2.857-.076,4.283-.171" transform="translate(92.769 129.442)" fill="#2a99eb"/>
        <path id="Path_933" data-name="Path 933" d="M248.657,339.612h-2.138a.108.108,0,0,1-.006.08c-.036.061-.072.091-.1.091h2.319a.887.887,0,0,1,.012-.171Z" transform="translate(93.958 129.5)" fill="#2a99eb"/>
        <path id="Path_934" data-name="Path 934" d="M246.427,339.52h0a.223.223,0,0,1,.086.127c.711,0,1.423,0,2.136,0h.083a.822.822,0,0,1,.008-.116l-2.312-.011" transform="translate(93.966 129.464)" fill="#2a99eb"/>
        <path id="Path_935" data-name="Path 935" d="M246.52,339.612h-.1a.791.791,0,0,0-.015.171c.035,0,.069-.03.1-.091a.108.108,0,0,0,.007-.08" transform="translate(93.958 129.5)" fill="#2a99eb"/>
        <path id="Path_936" data-name="Path 936" d="M246.419,339.647h.1a.223.223,0,0,0-.086-.127.968.968,0,0,0-.011.127" transform="translate(93.963 129.464)" fill="#2a99eb"/>
        <path id="Path_937" data-name="Path 937" d="M284.772,23.255c-.249.356-.681.156-.992.326.942.167.942.167.992-.326" transform="translate(108.209 8.869)" fill="#2a99eb"/>
        <path id="Path_938" data-name="Path 938" d="M284.2,23.81a3.2,3.2,0,0,0,1.229-.029.929.929,0,0,0-.678-.5.754.754,0,0,1-.551.525" transform="translate(108.368 8.88)" fill="#2a99eb"/>
        <path id="Path_939" data-name="Path 939" d="M283.78,23.581a1.565,1.565,0,0,0,.576.239.754.754,0,0,0,.553-.524l-.137-.041c-.05.493-.05.493-.992.326" transform="translate(108.209 8.869)" fill="#2a99eb"/>
        <path id="Path_940" data-name="Path 940" d="M290.313,18.43a.623.623,0,0,1-.18.153c.09.011.153-.03.18-.153" transform="translate(110.631 7.029)" fill="#2a99eb"/>
        <path id="Path_941" data-name="Path 941" d="M290.441,18.515a.894.894,0,0,0,0-.309l-.646.3c.141.023.327.141.466.159a.624.624,0,0,0,.18-.153" transform="translate(110.503 6.944)" fill="#2a99eb"/>
        <path id="Path_942" data-name="Path 942" d="M290.157,18.656c-.029.015-.052.035-.083.047a1.176,1.176,0,0,0,1.173-.113l-.8-.349a.545.545,0,0,1-.108.262c-.025.124-.09.164-.178.153" transform="translate(110.609 6.957)" fill="#2a99eb"/>
        <path id="Path_943" data-name="Path 943" d="M290.263,18.515a.545.545,0,0,0,.108-.262l-.106-.047a.893.893,0,0,1,0,.309" transform="translate(110.681 6.944)" fill="#2a99eb"/>
        <path id="Path_944" data-name="Path 944" d="M289.8,18.426a2.724,2.724,0,0,0,.384.206.782.782,0,0,0,.082-.047c-.138-.018-.323-.135-.466-.159" transform="translate(110.503 7.027)" fill="#2a99eb"/>
        <path id="Path_945" data-name="Path 945" d="M11.261,196.069c-.256.1-.586.387-.456.518.376.38.826.192,1.213-.1-.394.12-.789.239-.757-.416" transform="translate(4.109 74.765)" fill="#2a99eb"/>
        <path id="Path_946" data-name="Path 946" d="M11.127,196.069c-.032.655.363.536.757.416-.26-.124-.619-.068-.757-.416" transform="translate(4.242 74.765)" fill="#2a99eb"/>
        <path id="Path_947" data-name="Path 947" d="M252.872,199.125c-.269.666-.537,1.33-.745,2.017-.742,2.463-.084,4.19,2.151,5.449a40.307,40.307,0,0,0,5.416,2.471,40.166,40.166,0,0,1,8.943,4.625,8.215,8.215,0,0,1,1.055.8c.315.312.727.68.546,1.122-.231.562-.827.464-1.309.352a16.129,16.129,0,0,0-4.368-.923,13.552,13.552,0,0,0,4.27,2.7c2.159.972,4.415,1.753,6.261,3.319,1.242,1.053,1.293,1.537.177,2.682a4.815,4.815,0,0,1-4.964,1.526c-7.836-2.2-15.49-4.84-22.094-9.817a16.243,16.243,0,0,0-3.716-2.14,6.5,6.5,0,0,0-4.2-.193,50.845,50.845,0,0,0,3.942,3.771c6.18,5,13.453,7.7,20.932,9.958,5.332,1.611,10.716,3.054,15.968,4.924a5.713,5.713,0,0,1,1.67.7c.4.308.649.783.083,1.053-1.739.829-1.571,1.854-.454,3.069a.6.6,0,0,1,.072.627c.232.7.841,1.126,1.261,1.689.141-.869.906-.657,1.437-.789a1.933,1.933,0,0,0,1.536-1.892,7.527,7.527,0,0,0-2.014-6.237,15.585,15.585,0,0,0-1.148-1.191,1.879,1.879,0,0,1-.361-2.884,2.111,2.111,0,0,0-.145-2.868,61.342,61.342,0,0,0-17.851-15.779c-1.54-.865-3.068-1.736-4.538-2.717a9.413,9.413,0,0,1-4.376-6.534c-.2-1.318-.651-2.119-1.921-2.156a2.94,2.94,0,0,0-.35,0l-1.028,1.735c.461.553.061,1.044-.135,1.53" transform="translate(91.626 74.683)" fill="#2a99eb"/>
        <path id="Path_948" data-name="Path 948" d="M255.454,207.085c2.426,1.166,4.967,2.09,7.423,3.2a26.277,26.277,0,0,1,7.568,4.854c-2.225-.03-4.232-1.434-6.683-.906a15.6,15.6,0,0,0,5.7,3.676,27.286,27.286,0,0,1,5.683,2.985c1.025.783.95,1.33.091,2.181-1.848,1.827-3.917,1.655-6.141.953-7.749-2.442-15.286-5.284-21.814-10.342a7.573,7.573,0,0,0-7.563-1.279,40.286,40.286,0,0,0,13.308,9.8c6.891,3.29,14.286,5.111,21.55,7.309a75.718,75.718,0,0,1,8.813,3.04c-2.975,1.3-3.054,1.731-.887,3.938.077.079.145.166.217.249a.6.6,0,0,0-.072-.627c-1.116-1.216-1.285-2.239.454-3.068.566-.269.314-.745-.084-1.053a5.692,5.692,0,0,0-1.669-.7c-5.252-1.87-10.636-3.314-15.968-4.924-7.48-2.258-14.752-4.955-20.932-9.958a50.579,50.579,0,0,1-3.942-3.771,6.5,6.5,0,0,1,4.2.195,16.243,16.243,0,0,1,3.716,2.14c6.6,4.975,14.258,7.615,22.094,9.816a4.815,4.815,0,0,0,4.964-1.525c1.116-1.145,1.065-1.63-.177-2.683-1.847-1.566-4.1-2.348-6.262-3.321a13.547,13.547,0,0,1-4.27-2.7,16.069,16.069,0,0,1,4.366.923c.483.112,1.08.21,1.311-.354.181-.442-.231-.809-.547-1.12a8.248,8.248,0,0,0-1.054-.8,40.226,40.226,0,0,0-8.943-4.625,40.4,40.4,0,0,1-5.416-2.47c-2.235-1.26-2.894-2.988-2.151-5.449.207-.687.475-1.352.745-2.017.2-.486.6-.978.135-1.532-.256.666-.5,1.336-.768,2-1.7,4.173-1.057,6.028,3,7.976" transform="translate(91.409 75.163)" fill="#2a99eb"/>
        <path id="Path_949" data-name="Path 949" d="M280.472,238.656c2.265-.08,2.684-.594,2.877-2.841.268-3.084-1.354-5.232-3.368-7.192-.805-.785-1.34-1.345-.26-2.374.992-.945.774-2.062-.052-3.109a60.883,60.883,0,0,0-16.736-15.251c-2.035-1.2-4.087-2.369-6.06-3.663a9.194,9.194,0,0,1-4.31-7.248c-.108-1.4-.49-1.854-1.783-1.05a.556.556,0,0,1-.286.058c1.269.037,1.717.838,1.921,2.156a9.414,9.414,0,0,0,4.375,6.534c1.471.981,3,1.852,4.538,2.716a61.346,61.346,0,0,1,17.851,15.78,2.111,2.111,0,0,1,.146,2.868,1.877,1.877,0,0,0,.36,2.884,15.566,15.566,0,0,1,1.147,1.191,7.522,7.522,0,0,1,2.014,6.237,1.932,1.932,0,0,1-1.535,1.892c-.53.131-1.3-.08-1.437.789.052-.36.3-.363.6-.374" transform="translate(95.517 74.559)" fill="#2a99eb"/>
        <path id="Path_950" data-name="Path 950" d="M302.105,188.476a5.205,5.205,0,0,0,.131,2.3c.163-1.058.283-1.844.4-2.63-.1.24-.148.558-.535.333" transform="translate(115.169 71.743)" fill="#2a99eb"/>
        <path id="Path_951" data-name="Path 951" d="M302.62,188.143l-.535.333c.387.225.438-.091.535-.333" transform="translate(115.189 71.743)" fill="#2a99eb"/>
        <path id="Path_952" data-name="Path 952" d="M234.882,204.116l-.689-.315c-.032.523-.032.523.689.315" transform="translate(89.297 77.713)" fill="#2a99eb"/>
        <path id="Path_953" data-name="Path 953" d="M235.184,204.116c-.721.209-.721.209-.689-.315l-1.105.456a1.728,1.728,0,0,0,1.794-.141" transform="translate(88.994 77.713)" fill="#2a99eb"/>
        <path id="Path_954" data-name="Path 954" d="M314.927,80.4a1.126,1.126,0,0,0-.011-1.2c-.2.51-.24.852.011,1.2" transform="translate(120.019 30.204)" fill="#2a99eb"/>
        <path id="Path_955" data-name="Path 955" d="M275.061,168.64c2.426,6.887,6.527,13.113,8.129,20.344a1.761,1.761,0,0,0,2.138,1.394,2.216,2.216,0,0,0,2.042-1.868,9.669,9.669,0,0,0,.1-2.145,88.01,88.01,0,0,1,2.151-21.5,131.036,131.036,0,0,0,3.17-22.408c-.079-1.264-.1-2.535-.254-3.789a1.519,1.519,0,0,0-1.548-1.441,1.421,1.421,0,0,0-1.547,1.4c-.825,5.865-4.7,8.669-10.006,10.074-1.594.423-3.2.815-4.756,1.369a3.92,3.92,0,0,0-2.887,4.29,54.7,54.7,0,0,0,3.272,14.274" transform="translate(103.631 52.329)" fill="#2a99eb"/>
        <path id="Path_956" data-name="Path 956" d="M251.315,154.68c3.12,3.23,6.788,5.8,10.227,8.643a30.277,30.277,0,0,1,7.5,8.506c.4.721.869,1.517,1.923,1.1,1.022-.4.858-1.278.738-2.111a3.241,3.241,0,0,0-.043-.329,22.686,22.686,0,0,0-3.792-8.357c-2.223-2.948-4.449-5.9-6.561-8.922-6.666-9.556-12.033-19.739-14.328-31.283a16.719,16.719,0,0,0-6.815-10.559,93.42,93.42,0,0,1-.675,16.58,17.7,17.7,0,0,0,.615,8.789,51.628,51.628,0,0,0,11.216,17.938" transform="translate(91.216 42.469)" fill="#2a99eb"/>
        <path id="Path_957" data-name="Path 957" d="M147.554,165.906c-1.105-9.508-.517-18.805,3.543-27.658.96-2.1,1.944-4.19,2.732-6.353a3,3,0,0,0-2.152-3.993c-1.62-.446-2.553.656-3.533,1.631-4.01,4-7.105,8.7-10.259,13.349a9.843,9.843,0,0,0-1.811,7.53,42.943,42.943,0,0,0,1.079,8.151,63.158,63.158,0,0,0,9.342,22.743,2.053,2.053,0,0,0,2.829.9c1.124-.533,1.1-1.449.822-2.528a103.418,103.418,0,0,1-2.591-13.777" transform="translate(51.826 48.733)" fill="#2a99eb"/>
        <path id="Path_958" data-name="Path 958" d="M246.825,108.811a30.648,30.648,0,0,0,1.848,10.512,40.534,40.534,0,0,1,2.449,12.756,7.077,7.077,0,0,0,3.067,5.734c4.694,3.549,9.713,6.71,13.506,11.339a1.268,1.268,0,0,0,1.743.442c.66-.42.464-1.064.286-1.637-.961-3.1-1.886-6.2-2.939-9.269a19.366,19.366,0,0,0-4.136-7.07,28.569,28.569,0,0,1-7.745-17.637c-.577-6.652-2.891-12.513-8.321-17.358.338,4.307.231,8.246.242,12.186" transform="translate(94.025 36.846)" fill="#2a99eb"/>
        <path id="Path_959" data-name="Path 959" d="M301.535,58.026a4.913,4.913,0,0,0,1.492-.677,66.854,66.854,0,0,1,9.531-4.855A25.569,25.569,0,0,1,327.2,50.443c5.52.876,8.343-.819,10.592-5.68.573-1.24.231-1.909-1.022-2.142a40.54,40.54,0,0,0-7.126-.651c-1.412.1-2.4.135-3.387.253-1.037.123-2.073.28-3.094.5-9.05,1.939-16.2,7.129-22.767,13.323-.466.438-.834.924-.474,1.59.378.7,1.055.524,1.615.392" transform="translate(114.308 16.005)" fill="#2a99eb"/>
        <path id="Path_960" data-name="Path 960" d="M227.456,164.762c-.211,2.868-1.088,5.614-1.323,8.467a5.553,5.553,0,0,0,0,.662c.1.856-.011,1.854,1.112,2.159,1.057.287,1.452-.572,1.916-1.229q2.617-3.713,5.2-7.451a8.362,8.362,0,0,0,.859-8.911,84.857,84.857,0,0,1-6.322-18.87,5.357,5.357,0,0,0-1.249-2.474c-.732-.8-1.047-.641-1.356.344a20.76,20.76,0,0,0-.477,10.923,56.291,56.291,0,0,1,1.637,16.38" transform="translate(85.912 52.09)" fill="#2a99eb"/>
        <path id="Path_961" data-name="Path 961" d="M253.717,133.008c-.87.582-.615,1.322-.25,2.042,1.792,3.527,3.4,7.15,5.422,10.557a29.325,29.325,0,0,0,8.1,9.262A5.017,5.017,0,0,0,269.87,156a2.342,2.342,0,0,0,1.7-.5,15.084,15.084,0,0,0,3.931-4.835,2.2,2.2,0,0,0-.609-2.843,21.7,21.7,0,0,0-1.985-1.467c-6.024-3.963-12.287-7.6-17.305-12.914-.518-.548-1.105-.948-1.881-.43" transform="translate(96.521 50.627)" fill="#2a99eb"/>
        <path id="Path_962" data-name="Path 962" d="M270.049,160.644c-.048.294-.109.543-.13.794-.326,4.091-2.5,6.6-6.387,7.9a39.446,39.446,0,0,0-6.328,2.814c-4.55,2.471-5.926,6.831-3.746,11.386.859,1.8,2.123,2.153,3.507.729a94.778,94.778,0,0,1,13.606-11.019c4.239-3,3.923-9.647-.522-12.6" transform="translate(96.26 61.257)" fill="#2a99eb"/>
        <path id="Path_963" data-name="Path 963" d="M277.193,137.823a28.422,28.422,0,0,0,5.924-6.412c3.993-5.958,5.92-12.871,8.933-19.282a.924.924,0,0,0-.133-1.211,1.312,1.312,0,0,0-1.553-.093A6.675,6.675,0,0,0,288.134,113c-.785,1.2-1.53,2.42-2.312,3.62a33.841,33.841,0,0,1-10.491,10.61c-1.67,1.036-3.166,2.279-3.068,4.422-.018,2.166,1.108,3.786,1.971,5.491.937,1.851,1.384,1.939,2.96.682" transform="translate(103.815 42.18)" fill="#2a99eb"/>
        <path id="Path_964" data-name="Path 964" d="M343.742,83.827c2.805,3.753,6.612,6.378,10.247,9.4a4.4,4.4,0,0,0-.59-4.493q-4.451-6.742-8.937-13.458a6.1,6.1,0,0,0-.965-1.116,1.843,1.843,0,0,0-2.419-.188A1.618,1.618,0,0,0,340.421,76c.805,2.736,1.566,5.485,3.321,7.831" transform="translate(129.765 28.07)" fill="#2a99eb"/>
        <path id="Path_965" data-name="Path 965" d="M273.517,199.923c1.9.1,2.439-.543,1.84-2.368a11.208,11.208,0,0,1,.745-8.773c.606-1.227,1.332-2.4,2-3.593a4.62,4.62,0,0,0,.825-2.79,1.475,1.475,0,0,0-1.21-1.383c-.785-.177-1.044.378-1.256.99a4.159,4.159,0,0,1-1.106,1.79c-1.334,1.228-2.6,2.526-3.872,3.823a8.788,8.788,0,0,0-2.569,6.4c.026,3.647,1.658,5.739,4.6,5.9" transform="translate(102.54 69.013)" fill="#2a99eb"/>
        <path id="Path_966" data-name="Path 966" d="M287.031,185.159a95.039,95.039,0,0,1-1.385,13.107c-.379,2.105-.888,4.185-1.3,6.285-.137.7-.238,1.439.524,1.921a1.387,1.387,0,0,0,1.7-.019c1.4-1.134,2.8-2.193,3.165-4.219a28.2,28.2,0,0,0,.134-9.838,26.971,26.971,0,0,0-2.478-7.847c-.428.159-.351.419-.358.609" transform="translate(108.388 70.373)" fill="#2a99eb"/>
        <path id="Path_967" data-name="Path 967" d="M312.333,223.3a6.4,6.4,0,0,0,.822,3.314c2.627,5.585,6.843,10.012,10.647,14.826a1.525,1.525,0,0,0,.054-1.351,66.1,66.1,0,0,0-8.231-17.681c-.464-.675-.989-1.188-1.908-.927a1.844,1.844,0,0,0-1.384,1.819" transform="translate(119.09 84.429)" fill="#2a99eb"/>
      </g>
    </g>
    <g id="Group_307" data-name="Group 307" transform="translate(213.385 2002.782)">
      <path id="Path_215" data-name="Path 215" d="M95.637,62.54l2.7,9.724h.035L101.1,62.54h2.2l2.716,9.707h.035L108.7,62.54h1.986l-3.53,12.421h-2.218l-2.717-9.723h-.035l-2.732,9.723H97.233L93.667,62.54Z" transform="translate(-24.434 0.364)" fill="#fff"/>
      <path id="Path_216" data-name="Path 216" d="M124.845,73.257v1.7h-7.914V62.54h7.7v1.7h-5.785V67.65h5.358v1.7h-5.358v3.9Z" transform="translate(-24.298 0.364)" fill="#fff"/>
      <path id="Path_217" data-name="Path 217" d="M132.528,74.961h-2l5.2-12.421h2.023l5.164,12.421h-2.024l-1.207-2.892h-5.926Zm4.187-10.309-2.271,5.731h4.542l-2.236-5.731Z" transform="translate(-24.219 0.364)" fill="#fff"/>
      <path id="Path_218" data-name="Path 218" d="M148.987,74.961V62.54H150.9V73.257h5.147v1.7Z" transform="translate(-24.112 0.364)" fill="#fff"/>
      <path id="Path_219" data-name="Path 219" d="M159.929,62.54h9.581v1.7h-3.833V74.961h-1.916V64.244h-3.832Z" transform="translate(-24.048 0.364)" fill="#fff"/>
      <path id="Path_220" data-name="Path 220" d="M175.8,74.961V62.54h1.916v5.128h5.59V62.54h1.916V74.961h-1.916V69.37h-5.59v5.59Z" transform="translate(-23.956 0.364)" fill="#fff"/>
      <path id="Path_221" data-name="Path 221" d="M201.649,62.54h2.218l3.976,9.263h.035l3.956-9.263h2.219V74.961h-1.916V65.929H212.1l-3.372,8.286h-1.74l-3.39-8.286h-.035v9.031h-1.916Z" transform="translate(-23.806 0.364)" fill="#fff"/>
      <path id="Path_222" data-name="Path 222" d="M222.146,74.961h-2l5.2-12.421h2.023l5.164,12.421H230.5L229.3,72.069H223.37Zm4.187-10.309-2.271,5.731H228.6l-2.236-5.731Z" transform="translate(-23.698 0.364)" fill="#fff"/>
      <path id="Path_223" data-name="Path 223" d="M238.605,74.961V62.54h2.289l6.566,9.9h.035v-9.9h1.917V74.961h-2.289l-6.567-9.883h-.035v9.883Z" transform="translate(-23.591 0.364)" fill="#fff"/>
      <path id="Path_224" data-name="Path 224" d="M257.5,74.961h-2l5.2-12.421h2.023l5.164,12.421h-2.024l-1.207-2.892h-5.926Zm4.187-10.309-2.271,5.731h4.542l-2.236-5.731Z" transform="translate(-23.493 0.364)" fill="#fff"/>
      <g id="Group_230" data-name="Group 230" transform="translate(61 0.001)">
        <g id="Group_229" data-name="Group 229" clip-path="url(#clip-path-2)">
          <path id="Path_225" data-name="Path 225" d="M282.437,65.221a4.592,4.592,0,0,0-3.283-1.155,4.688,4.688,0,0,0,0,9.37,10.637,10.637,0,0,0,2.715-.32V68.769h1.916v5.643a14,14,0,0,1-4.631.762,6.426,6.426,0,1,1,4.489-11.214Z" transform="translate(-84.393 0.362)" fill="#fff"/>
          <path id="Path_226" data-name="Path 226" d="M298.906,73.257v1.7h-7.914V62.54h7.7v1.7h-5.785V67.65h5.358v1.7h-5.358v3.9Z" transform="translate(-84.286 0.363)" fill="#fff"/>
          <path id="Path_227" data-name="Path 227" d="M305.709,62.54h2.218L311.9,71.8h.035l3.956-9.263h2.219V74.961H316.2V65.929h-.035l-3.371,8.286h-1.74l-3.39-8.286h-.035v9.031h-1.916Z" transform="translate(-84.201 0.363)" fill="#fff"/>
          <path id="Path_228" data-name="Path 228" d="M333.646,73.257v1.7h-7.914V62.54h7.7v1.7h-5.786V67.65h5.358v1.7h-5.358v3.9Z" transform="translate(-84.084 0.363)" fill="#fff"/>
          <path id="Path_229" data-name="Path 229" d="M340.448,74.961V62.54h2.289l6.566,9.9h.035v-9.9h1.917V74.961h-2.289L342.4,65.078h-.035v9.883Z" transform="translate(-83.999 0.363)" fill="#fff"/>
          <path id="Path_230" data-name="Path 230" d="M357.548,62.54h9.581v1.7H363.3V74.961H361.38V64.244h-3.832Z" transform="translate(-83.899 0.363)" fill="#fff"/>
          <path id="Path_231" data-name="Path 231" d="M94.246,29.927a.734.734,0,0,1,.661.413c1.035,2.521,3.1,6.9,9.052,6.9,4.173,0,6.86-2.4,6.86-5.91,0-5.579-7.191-5.248-12.563-8.472-2.357-1.405-3.762-3.265-3.762-6.075,0-4.918,3.967-8.1,9.587-8.1,2.645,0,5.373,1.363,5.951,1.363.247,0,.661-.33.952-.33.247,0,.578.124.619.33.331,1.9.869,5.042.869,5.62,0,.868-.331,1.158-.578,1.158-.331,0-.456-.206-.579-.578a7.75,7.75,0,0,0-2.727-3.885,8.136,8.136,0,0,0-5.415-1.983c-3.264,0-6.034,1.695-6.034,4.588,0,6.612,9.588,4.794,14.673,10.249a6.3,6.3,0,0,1,1.653,4.422c0,5.951-4.38,9.423-9.63,9.423-3.512,0-5.578-.207-8.141-1.571-.869-.5-2.026-6.323-2.026-6.695,0-.62.29-.868.578-.868" transform="translate(-85.434 0.05)" fill="#fff"/>
          <path id="Path_232" data-name="Path 232" d="M118.536,9.177c1.157,0,2.357.165,4.671.165,1.941,0,.785-.082,3.884-.082.371,0,.867.041.867.578,0,1.405-2.893-1.239-2.893,4.712v1.157c0,3.6-.04,6.489-.04,8.927,0,5.662,0,12.729,9.587,12.729,4.629,0,10.7-.041,10.7-12.233,0-7.026-.04-7.026-.04-8.762,0-2.231-.042-4.545-1.488-5.537-.992-.7-2.562-.248-2.562-.909,0-.331.165-.662.826-.662.5,0,2.728.082,3.181.082,1.736,0,2.728-.124,3.514-.124.867,0,.867.331.867.537,0,.662-1.529.909-1.984,1.777a4.972,4.972,0,0,0-.454,2.728c0,.7.04,1.529.04,2.769,0,15.787-1.61,19.217-6.695,21.367a19.965,19.965,0,0,1-5.909.908c-5.041,0-7.811-.826-9.8-2.644-3.306-3.017-3.346-6.778-3.346-15.25v-.7c0-2.851.082-4.67.082-5.951,0-2.851-.247-3.843-3.058-4.257-.869-.124-.909-.578-.909-.786,0-.289,0-.537.949-.537" transform="translate(-85.295 0.053)" fill="#fff"/>
          <path id="Path_233" data-name="Path 233" d="M169.251,8.807a17.231,17.231,0,0,1,10.29,2.934c.289,0,.827-.62,1.157-.62.414,0,.62.372.62.827.082,2.728.578,5.248.578,5.744,0,.661-.331.7-.5.7a.855.855,0,0,1-.7-.5,13.8,13.8,0,0,0-11.819-7.48c-6.612,0-11.9,4.34-11.9,12.234,0,7.48,4.5,14.877,12.274,14.877,4.3,0,8.265-2.272,8.637-4.752.041-.33.124-3.512.124-5.207a3.134,3.134,0,0,0-.7-2.314,2.975,2.975,0,0,0-1.819-.661c-.826-.082-1.53-.082-1.53-.909,0-.248.165-.455.744-.455,1.034,0,3.554.206,4.588.206,1.9,0,3.8-.041,3.926-.041.165,0,.661.041.661.372,0,.661-2.024.661-2.231,1.9a30.162,30.162,0,0,0-.289,4.629,36.547,36.547,0,0,0,.205,4.629c0,.5-1.157.331-2.6,1.115-.5.29-4.752,3.182-9.34,3.182-12.481,0-16.532-7.232-16.532-14.3,0-8.8,5.578-16.118,16.159-16.118" transform="translate(-85.088 0.051)" fill="#fff"/>
          <path id="Path_234" data-name="Path 234" d="M187.371,37.408c2.4-.909,2.106-1.736,14.381-27.855.371-.827.579-.95,1.24-.95.867,0,.331.082,2.975,6.653,1.942,4.795,7.77,18.309,8.1,18.97,2.066,4.174,4.586,2.273,4.586,3.761,0,.207-.083.62-1.115.62-.952,0-2.562-.247-3.72-.247-1.488,0-2.644.165-3.844.165-1.736,0-1.983-.082-1.983-.578,0-.909,2.066-.372,2.066-1.942,0-1.323-1.9-6.282-2.768-7.852-.165-.331-.331-.7-1.695-.7-.867,0-2.314.082-5,.082H198.4c-2.562,0-2.728.206-3.181,1.2-1.488,3.141-2.644,5.291-2.644,6.447,0,2.851,3.058,1.529,3.058,2.81,0,.331-.042.578-.7.578s-1.983-.041-3.43-.041c-1.612,0-2.644.166-3.554.166-.744,0-1.2-.083-1.2-.5a.8.8,0,0,1,.622-.786M199.23,25.34h1.282c1.819,0,3.925-.041,3.925-.041,1.074,0,1.613-.207,1.613-.662,0-.5-3.8-9.67-4.589-9.67-.536,0-4.339,9.092-4.339,9.587,0,.744.371.786,2.107.786" transform="translate(-84.892 0.049)" fill="#fff"/>
          <path id="Path_235" data-name="Path 235" d="M222.346,9.1h6.861c1.775,0,2.685-.125,4.132-.125,4.711,0,9.01,2.522,9.01,6.943,0,6.116-5.167,7.233-5.167,7.894s6.53,9.795,8.225,11.572a5.355,5.355,0,0,0,3.8,1.942.547.547,0,0,1,.579.5c0,.7-.083,1.033-3.059,1.033a8.475,8.475,0,0,1-3.555-.95c-2.191-1.28-5.29-6.489-7.4-9.918-1.736-2.81-2.563-3.224-3.059-3.224h-3.389c-.62,0-.7,0-.7,2.934,0,5.828.04,5.249.04,5.828,0,5,5.084,3.265,5.084,4.629,0,.413-.165.661-.743.661-.166,0-5.5-.289-5.911-.289-1.983,0-4.091.165-4.546.165-.413,0-.867-.124-.867-.661,0-1.447,3.472.371,3.472-4.174,0-2.645.04-8.431.04-13.018,0-4.34-.04-5.869-.04-6.984,0-4.464-4.01-2.81-4.01-4.092,0-.537.331-.661,1.2-.661m6.612,13.72a2.985,2.985,0,0,0,1.776.372h1.612c5.042,0,6.53-2.81,6.53-5.745,0-2.851-2.108-6.777-8.06-6.777-2.107,0-2.19.827-2.19,4.546v1.157c0,5.414,0,6.241.331,6.447" transform="translate(-84.692 0.052)" fill="#fff"/>
          <path id="Path_236" data-name="Path 236" d="M252.8,9.054c.331,0,.7.082,1.115.082.993,0,1.944.166,3.6.166,2.232,0,3.595-.166,4.338-.166.539,0,.7.082.7.413,0,1.777-3.1-.537-3.389,4.464-.126,2.562-.331,16.82-.331,17.275v1.653c0,1.364.289,3.059.992,3.265a4.651,4.651,0,0,0,1.776.331c13.184,0,11.654-3.927,12.853-3.927.248,0,.5.207.5.7,0,2.479-3.223,5.414-4.876,5.414-5.29,0-8.844-.413-11.366-.413-2.272,0-3.141.33-5.165.33-.827,0-1.2-.206-1.2-.5a.7.7,0,0,1,.661-.661,1.95,1.95,0,0,0,1.2-.413c.909-.7,1.405-1.777,1.405-8.1V23.85c0-2.273.123-4.588.123-7.15,0-1.2-.04-2.438-.082-3.761-.082-1.735-1.736-2.521-3.346-2.562-.578,0-.621-.248-.621-.578,0-.621.786-.744,1.116-.744" transform="translate(-84.515 0.052)" fill="#fff"/>
          <path id="Path_237" data-name="Path 237" d="M294.467,8.685c12.481,0,15.623,9.422,15.623,13.638,0,11.613-7.15,16.861-16.2,16.861-10.249,0-15.415-7.233-15.415-14.672,0-8.885,5.457-15.827,15.992-15.827m.745,28.681c4.587,0,11.488-3.637,11.488-11.241,0-10.414-6.365-15.787-13.639-15.787-5.537,0-10.95,3.637-10.95,12.068,0,5.248,3.76,14.96,13.1,14.96" transform="translate(-84.359 0.05)" fill="#fff"/>
          <path id="Path_238" data-name="Path 238" d="M312.178,37.408c2.4-.909,2.108-1.736,14.381-27.855.373-.827.579-.95,1.24-.95.869,0,.331.082,2.975,6.653,1.944,4.795,7.77,18.309,8.1,18.97,2.066,4.174,4.589,2.273,4.589,3.761,0,.207-.083.62-1.117.62-.949,0-2.562-.247-3.719-.247-1.488,0-2.644.165-3.842.165-1.736,0-1.983-.082-1.983-.578,0-.909,2.066-.372,2.066-1.942,0-1.323-1.9-6.282-2.77-7.852-.165-.331-.33-.7-1.693-.7-.869,0-2.314.082-5,.082h-2.19c-2.562,0-2.728.206-3.183,1.2-1.488,3.141-2.644,5.291-2.644,6.447,0,2.851,3.058,1.529,3.058,2.81,0,.331-.04.578-.7.578s-1.983-.041-3.431-.041c-1.611,0-2.645.166-3.555.166-.744,0-1.2-.083-1.2-.5a.8.8,0,0,1,.62-.786M324.039,25.34h1.28c1.818,0,3.927-.041,3.927-.041,1.074,0,1.611-.207,1.611-.662,0-.5-3.8-9.67-4.587-9.67-.538,0-4.34,9.092-4.34,9.587,0,.744.372.786,2.108.786" transform="translate(-84.167 0.049)" fill="#fff"/>
          <path id="Path_239" data-name="Path 239" d="M347.029,9.013h1.116c2.85,0,2.728.248,8.968.248,5.5,0,5.249-.207,9.382-.207.288,0,.7.124.7.992,0,.827-.331,2.108-.578,4.215-.04.5-.289.827-.619.827s-.579-.248-.579-.827c0-1.446-.5-2.769-1.9-2.851-3.637-.289-5.95-.5-7.439-.5-2.852,0-2.686.7-2.77,2.645-.082,1.488-.123,5-.123,6.9,0,.743,0,2.025.744,2.066.371,0,.743.041,1.032.041.621,0,1.116-.041,1.778-.041h1.28c3.553,0,3.967-.207,4.753-.744a1.93,1.93,0,0,0,.578-.578c.536-.827.165-1.653.992-1.653.5,0,.536.165.536.661,0,.744-.371,1.983-.371,3.43,0,1.405.289,2.6.289,3.39,0,.992-.247,1.033-.578,1.033-.62,0-.785-.455-.867-1.033-.125-.744-.125-1.654-.909-1.984a17.722,17.722,0,0,0-4.01-.578h-3.594c-.869,0-1.7.124-1.7.786,0,2.356-.083,3.637-.083,5.95,0,.579-.04,1.116-.04,1.654,0,1.074.33,4.3,3.306,4.3.949,0,1.24.455,1.24.744,0,.206-.208.786-1.283.786-1.28,0-2.934-.331-4.008-.331-2.274,0-2.975.247-5,.247-.413,0-.827,0-.827-.455,0-.743.082-.661,1.778-1.28,1.775-.621,1.528-3.348,1.61-13.1,0-2.273.125-4.629.125-7.192v-2.4c0-1.323-.165-2.81-1.943-3.637-.909-.455-2.066.041-2.066-.826,0-.125.125-.7,1.074-.7" transform="translate(-83.967 0.052)" fill="#fff"/>
          <rect id="Rectangle_176" data-name="Rectangle 176" width="274.996" height="0.436" transform="translate(8.233 50.577)" fill="#fff"/>
        </g>
      </g>
    </g>
  </g>
</svg>
