<svg xmlns="http://www.w3.org/2000/svg" width="61.88" height="64.336" viewBox="0 0 61.88 64.336">
  <g id="single-logo" transform="translate(0 0)">
    <g id="Group_241" data-name="Group 241" transform="translate(0 0)">
      <path id="Path_266" data-name="Path 266" d="M60.755,43.892a5.684,5.684,0,0,0-.39-.462,28.983,28.983,0,0,1-2.233-2.853c-.608-.845-1.235-1.718-1.945-2.548q-.959-1.113-1.805-2.241a82.579,82.579,0,0,1-6.021-9.569l-.555-.99c-1.745-3.125-3.551-6.356-6.381-8.722a6.581,6.581,0,0,0-.693-.473c-.122-.076-.3-.19-.451-.293.078-.171.182-.373.257-.517a5.76,5.76,0,0,0,.528-1.247,12.946,12.946,0,0,0,.293-3.542l0-.233c-.012-.906-.044-3.657-2.28-3.657-1.288.007-2.449,1.209-3.725,2.662-.151.172-.281.321-.383.428l-2.714,2.856c-.075.079-.215.226-.234.244a1.506,1.506,0,0,1-.256,0c-.355-.114-.711-.22-1.071-.3l-.06-.02a21.868,21.868,0,0,0-3.393-.724c-1.2-.17-2.416-.274-3.63-.323-1.475-.061-2.942-.006-4.415.054-.287.012-.573.022-.86.045-.624.052-1.246.132-1.871.174a8.306,8.306,0,0,1-1.678-.039,16.864,16.864,0,0,1-4.677-1.169,7.627,7.627,0,0,0,3.161,3.093c.775.408,1.446.353,2.036.961a.506.506,0,0,1,.152.26c-.346-.093-.7-.173-1.049-.244q-.5-.1-1.012-.175a6.11,6.11,0,0,0-1.2-.1,3.449,3.449,0,0,0-.534.065c-.418.093-.839.182-1.25.307-.12.036-.209.07-.308.1-2.79.967-5.316,1.189-7.251-.265a4.7,4.7,0,0,0,2.588,2.524,19.8,19.8,0,0,1-2.715,1.384,75.159,75.159,0,0,1-.091-8.992A41.109,41.109,0,0,1,9.5,6.094,58.13,58.13,0,0,1,29.784,2.529c14.973,0,24.88,5.439,27.149,6.817a77.089,77.089,0,0,1-2.1,22.224c-.068.273-.162.52-.233.79.482.71.987,1.421,1.518,2.124.13.172.261.319.39.484.274-.914.541-1.832.779-2.781A79.1,79.1,0,0,0,59.41,8.513l-.054-.6-.489-.336C58.418,7.27,47.679,0,29.784,0S1.152,7.27.7,7.581l-.489.336L.16,8.507a76.449,76.449,0,0,0,.585,15.6c.068.5.138,1,.218,1.51.1.67.235,1.363.362,2.052.058.313.1.615.164.931q.334,1.715.774,3.483a52.036,52.036,0,0,0,8.449,18.639,38.047,38.047,0,0,0,8.339,8.239c.275.2.567.375.848.566.439.3.872.6,1.325.883.375.232.765.444,1.15.664A39.1,39.1,0,0,0,29.384,64.2l.4.131.4-.131a37.711,37.711,0,0,0,14.979-9.22c-.043-.044-.092-.083-.135-.127-.24-.247-.47-.507-.688-.779l-.408-.22-.795-.428a35.173,35.173,0,0,1-13.352,8.237A36.332,36.332,0,0,1,23.22,58.64l1.562-4.5q1.6-4.59,3.184-9.187a10.617,10.617,0,0,0,6.391,2.567,14.393,14.393,0,0,0,2.448-.108,6.617,6.617,0,0,1,3.136.13,17.038,17.038,0,0,1,3.512,2.393,17.527,17.527,0,0,0,1.636,1.116,9.9,9.9,0,0,1,1.936,1.433,2.257,2.257,0,0,1,.212.346,6.886,6.886,0,0,0,5.217,3.88c2.865.406,4.576-1.707,5.938-3.4a12.766,12.766,0,0,1,1.518-1.689,5.724,5.724,0,0,0,.847-7.729m-2.525,5.745a14.589,14.589,0,0,0-1.865,2.043c-1.323,1.645-2.194,2.639-3.556,2.457A4.261,4.261,0,0,1,49.5,51.553a3.97,3.97,0,0,0-.559-.824,11.609,11.609,0,0,0-2.469-1.875A15.045,15.045,0,0,1,44.947,47.8a18.6,18.6,0,0,0-3.941-2.628,8.624,8.624,0,0,0-4.463-.345,12.578,12.578,0,0,1-2,.1c-1.926-.135-5.035-1.122-5.712-3.283l-1.194-3.81-1.279,3.783c-1.317,3.9-2.672,7.782-4.026,11.667l-1.332,3.827c-2.115-1.734-6.571-5.647-8.231-7.869a49.446,49.446,0,0,1-8.03-17.7c-.419-1.677-.761-3.329-1.041-4.935-.083-.476-.143-.931-.214-1.4.191-.155.37-.315.565-.466a45.131,45.131,0,0,1,4.041-2.783,46.5,46.5,0,0,1,12.529-5.383,37,37,0,0,1,6.218-1.1,29.835,29.835,0,0,1,4.615-.156,3.3,3.3,0,0,0,1.507-.157,3.351,3.351,0,0,0,1.184-.878l2.715-2.856c.12-.128.275-.3.452-.5.269-.306.949-1.082,1.417-1.5.029.308.034.657.036.814l.007.305a10.478,10.478,0,0,1-.226,2.837,5.976,5.976,0,0,1-.31.657,3.944,3.944,0,0,0-.641,2.1c.107,1.071,1.07,1.67,1.774,2.108a3.751,3.751,0,0,1,.4.26c2.462,2.058,4.148,5.075,5.778,7.993l.561,1a84.586,84.586,0,0,0,6.21,9.858c.6.794,1.233,1.588,1.909,2.37.633.741,1.2,1.532,1.8,2.371a31.265,31.265,0,0,0,2.448,3.112,2.98,2.98,0,0,1,.207.248l.006.007a3.13,3.13,0,0,1-.452,4.176" transform="translate(0)" fill="#fff"/>
    </g>
  </g>
</svg>
