<svg xmlns="http://www.w3.org/2000/svg" xmlns:xlink="http://www.w3.org/1999/xlink" width="521.033" height="480.727" viewBox="0 0 521.033 480.727">
  <defs>
    <clipPath id="clip-path">
      <rect id="Rectangle_242" data-name="Rectangle 242" width="472.601" height="426.309" fill="#394969"/>
    </clipPath>
    <clipPath id="clip-path-2">
      <rect id="Rectangle_177" data-name="Rectangle 177" width="283.23" height="84.103" fill="none"/>
    </clipPath>
  </defs>
  <g id="Group_338" data-name="Group 338" transform="translate(-34.776 -280.666)">
    <g id="Group_321" data-name="Group 321" transform="translate(86.729 280.667) rotate(7)">
      <g id="Group_319" data-name="Group 319" transform="translate(0 -0.001)" clip-path="url(#clip-path)">
        <path id="Path_895" data-name="Path 895" d="M235.219,48.416c-.01-.04-.033-.068-.044-.107a.764.764,0,0,1-.044.1l.088,0" transform="translate(59.916 12.311)" fill="#394969"/>
        <path id="Path_896" data-name="Path 896" d="M216.629,76.1l-.011,0v0h.011" transform="translate(55.198 19.392)" fill="#394969"/>
        <path id="Path_897" data-name="Path 897" d="M244.678,57.144l-.021-.005v.005h.021" transform="translate(62.343 14.561)" fill="#394969"/>
        <path id="Path_898" data-name="Path 898" d="M295.537,10.074l-.132-.227a.623.623,0,0,1-.058.184l.189.043" transform="translate(75.26 2.51)" fill="#394969"/>
        <path id="Path_899" data-name="Path 899" d="M266.228,25.668l-.079-.059a.544.544,0,0,1-.025.08c.036-.011.065-.008.1-.021" transform="translate(67.814 6.527)" fill="#394969"/>
        <path id="Path_900" data-name="Path 900" d="M75.576,173.405c-.069-.016-.127-.01-.192-.021a.5.5,0,0,1,.011.141l.181-.119" transform="translate(19.209 44.183)" fill="#394969"/>
        <path id="Path_901" data-name="Path 901" d="M238.939,47.029c0-.024-.011-.038-.013-.061-.018.016-.036.025-.054.039.023.006.044.016.066.023" transform="translate(60.87 11.97)" fill="#394969"/>
        <path id="Path_902" data-name="Path 902" d="M264.164,46.766l-.035-.013a.192.192,0,0,1,.006.026l.029-.014" transform="translate(67.305 11.915)" fill="#394969"/>
        <path id="Path_903" data-name="Path 903" d="M230.293,55.876c.1.006.187.005.285.011-.055-.068-.113-.125-.168-.192,0,.009,0,.016,0,.025a.661.661,0,0,1-.113.156" transform="translate(58.683 14.193)" fill="#394969"/>
        <path id="Path_904" data-name="Path 904" d="M235.98,322.041c-.09.053-.178.1-.267.147a.537.537,0,0,1,.212.132c.02-.1.033-.183.055-.279" transform="translate(60.064 82.064)" fill="#394969"/>
        <path id="Path_905" data-name="Path 905" d="M252.793,28.266c.033.016.061.035.094.051-.009-.035-.021-.068-.029-.1a.537.537,0,0,1-.048.044l-.018.009" transform="translate(64.417 7.19)" fill="#394969"/>
        <path id="Path_906" data-name="Path 906" d="M209.175,79.557l.322-.028c-.1-.046-.193-.093-.291-.139,0,.024.018.041.014.068-.005.041-.033.064-.045.1" transform="translate(53.302 20.231)" fill="#394969"/>
        <path id="Path_907" data-name="Path 907" d="M208.1,93.093l.166-.054-.152-.127a.859.859,0,0,1,.005.141c0,.018-.016.024-.019.04" transform="translate(53.029 23.677)" fill="#394969"/>
        <path id="Path_908" data-name="Path 908" d="M21.933,184.875c0-.035,0-.065,0-.1-.028.02-.051.043-.079.061a.533.533,0,0,1,.059.019c.01.006.014.015.024.021" transform="translate(5.568 47.085)" fill="#394969"/>
        <path id="Path_909" data-name="Path 909" d="M193.229,78.858c-.033-.029-.066-.05-.1-.078a.8.8,0,0,1-.024.117c.04-.014.083-.024.123-.039" transform="translate(49.207 20.076)" fill="#394969"/>
        <path id="Path_910" data-name="Path 910" d="M307.491,8.138l.135.031c-.015-.046-.036-.084-.05-.13a.493.493,0,0,1-.026.043.624.624,0,0,1-.059.056" transform="translate(78.355 2.05)" fill="#394969"/>
        <path id="Path_911" data-name="Path 911" d="M308.986,425.9h0l2.1.01,1.5,0a56.918,56.918,0,0,0,17.328-3.293c.419-.162.842-.32,1.241-.522,2.3-1.167,3.032-2.863,1.953-5.2a96.3,96.3,0,0,0-5.728-11.207q-2.2-3.488-4.419-6.968a12.852,12.852,0,0,0-5.417-4.811c-4.2-2-6.442-5.617-7.486-9.981a30.4,30.4,0,0,0-10.524-16.448c2.794-.045,5.371.059,7.939-.129a91.005,91.005,0,0,0,13.406-1.645,16.2,16.2,0,0,0,2.566-.808,11.977,11.977,0,0,1,4.65-1.005,10.908,10.908,0,0,0,6.728-2.629c2.178-1.685,4.285-3.462,6.426-5.195a3.329,3.329,0,0,0,1.067-2.255c2.224-14.9,7.646-28.615,15.3-41.522,2.856-4.817,5.539-9.736,7.05-15.19a28.77,28.77,0,0,0,.678-13.081c-.2-1.075-.148-2.195-.25-3.29-.088-.96.339-.994,1.058-.674a10.26,10.26,0,0,1,4.527,3.6A49.672,49.672,0,0,0,385.2,297.389c5.333,3.488,9.347,8.026,10.63,14.484,1.055,5.314.024,10.458-1.579,15.517-2.73,8.622-6.878,16.605-11.2,24.5a12.914,12.914,0,0,1-7.844,6.568,5.457,5.457,0,0,0-3.259,2.713c-1.535,2.7-2.771,2.787-4.687.344-.926-1.181-1.773-2.424-2.672-3.626-2.55-3.411-6.017-4.458-9.948-2.833a12.829,12.829,0,0,1-5.076,1.082,7.77,7.77,0,0,0-5.028,2.088,29.139,29.139,0,0,0-8.368,11.736c-1.262,3.138-.447,5.019,2.672,6.4a28.958,28.958,0,0,1,5.982,3.391,14.8,14.8,0,0,0,7.484,2.865c5.469.6,10.933,1.468,16.442,1.378a67.434,67.434,0,0,0,13.356-1.921,12.587,12.587,0,0,0,9.971-9.415c2.867-10.921,7.908-20.787,13.944-30.23a18.15,18.15,0,0,1,6.368-6.371c4.467-2.546,6.1-6.962,6.7-11.813a25.49,25.49,0,0,1,1.463-6.393c2.284-5.79.3-10.695-3.639-14.989A57.439,57.439,0,0,1,407.64,289.8a63.01,63.01,0,0,1-6.008-21.248c-.916-7.9-1.265-15.937-4.2-23.429-1.556-3.974-2.4-7.664-.71-11.82a11.973,11.973,0,0,0,.177-6.693,23.629,23.629,0,0,1,1.969-14.927,19.436,19.436,0,0,0,.949-15.133c-2.028-6.129-2.655-12.621-4.52-18.8a127.72,127.72,0,0,1-4-15.218,39.972,39.972,0,0,1,.988-19.007c1.873-5.988,2.57-12.232,3.946-18.329a15.46,15.46,0,0,1,1.581-4.51,3.239,3.239,0,0,1,4.615-1.4,4.465,4.465,0,0,1,.907.52c6.52,5.231,14.021,9.109,20.26,14.737a67.494,67.494,0,0,1,9.888,11.075,24.535,24.535,0,0,1,4.554,11.911,13.554,13.554,0,0,0,1.345,4.586,9.337,9.337,0,0,0,7.907,5.635,44.917,44.917,0,0,0,12.266-.028,9.168,9.168,0,0,0,7.648-6.543,8.717,8.717,0,0,1,1.964-3.46c1.3-1.344,1.556-3.2,1.985-4.949.312-1.274.275-2.669,1.213-3.742v-3.911c-.1.029-.248.049-.28-.014-.97-2.005-2.733-3.53-3.259-5.829a167.37,167.37,0,0,1-3.812-25.537c-.374-5.292-.629-10.588-.955-15.878a24.411,24.411,0,0,1,1.565-11.02,4.708,4.708,0,0,0-.354-4.215,81.256,81.256,0,0,1-6.07-14.709c-.872-2.615-1.59-5.294-2.665-7.826a4.658,4.658,0,0,1,1.191-5.806,13.435,13.435,0,0,0,4.294-9.182,37.332,37.332,0,0,0-.754-10.164c-.21-.929-.348-1.873-.572-2.8-.166-.679-.3-1.477-1.129-1.621-.9-.157-1.111.675-1.447,1.271-1.745,3.094-3.216,6.348-5.539,9.1-1.8,2.137-2.958,2.462-5.491,1.3-4.93-2.267-7.553-6.231-8.445-11.473a9.507,9.507,0,0,1,.182-2.537c.058-.609.069-1.252-.6-1.562a1.416,1.416,0,0,0-1.646.413c-1.181,1.162-2.153,2.507-3.215,3.773-1.364,1.626-2.256,1.909-4.207,1.157-3.541-1.363-6.89-3.027-9.208-6.219a17.856,17.856,0,0,1-2.267-4.723c-1.773-5.073-4.688-9.173-9.806-11.369a14.406,14.406,0,0,0-1.54-.6c-.7-.212-1.1-.2-1.1.769,0,1.343-.432,1.575-1.709.945-3.61-1.782-7.687-2.261-11.142-4.182-.223.151-.271.233-.277.338-.038.558.5,1.265-.217,1.64-.676.353-1.244-.194-1.76-.563a11.95,11.95,0,0,1-2.885-3.616A9.449,9.449,0,0,0,384.221.9c-1.093-.627-1.373-.461-1.436.822a5.4,5.4,0,0,0,.572,2.761c.634,1.254,1.328,2.473,1.993,3.708.29.537.789,1.151.345,1.754.015.046.036.084.05.131l-.137-.031c-.447.457-1.087.125-1.636.021a5.838,5.838,0,0,0-2.15-.247c.265.906,1.175,1.722.213,2.528-.888.748-1.872.418-2.852.125-3.688-1.1-6.779-2.981-8.642-6.5a2.644,2.644,0,0,0-.572-.7c-.652-.595-1.444-1.2-2.266-.651-.718.482-.119,1.3.078,1.926a17.478,17.478,0,0,0,1.84,3.439,8.2,8.2,0,0,1,.769,1.461,1.19,1.19,0,0,1,.04.765c.045.078.085.149.132.227l-.191-.043c-.156.194-.462.257-.915.166-4.962-1-9.633-2.572-12.7-6.993a11.187,11.187,0,0,0-5-3.948,4.683,4.683,0,0,0-.846-.31c-.523-.11-1.222-.5-1.536,0-.359.568.413.908.748,1.294a21.545,21.545,0,0,1,2.024,2.216c.28.427.533.921.216,1.4s-.814.2-1.242.137c-.478-.074-.93-.409-1.506-.118a2.692,2.692,0,0,0,.981,1.592,71.943,71.943,0,0,1,4.89,6.1,32.9,32.9,0,0,0,7.92,7.946,1.65,1.65,0,0,1,.7.767.612.612,0,0,1-.02.1l.73.317a1.071,1.071,0,0,1-1.065.1,1.7,1.7,0,0,1-.241.085c-3.748-.5-7.4-1.34-10.607-3.466a11.506,11.506,0,0,1-4.507-6.206c-.4-1.193-.873-2.359-2.409-2.817.156,6.991,2.821,12.522,8.587,16.477.8.552,1.862.808,2.315,1.817,0,.009-.008.011-.01.02a.848.848,0,0,1,.616.449,2.907,2.907,0,0,1-1.117.028,3.665,3.665,0,0,1-.42.1,60.34,60.34,0,0,0-11.64,1.246c-4.192.74-7.819-.521-11.16-2.916-1.949-1.4-3.719-3.024-5.743-4.654.658,3.088,2.569,5.077,4.692,6.919.34.3.733.532,1.055.847.264.257.647.514.562.9.026.019.051.039.078.059-.038.013-.066.01-.1.021a.711.711,0,0,1-.064.139c-.291.463-.794.291-1.237.2-.718-.141-1.349-.7-2.37-.412a10.841,10.841,0,0,0,4.451,3.471,21.66,21.66,0,0,0,7.471,1.533,73.589,73.589,0,0,1,7.629.627,2.92,2.92,0,0,1,1.865.74,1.228,1.228,0,0,1-.978.755c-3.187.691-6.257,1.786-9.375,2.714-3.894,1.159-7.447-.05-10.712-2.153-4.5-2.9-7.909-6.908-10.919-11.268-2.767-4.007-5.9-7.608-10.385-9.781a3.49,3.49,0,0,0-2.629-.523,31.956,31.956,0,0,1,3.722,3.811,28.087,28.087,0,0,1,6.873,11.848c.149.489.483,1.088,0,1.482.009.035.021.068.03.1-.034-.015-.061-.035-.094-.051-.532.35-1.039-.118-1.464-.434a21.08,21.08,0,0,1-3.871-4.181,13.511,13.511,0,0,0-5.836-4.353,9.169,9.169,0,0,0-5.613-.3c.642.882,1.52,1.038,2.2,1.468.253.161.531.284.78.453.625.423,1.453.853,1.272,1.693-.191.881-1.156.792-1.883.9-.247.036-.5.019-.749.055s-.546.039-.639.31c-.128.375.211.519.451.673.762.487,1.622.794,2.382,1.285.6.392,1.249.89,1.048,1.665-.168.649-.954.645-1.53.75-1.329.245-2.71-.083-4.291.407a26.9,26.9,0,0,1,9.084,4.783,62.043,62.043,0,0,1,6.968,6.613c4.155,4.618,8.681,8.791,14.857,10.616.458.136,1.019.291,1.055.816l.035.013-.029.014c0,.016.011.025.011.041-.018.578-.642.69-1.114.853a5.967,5.967,0,0,1-3.841-.09,35.119,35.119,0,0,0-9.292-1.7,21.844,21.844,0,0,0-7.262,1.054,9.92,9.92,0,0,1-8.47-1.354c-.257-.156-.481-.365-.738-.518-.414-.246-.875-.763-1.329-.346-.429.4.122.8.317,1.176.186.354.467.714.115,1.093-.014.015-.029.018-.043.03,0,.024.011.038.013.061-.023-.006-.045-.015-.066-.023a1.025,1.025,0,0,1-1.028.038,23.221,23.221,0,0,1-2.575-1.239,5.41,5.41,0,0,0-3.712-.442c.055.663.6.789.981,1.045a9.322,9.322,0,0,1,1.233.857,1.291,1.291,0,0,1,.538,1.177.67.67,0,0,1-.092.207c.013.039.034.065.044.107l-.088-.005a1.4,1.4,0,0,1-.915.358,1.252,1.252,0,0,0-.732.294c1.788,1.729,3.448,3.561,5.293,5.2,2.18,1.937,4.453,3.757,7.412,4.419.381.084.926.211.895.706l.023.005h-.021c0,.024.011.038.008.063-.078.439-.634.437-1.023.443a13.048,13.048,0,0,1-9.194-3.05,25.352,25.352,0,0,1-3.126-3.451c-.75-.951-1.609-1.523-2.791-.531a1.953,1.953,0,0,1-2.006.281c-3.073-1.223-6.219-.705-9.368-.447,1.236.469,2.527.728,3.795,1.073a12.675,12.675,0,0,1,5.219,2.565c.366.324.8.676.58,1.237.055.067.113.124.168.193-.1-.006-.188-.006-.285-.013a1.176,1.176,0,0,1-1.06.338c-3.422-.225-6.649.8-9.926,1.5a11.284,11.284,0,0,1-4.773.146c-.854-.179-1.212-.061-.988.956.536,2.429,0,2.87-2.528,2.659-2.643-.221-5.3-.3-7.949-.384a19.388,19.388,0,0,1-8.659-2.188c-1.277-.676-1.651-.474-1.824.952-.184,1.531.53,2.7,2.236,3.545a34.3,34.3,0,0,0,3.677,1.325,6.094,6.094,0,0,1,2.574,1.5c.851.932.7,1.5-.525,1.738-2.976.567-5.814,2.039-8.987,1.367-.673-.142-.674.32-.611.85.2,1.7.062,1.856-1.678,2.008-1.565.137-2.973.881-4.8,1.073a2.359,2.359,0,0,0,1.237.413c6.82,1.255,13.425,3.338,20.083,5.219,2.124.6,4.286,1.054,6.4,1.67.392.114.945.211.932.734l.011,0h-.01c0,.015.009.021.008.036-.039.437-.556.577-.936.624-3.37.413-6.721,1.251-10.15.452-.772-.181-1.493-.492-2.4-.773a8.988,8.988,0,0,0,3.291,2.944c.363.211.873.418.881.846.1.045.192.093.291.139l-.323.028c-.134.4-.664.45-1.057.508-4.044.585-7.86.063-10.942-2.851a9.222,9.222,0,0,0-8.958-2.542,57.482,57.482,0,0,0-5.967,1.767c1.63.513,3.335.182,4.894.765.781.292,1.93.433,1.892,1.4l0,.018c.034.028.068.049.1.078-.041.015-.083.025-.124.04-.143.775-1.185.8-1.906.952a6.075,6.075,0,0,0-2.467,1.059c-.27.207-.683.373-.654.758.035.448.525.4.831.5a53.336,53.336,0,0,1,13.875,6.769,100.753,100.753,0,0,1,8.282,6.249c.423.348.91.742.876,1.331.05.044.1.084.151.128l-.167.054c-.169.659-.87.7-1.413.873a77.153,77.153,0,0,0-7.43,2.434,3.671,3.671,0,0,0-2.5,2.559,15.793,15.793,0,0,1,7.942-1.51c1.745.154,3.482.418,5.223.637a27.466,27.466,0,0,0,7.638-.018c.526-.08,1.19-.316,1.51.284.363.679-.292,1.088-.671,1.517-3.177,3.6-7.341,5.509-11.832,6.8a142.149,142.149,0,0,1-15.816,3.665,16.136,16.136,0,0,1-11.069-1.748c-2.034-1.176-4.379-.95-6.588-1.305a100.344,100.344,0,0,0-13.028-.867,90.7,90.7,0,0,0-11.543.555,77.7,77.7,0,0,0-12.286,2.134,43.524,43.524,0,0,0-14.7,7.043,18.794,18.794,0,0,1-1.735,1.192,6.4,6.4,0,0,1-7.475-.31,24.041,24.041,0,0,0-4.747-2.877c-6.421-2.685-12.676-1.777-18.788,1a46.472,46.472,0,0,1-13.215,3.9c-9.852,1.3-17.315,6.427-22.923,14.492-3.126,4.5-5.613,9.377-8.557,13.981-2.91,4.55-6.205,8.754-10.85,11.706a23.277,23.277,0,0,1-15.006,3.747,27.767,27.767,0,0,0-6.9.122,6.751,6.751,0,0,1-1.348.1c-4.214-.182-8.411.272-12.618.36-5.47.115-9.941,2.722-14.123,6.511,3.158-1.122,5.925-2.446,8.9-3.195a14.637,14.637,0,0,1,8.3.023c.542.178,1.388.221,1.379.934s-.838.728-1.4.876c-4.22,1.1-8.5,1.981-12.645,3.362a44.831,44.831,0,0,0-16.669,9.638,37.347,37.347,0,0,0-8.7,12.152c-1.845,4.117-3.455,8.353-7.269,11.468a3.42,3.42,0,0,0,2.4-.173c.528-.166,1.119-.409,1.555.063.522.565.08,1.152-.211,1.649a21.436,21.436,0,0,1-3.239,4.688A30.64,30.64,0,0,1,4.288,238.9c.014.181.078.242.192.271,2.816.7,3.084,1.364,1.932,3.992a16.293,16.293,0,0,1-5.489,6.348c3.609-.335,6.494-1.438,8.311-4.471,1.366-2.28,2.592-4.637,3.81-7a12.633,12.633,0,0,1,6.816-6.471,3.01,3.01,0,0,1,1.008-.287c.767-.01,1.024.365.681,1.05a16.338,16.338,0,0,1-1.208,1.722,41.377,41.377,0,0,0-3.432,7.18,18.866,18.866,0,0,1-2.742,4.63c.115.056-.463.157.016.179.124.006.256-.1.388-.151a7.457,7.457,0,0,0,5.085-4.54,24.53,24.53,0,0,1,5.338-8.284,6.516,6.516,0,0,1,1.408-1.121c.242-.126.5-.292.78-.174l.078-.061c.005.036,0,.066.005.1a.821.821,0,0,1,.274.916,5.469,5.469,0,0,1-1.3,2.335c-.418.533-1.447,1.146-.742,1.8.639.595,1.526-.108,2.075-.7a39.935,39.935,0,0,0,6.367-8.723c3.362-6.471,9.012-8.757,15.863-8.992a2.938,2.938,0,0,1,.749.051c.334.074.758.085.789.538a.751.751,0,0,1-.522.674c-4.924,2.34-7.7,6.925-11.173,10.763a24.082,24.082,0,0,1-5.2,4.363c4.059-.053,7.164-2.254,9.965-4.965a38.356,38.356,0,0,1,23.483-11.047,35.692,35.692,0,0,1,8.85.243,26.719,26.719,0,0,0,13.044-1.168,18.558,18.558,0,0,1,3.511-.818c.4-.058.9-.1,1.059.335.065.011.123.005.192.021l-.181.119c.03.354-.3.625-.589.818A23.145,23.145,0,0,1,87.37,221.3a33.291,33.291,0,0,1-10.258,1.244,23.83,23.83,0,0,0-10.572,1.852,20.515,20.515,0,0,0-4.862,3.24,2.064,2.064,0,0,0-.7.965c-.159.538.024.788.6.616a11.276,11.276,0,0,0,1.112-.461,36.468,36.468,0,0,1,17.5-2.57A32.268,32.268,0,0,0,103,219.336a49.622,49.622,0,0,0,7.536-7.321,8.522,8.522,0,0,1,3.5-2.5c4.737-1.812,9.614-3.173,14.459-4.644a28.377,28.377,0,0,0,6.511-2.7,14.389,14.389,0,0,0,5.923-6.991c1.377-3.28,2.122-6.8,3.841-9.953a7.754,7.754,0,0,1,1.144-1.758c.2-.211.418-.52.744-.4.4.141.374.548.361.9a5.816,5.816,0,0,1-.228,1.18,46.854,46.854,0,0,0-1.427,11.907A65.772,65.772,0,0,0,151.1,222.1c4.279,9.963,9.56,19.423,14.611,29,.655,1.242,1.261,2.508,1.911,3.753a27.777,27.777,0,0,0,8.993,10.333,20.883,20.883,0,0,1,5.835,5.745,132.368,132.368,0,0,0,11.733,14.471,19.055,19.055,0,0,1,4.755,9.4,12.09,12.09,0,0,0,3.521,6.679,21.193,21.193,0,0,1,6.432,14.314,21.641,21.641,0,0,0,10.884,17.882,87.386,87.386,0,0,1,15.743,12.248c1.906,1.837,3.918,3.589,5.839,5.413,5.63,5.351,10.694,11.164,13.5,18.571a10.6,10.6,0,0,0,5.187,5.79,22.335,22.335,0,0,1,2.574,1.556c1.59,1.147,2.108,2.641,1.163,4.325-1.374,2.446-1.215,4.856-.458,7.4,1.072,3.606,2.3,7.16,3.5,10.721,1.694,5.016,5.249,7.528,10.508,8.046a27.743,27.743,0,0,0,16.54-3.214,4.917,4.917,0,0,1,.962-.424,1.1,1.1,0,0,1,.713-.01c.089-.053.177-.1.267-.148-.023.1-.035.184-.056.279a.949.949,0,0,1,.2.749c-.041.6-.083,1.2-.148,1.8-.525,4.791,1.569,8.887,3.363,13.083,1.053,2.459,2.224,4.731,4.949,5.708a.474.474,0,0,1,.332.59h.6c1.274-.649,2.625-.159,3.936-.271M24.144,218.368c1.661-7.953,15.719-16.9,25.428-16.1a80.564,80.564,0,0,1-25.428,16.1M114.493,208c4.041-5.664,6.544-12.135,11.77-16.944-.934,8.15-6.248,15.861-11.77,16.944M341.33,322.624c-1.851,4.916-4.265,9.577-6.457,14.339-1.5,3.259-3.1,6.464-3.058,10.238.025,2.116-3.54,5.571-5.638,5.93a1.722,1.722,0,0,1-1.392-.361c-1.909-1.407-3.125-5.617-2.232-7.8a3.548,3.548,0,0,1,.525-.9c.371-.453.78-1.094,1.413-.893.571.182.284.851.287,1.338a1.089,1.089,0,0,0,1.9.8c2.175-2.309,4.609-4.535,4.639-8.244-.666-1.868.356-3.406,1.277-5.058a66.5,66.5,0,0,0,3.439-7.156c.808-1.971,2.131-3.344,4.476-3.417,1.058-.033,1.161.289.821,1.192m17.526-48.976q-3.045-1.045-6.087-2.1a8,8,0,0,1-.972-.378,2.437,2.437,0,0,1-1.587-1.856c-.055-.817.886-1,1.454-1.32a14.277,14.277,0,0,1,4.436-1.791,2.782,2.782,0,0,1,1.522.527,8.322,8.322,0,0,1,3.269,5.2c.295,1.581-.514,2.232-2.034,1.71m41.71,62.181c-3.825,7.747-7.45,15.6-12.105,22.913a29.015,29.015,0,0,0-4.143,9.244c-.636,2.843-4.535,5.568-7.513,5.527a2.74,2.74,0,0,1-1.971-.937,6.734,6.734,0,0,1,.311-9.458c.25-.222.482-.631.861-.451.415.2.363.664.351,1.072-.023.748-.55,1.665.5,2.107,1.121.472,1.875-.2,2.611-.955,1.366-1.4,2.744-2.782,4.177-4.107,2.242-2.073,3.624-4.771,5.323-7.234a2.371,2.371,0,0,0-.35-3.158c-.368-.392-.656-.721-.325-1.3,2.607-4.531,4.911-9.218,7.12-13.986a3.644,3.644,0,0,1,.077,1.979c-.079.626-.026,1.24.732,1.442a1.276,1.276,0,0,0,1.649-.935c.514-1.615.926-3.264,1.37-4.9.177-.651.331-1.309.542-2.147a4.382,4.382,0,0,1,.782,5.282m-7.048-68.482c2.787,8.175,5.21,16.481,9,24.288a82.747,82.747,0,0,0,8.086,14.006c2.1,2.774,2.232,5.668,1.759,8.8a11.39,11.39,0,0,1-1.028,3.434,2.78,2.78,0,0,1-3.059,1.666,2.44,2.44,0,0,1-2.308-2.513,12.93,12.93,0,0,0-.88-3.483,9.339,9.339,0,0,1-.911-3.769c.208-2.2-.8-3.626-2.229-5.1a34.234,34.234,0,0,1-5.688-8.789,6.765,6.765,0,0,0-.932-1.521,1.613,1.613,0,0,0-2.068-.267c-.676.341-.67.934-.507,1.555.115.439.351,1.013.018,1.284-.452.366-.9-.195-1.321-.39-2.682-1.24-5.407-2.436-7.406-4.724-.531-.607-1.606-1.37-1.146-2.054s1.545,0,2.344.261c.646.21,1.5.729,1.963.107.479-.644-.2-1.369-.6-1.97a7.823,7.823,0,0,0-2.221-2c-5.315-3.662-9.652-8.107-11.65-14.448-.2-.632-.589-1.259-1.3-1.321-.852-.077-.9.757-1.2,1.31-.488.926-1.024,1.827-1.6,2.847a6.943,6.943,0,0,1-1.335-2.182,3.236,3.236,0,0,1,3.446-4.589,6.214,6.214,0,0,1,2.919,1.1,27.846,27.846,0,0,1,8.184,7.634,4.948,4.948,0,0,0,.792.9,1.277,1.277,0,0,0,1.511.343c.453-.279.109-.839.053-1.257a12.311,12.311,0,0,0-2.064-4.611,15.007,15.007,0,0,1-1.92-3.679c5.026,1.3,8.819,4.358,12.731,7.746a14.849,14.849,0,0,0-2.309-6.614,22.488,22.488,0,0,0-3.364-4.219,32.284,32.284,0,0,1-2.641-2.875,3.829,3.829,0,0,1,1.5-6.016c1.33-.614,2.2.058,2.848,1.162a53.5,53.5,0,0,1,4.526,9.946m1.361-167.011c-.228-.312-.188-.622-.009-1.087a1.025,1.025,0,0,1,.009,1.087m-88.314-7.8A25.078,25.078,0,0,0,317,87.49a63.264,63.264,0,0,0,8.326-8.407c-1.009,6.393-10.08,13.439-17.447,13.719h0c-.152.044-.306.06-.458.092-.044.01-.087.019-.129.026a10.316,10.316,0,0,1-3.5-.054l2.783-.333M207.526,245.215a15.36,15.36,0,0,1-3.865-2.278c-.578-.489-1.24-.967-2.013-.355-.733.578-.526,1.351-.272,2.068,1.65,4.662,3.084,9.406,5.043,13.95a13.249,13.249,0,0,1,.492,8.809c-.473,1.862-1.518,2.165-2.87.821-2.138-2.128-4.537-3.944-6.816-5.9a11.093,11.093,0,0,1-1.975-1.84c-2.044-2.916-4.962-4.689-7.894-6.549-5.063-3.209-9.1-7.367-10.9-13.3-.151-.5-.609-1.116-.107-1.5.563-.434,1.112.119,1.6.453.62.424,1.227.866,1.855,1.277a1.669,1.669,0,0,0,2.208-.09,1.6,1.6,0,0,0,.284-2.168,12.8,12.8,0,0,0-4.575-5.221,37.651,37.651,0,0,1-16.9-21.248c-1.368-4.175-3.066-8.243-4.659-12.342a33.239,33.239,0,0,1-.1-25.306c3.158-7.884,6.741-15.516,12.219-22.087,7.629-9.15,17.112-15.023,29.122-16.645,6.5-.878,12.98-1.926,19.56-1.9a71.9,71.9,0,0,1,9.284.629,2.223,2.223,0,0,1,2.131,1.921c.447,1.915,1.22,2.572,3.235,2.714,3.811.267,7.6-.236,11.392-.455,3.65-.212,7.265-.88,10.936-.816a21.321,21.321,0,0,1,6.632,1.128c2.065.712,2.909,2.044,2.428,4.181-1.922,8.537-1.341,17.132-.754,25.736.092,1.35.35,2.52,1.986,2.7,1.674.182,2.2-.929,2.685-2.251,2.315-6.3,3.935-12.8,5.638-19.28s3.416-12.96,7.145-18.678a33.419,33.419,0,0,1,17.072-13.813c10.9-3.869,20.2-10.215,28.569-18.1,6.988-6.585,12.823-14.2,19.285-21.257,13.214-14.422,29.02-24.746,48.067-29.778,8.582-2.267,17.337-2.341,26.122-1.851a5.151,5.151,0,0,1,.764.168c-1,1.183-1.971,2.247-2.841,3.389a9.114,9.114,0,0,0-1.853,5.9,1.245,1.245,0,0,0,.917,1.358,1.119,1.119,0,0,0,1.374-.653c2.707-5.167,7.361-8.977,10.006-14.679.537,4.357,1.03,8.3,1.5,12.245.092.763.12,1.525,1.019,1.819.947.311,1.5-.281,2.039-.9q3.458-3.962,6.909-7.929c.432-.5.808-1.127,1.564-.468a2.329,2.329,0,0,1,.738,2.574c-.094.317-.472.265-.788.172-1.24-.364-1.457.22-1.581,1.377-.424,3.973.1,7.893.391,11.83a13.655,13.655,0,0,1,0,2.552c-.173,1.481-.148,2.712,1.186,3.86.965.831.868,2.4,1.042,3.68a30.673,30.673,0,0,1,.216,9.31c-1.422-1.861-1.876-3.909-2.579-5.839-.295-.806-.631-1.354-1.6-1.043a.758.758,0,0,1-.447.021c-3.049-1.09-5.979-.1-8.961.423-2.481.432-3.7-.635-3.94-3.1-.2-2.069-.327-2.182-2.27-1.546-.71.233-1.023.124-1.39-.568a5.125,5.125,0,0,1-.358-4.057c.311-1.054.576-2.122.839-3.188a1.23,1.23,0,0,0-.5-1.457,1.5,1.5,0,0,0-1.572.018,5.472,5.472,0,0,0-2.554,6.814c1.734,4.45,3.638,8.8,7.508,11.907a1.654,1.654,0,0,1,.5,1.351,4.392,4.392,0,0,0,2.54,3.818c2.221,1.139,4.476,2.222,6.771,3.2a7.607,7.607,0,0,0,6.4-.06c1.291-.592,1.792-.328,2.1,1.116a25.507,25.507,0,0,0,3.005,7.642c3.209,5.418,5.721,11.212,9.223,16.482a20.708,20.708,0,0,1,3.2,14.932,2.613,2.613,0,0,1-.437,1.468,18.382,18.382,0,0,1-.6-4.355c-.171-1.492-.272-3-.512-4.476a12.444,12.444,0,0,0-1.463-4.241c-1.476,2.286-2.2,7.18-1.183,9.756a11.343,11.343,0,0,1-.443,9.3,3.207,3.207,0,0,0-.184.409c-.8,2.715-2.61,4.22-5.313,5.1-4.157,1.36-4.559,2.693-2.552,6.672.031.061-.036.173-.075.334a5.031,5.031,0,0,1-1.719-2.709c-.622-1.733-1.039-3.53-2.267-5.023-.671-.816,0-1.712.449-2.482a2.305,2.305,0,0,1,1.878-1.09c.518-.041.56.476.477.9-.149.764-.09,1.423.812,1.65a2.326,2.326,0,0,0,2.471-.688c.59-.686.1-1.309-.322-1.883-.669-.92-1.065-1.581.7-1.41,1.121.109,1.822-.6,2-1.8a20.1,20.1,0,0,0-.11-2.591c1.055.105,1.37.739,1.526,1.59.077.423.143,1,.631,1.117.537.128.9-.345,1.22-.717.764-.9,1.188-1.915.459-3.012-2.137-3.212-2.714-6.854-2.919-10.579a46.293,46.293,0,0,0-1.542-10.67c-.159-.54-.258-1.208-.886-1.221-.55-.01-.656.684-.817,1.124a6.781,6.781,0,0,0-.016,3.708c.172.881.361,1.759.543,2.639a1.121,1.121,0,0,1,.119,1.32c-.124.173-.418-.078-.5-.338a4.415,4.415,0,0,1-1.122-2.077c-.2-.509-.34-1.049-.586-1.535-.849-1.68-1.8-2.256-2.855-1.782a3.952,3.952,0,0,0-1.5,3.783,11.542,11.542,0,0,0,4.407,5.553,8.93,8.93,0,0,1,3.613,3.91.913.913,0,0,1,.048.932c-1.634-1.309-3.258-2.608-4.943-3.956a3.181,3.181,0,0,0,.12,2.848c.255.651.6,1.267.86,1.916a2.239,2.239,0,0,1-1.018,3.182,2.634,2.634,0,0,0-1.6,2.048c-2.625-2.768-5.322-5.282-7.608-8.184a1.416,1.416,0,0,1-.228-1.793c.447-.663,1.044-.369,1.624-.222,1.619.412,2.089,0,1.763-1.606a4.345,4.345,0,0,0-2.816-3.583c-3.027-1.111-4.69-3.5-5.559-6.464-2.352-8.01-4.643-16.038-6.954-24.06-.415-1.442-.816-2.887-1.223-4.329-.188-.663-.459-1.316-1.3-1.129s-.846.882-.724,1.567c1.472,8.335,3.232,16.581,6.963,24.276,1.289,2.655,1.414,5.607,1.725,8.485a3.055,3.055,0,0,1-1.458,2.663,36.008,36.008,0,0,0-4.844,4.7c-1.768,2.033-2.919,2.156-5.228.71a30.874,30.874,0,0,1-14.616-21.747c-1.93-11.251,1.01-21.121,9.145-29.291,1.088-1.093,1.477-2.259.664-3.636a1.687,1.687,0,0,1,.479-2.272c2.111-2.039,1.432-3.432.607-5.446a1.278,1.278,0,0,0-1.934-.758,4.521,4.521,0,0,0-3.013,3.931,19.536,19.536,0,0,1-4.668,10.386c-.215.265-.405.6-.965.473.2-.54.287-1.1-.329-1.469-.72-.432-1.207.072-1.772.374-8.036,4.307-11.883,11.674-14.691,19.868-4.166,12.15-8.168,24.354-12.172,36.557-.358,1.09-.883,2.126-1.237,3.216-.312.961-.909,2.136.592,2.628,1.482.487,1.8-.78,2.084-1.754a72.84,72.84,0,0,1,9.128-19.471,37.506,37.506,0,0,1,9.616-10.035c.277-.2.525-.737.994-.358.354.285.05.653,0,.978a12.414,12.414,0,0,1-2.964,6.471c-6.027,6.713-9.471,14.748-12.227,23.177a153.391,153.391,0,0,0-6.452,29.884c-1.872,15.985-5.218,31.569-11.1,46.575a30.141,30.141,0,0,0-.981,3.151c-.521,1.934-.167,2.985,1.149,3.61a3,3,0,0,0,3.931-1.166c.827-1.128,1.595-2.3,2.338-3.492,3.7-5.926,6.07-12.477,8.742-18.881,1.616-3.87,3.127-7.785,4.679-11.682.537-1.346,1.7-1.545,2.625-.423a2.267,2.267,0,0,1,.45.772c1.472,5.081,3.61,9.97,4.411,15.244.7,4.616.178,9.067-2.537,12.937a10.776,10.776,0,0,0-1.659,7.992,19.173,19.173,0,0,1-.429,7.6,9.852,9.852,0,0,1-2.486,4.393,8.508,8.508,0,0,0-2.4,4.9c-.109.713-.218,1.427-.366,2.389a4.728,4.728,0,0,1-.119-2.087,79.21,79.21,0,0,0-2.251-9.015,26.905,26.905,0,0,1-1.053-8.452c.043-.62.1-1.269-.708-1.417a1.3,1.3,0,0,0-1.577,1.059,25.516,25.516,0,0,0-1.269,9.163c.769,7.922-.432,15.369-5.192,21.986-.494.686-1.072,1.457-.265,2.281.846.865,1.636.275,2.426-.188a23.068,23.068,0,0,0,8.983-10.226c.105-.27.21-.54.44-1.131a4.8,4.8,0,0,1-.154,2.648c.077,4.67-2.4,7.913-5.945,10.522a5.744,5.744,0,0,1-4.112,1.132,5.035,5.035,0,0,0-4.3,1.655c-2.758,2.641-2.992,2.562-4.033-1-.458-1.569-1.4-1.865-2.641-.781-.715.625-1.312,1.384-2.037,2a10.353,10.353,0,0,1-10.791,2.082c-4.5-1.629-8.391-4.088-10.4-8.693a14.26,14.26,0,0,1-.094-11.125c2.193-5.725,1.537-11.4.028-17.1a2.3,2.3,0,0,0-2.3-1.724,24.98,24.98,0,0,1,.389,3.831,11.3,11.3,0,0,1-2.82,6.653c-1.877,2.2-3.852,4.324-5.885,6.594a1.32,1.32,0,0,1,.138-1.694,5.762,5.762,0,0,0,.863-1.9c.173-.627.36-1.326-.326-1.769s-1.231-.035-1.738.415c-.787.7-1.547,1.429-2.365,2.089a49.294,49.294,0,0,1-12.055,6.938,11.692,11.692,0,0,0-5.489,4.461c-.931,1.424-1.959,2.784-2.921,4.187a21.905,21.905,0,0,1-5.745,5.869l.626.286c6.374-1.192,12.306-3.369,17.278-7.713.4-.353.71-.862,1.3-.964l.934-1.576a13.056,13.056,0,0,1,3.742-4.428c1.985-1.7,3.59-1.7,5.689-.129a20.988,20.988,0,0,1,5.312,6.258c2.687,4.509,5.167,9.138,8.284,13.385,5.169,7.043,11.364,12.735,19.787,15.684a5,5,0,0,1,3.521,5.358c-.1,3.152-.845,6.251-.846,9.415,0,.6.014,1.2,0,1.8a3.3,3.3,0,0,1-2.748,3.431c-1.659.4-2.894-.215-3.731-1.981a15.2,15.2,0,0,1-1.644-7.095c.089-2.579.074-5.125-1.813-7.223a2.33,2.33,0,0,1-.291-1.138c-.189-1.245-.861-1.566-1.956-.867a2.981,2.981,0,0,0-1.164,3.456c.891,4.216,1.492,8.475,2.028,12.746.087.689.117,1.387.188,2.264-1.252-.929-1.136-2.1-1.08-3.216a7.02,7.02,0,0,0-.122-2.527,1.746,1.746,0,0,0-2.1-1.252c-1.035.1-1.244.808-1.31,1.69a15.072,15.072,0,0,0,1.32,6.7,10.46,10.46,0,0,1,.927,3.662,11.69,11.69,0,0,1-3.953-8.2,16.184,16.184,0,0,1,.141-4.047,5.615,5.615,0,0,0-1.173-4.644c-.382-.512-.935-.9-1.146-1.535-.639.44-1.035-.166-1.461-.4-2.794-1.559-5.558-3.175-8.343-4.75a6.594,6.594,0,0,0-1.516-.624,1.292,1.292,0,0,0-1.469.5c-.334.491-.078.941.228,1.375.282.4.8.861.518,1.319-.3.489-.907.1-1.369.029-8.84-1.294-15.906-5.677-21.636-12.406-.3-.351-.5-1.2-1.156-.8a1.494,1.494,0,0,0-.561,1.744c.413,1.333.878,2.649,1.324,3.978a8.4,8.4,0,0,1-8.444-5.686c-.716-2.059-1.658-4.076-1.575-6.366a1.626,1.626,0,0,0-1.546-1.878c-1.144-.075-1.547.71-1.766,1.665-.167.732-.314,1.471-.542,2.183-.518,1.609-1.279,1.887-2.683.965-4.8-3.152-8.5-6.939-9.289-13.1-.693-5.4-2.175-10.68-2.866-16.1-.747-5.845-.124-11.587.833-17.333.921-5.531,2.006-11.049,1.645-16.707-.051-.8-.181-1.59-.269-2.385a1.494,1.494,0,0,0-1.064-1.476c-.882-.231-1.065.518-1.38,1.07-.117.2-.267.39-.488.708a8.569,8.569,0,0,1-.223-5.561,56.405,56.405,0,0,1,2.426-8.184,6.68,6.68,0,0,0,.384-1.292,1.879,1.879,0,0,0-.926-2.309,2.085,2.085,0,0,0-2.708.56,10.188,10.188,0,0,0-2.082,4.441,128.8,128.8,0,0,0-3.022,21.682,58.517,58.517,0,0,1-4.388,19.524,33.873,33.873,0,0,0-2.557,14.957c.1,2.773-1.062,4.238-3.6,4.01-9.617-.865-19.383-1.07-28.656-4-21.9-6.932-35.215-21.834-39.916-44.327a48.859,48.859,0,0,1-.37-17.195c.094-.641.074-1.3.1-1.951.038-.813.123-1.64-.959-1.9-1.137-.279-1.7.4-2.068,1.28a35.6,35.6,0,0,0-2.111,7.021c-1.848,9.832-.3,19.356,2.8,28.685,4.486,13.481,12.937,23.917,24.768,31.68a55.586,55.586,0,0,1,4.919,3.5,1.913,1.913,0,0,1-2.762-.136,17.518,17.518,0,0,0-6.29-3.978M240.883,323.9c.063.364.33.868-.087,1.105-.477.272-.817-.21-1.153-.486a4.606,4.606,0,0,1-1.42-2.25,39.963,39.963,0,0,0-9.648-16.191,22.347,22.347,0,0,1-5.862-12.268c-.954-5.619-1.725-11.268-2.595-16.9a3.9,3.9,0,0,1,.1-1.779,1.946,1.946,0,0,1,2.954-1.217c2.193,1.4,4.473,2.626,6.743,3.889A8.229,8.229,0,0,1,234,284.6a48.05,48.05,0,0,0,6.363,20.12,12.138,12.138,0,0,1,1.488,6.653c.038,2.771-.685,5.453-.981,8.186a15.589,15.589,0,0,0,.01,4.337m26.173,61.919c-.4-.561-.932-1.182-.539-1.907s1.134-.4,1.769-.353c1.446.119,1.887-.3,1.614-1.705a24.789,24.789,0,0,0-4.094-9.576,1.682,1.682,0,0,0-2.059-.774c-2.831.878-3.7.384-4.358-2.409-.067-.279-.261-.589.009-.841s.555-.069.837.026c.665.223,1.4.954,2,.043.627-.954-.038-1.7-.67-2.373-2.354-2.517-4.019-5.341-4.125-8.91-.024-.808.054-1.853-1.185-1.907-1.274-.056-1.346.934-1.462,1.855-.035.274.085.6-.207.8l-17.26-18.861c.91-.068,1.788.114,2.6-.625-4.372-2.82-6.93-7.766-11.941-9.978-2.729-1.2-4.861-3.21-5.238-6.464a4.592,4.592,0,0,1,.009-1.636,4.783,4.783,0,0,0-1.41-4.75,81.988,81.988,0,0,1-6.709-7.9,14.111,14.111,0,0,1-2.559-10.941,5.118,5.118,0,0,1,.895-2.206,2.785,2.785,0,0,1,3.039-1.112,2.264,2.264,0,0,1,1.8,2.3A27.512,27.512,0,0,0,218.95,303c1.472,4.111,3.8,7.813,5.507,11.809.371.87,1.308,1.36,2.055,1.939a1.251,1.251,0,0,0,1.767-.083c.6-.571.238-1.082-.109-1.594-.582-.86-1.694-2.136-.91-2.7.763-.553,1.781.867,2.483,1.656a9.989,9.989,0,0,1,2.15,4.575,18.6,18.6,0,0,0,5.682,9.858c7.86,7.208,15.518,14.654,24.1,21.041,2.166,1.612,4.443,3.076,6.656,4.627,3.586,2.513,6.095,5.761,6.843,10.18.734,4.329-2.019,6.889-6.2,5.773-.753-.2-1.707-.882-2.236-.193-.547.711.315,1.542.7,2.239,1.464,2.628,3.338,2.969,6.159,1.195,1.7-1.073,2.294-.964,3.586.66a10.282,10.282,0,0,1,1.645,4.307c.316,1.36.971,1.86,2.355,1.426a2.363,2.363,0,0,1,3.088,1.409,28.392,28.392,0,0,1,1.186,2.748c.7,1.988-.178,3.539-1.584,4.812a9.38,9.38,0,0,1-7.91,2.408,12.631,12.631,0,0,1-8.909-5.269m21.953,16.846a19.312,19.312,0,0,1-7.568,1.606c-.6-.033-1.2-.04-1.8-.1-4.817-.5-7.456-3.471-7.446-8.326,0-1.311.562-1.947,1.9-1.927a33.414,33.414,0,0,0,5.7-.151,11.727,11.727,0,0,0,6.6-3.279c1.1-1.072,1.68-1.01,2.434.312a21.177,21.177,0,0,1,2.663,7.436,3.674,3.674,0,0,1-2.476,4.43m2.714-53.689a59.943,59.943,0,0,0-2.358,6.632c-.8,2.374-1.59,2.559-3.255.691-4.939-5.534-9.6-11.3-14.126-17.175a15.719,15.719,0,0,1-2.978-8.99,56.587,56.587,0,0,0-6.71-23.759,13.236,13.236,0,0,1-.105-12.42c2.149-4.514,4.319-9.011,5.347-13.959a31.386,31.386,0,0,0,.5-8.958c-.153-1.93.425-2.517,2.38-2.541,1.654-.021,3.309-.005,5.709-.005,7.762-.783,14.671,2.536,20.643,8.3a9.567,9.567,0,0,0,7.361,2.811,20.064,20.064,0,0,1,11.179,2.777c4.866,2.747,10.258,3.577,15.748,3.783,3.235.122,5.076,1.7,6.185,4.689,3.46,9.321,3.225,18.368-1.368,27.3-2.192,4.26-4.207,8.624-6.049,13.046a19.282,19.282,0,0,1-5.687,7.593,26.186,26.186,0,0,0-5.095,5.066,1.479,1.479,0,0,1-2.227.374,14.206,14.206,0,0,1-2.762-2.527,11.048,11.048,0,0,0-7.934-3.012,4.5,4.5,0,0,0-3.892,1.916,4.515,4.515,0,0,1-2.817,1.807c-3.705.814-6.106,3.211-7.69,6.56m8.213,58.916a3.375,3.375,0,0,1-.307-1.508,5.5,5.5,0,0,1,1.147-3.281c1.676-2.574,1.615-3.259-.218-5.738a6.718,6.718,0,0,1-1.132-4.271,1.409,1.409,0,0,1,2.358-1.146,4.344,4.344,0,0,1,1.383,1.349,16.994,16.994,0,0,0,4.349,4.712c.079.061.148.134.222.2,2.989,2.792,2.761,4.614-.956,6.242a14.055,14.055,0,0,0-4.864,3.871c-1.154,1.3-1.32,1.223-1.981-.432m2.658,7.274a4.424,4.424,0,0,1,.582-2.448,13.6,13.6,0,0,1,6.893-5.974c1.969-.78,3.759-.163,5.1,1.768a20.405,20.405,0,0,1,3.463,9.775,2.485,2.485,0,0,1-2.1,3,26.93,26.93,0,0,1-9.085.63c-2.61-.218-4.871-3.594-4.859-6.753" transform="translate(0.235 0.141)" fill="#394969"/>
        <path id="Path_912" data-name="Path 912" d="M233.816,48.292a.637.637,0,0,0-.614.355c-.133.3.079.464.271.622,4.473,3.692,7.782,8.988,14.112,10.124.031-.5-.514-.621-.895-.706-2.959-.661-5.233-2.481-7.412-4.419-1.845-1.64-3.5-3.472-5.293-5.2a1.261,1.261,0,0,1,.73-.294,1.4,1.4,0,0,0,.916-.356c-.373-.019-.654-.03-.925-.05a8.911,8.911,0,0,0-.891-.074" transform="translate(59.414 12.307)" fill="#394969"/>
        <path id="Path_913" data-name="Path 913" d="M205.183,75.581c.855,2.58,2.766,3.7,5.041,4.78-.008-.428-.518-.635-.881-.846a8.966,8.966,0,0,1-3.291-2.944c.909.282,1.63.594,2.4.773,3.429.8,6.78-.039,10.15-.45.38-.046.9-.188.936-.624,0-.015-.009-.023-.008-.036-4.771.616-9.552,2.2-14.349-.653" transform="translate(52.285 19.261)" fill="#394969"/>
        <path id="Path_914" data-name="Path 914" d="M237.868,52.832a8.607,8.607,0,0,0-1.369-1.377c-.641-.54-1.276-.747-1.885.136a1.552,1.552,0,0,1-2.009.585c-2.47-1.255-5.1-.763-7.672-.816a7.548,7.548,0,0,0-3.319.64c3.715,1.595,8.06,1.379,11.007,4.9.217-.561-.213-.915-.58-1.24a12.7,12.7,0,0,0-5.219-2.564c-1.267-.345-2.559-.6-3.795-1.073,3.15-.258,6.3-.777,9.368.445a1.948,1.948,0,0,0,2.006-.281c1.182-.99,2.04-.418,2.791.533a25.426,25.426,0,0,0,3.126,3.451,13.047,13.047,0,0,0,9.194,3.049c.389-.008.945,0,1.023-.442,0-.026-.01-.039-.008-.063-5.8.378-9.2-1.245-12.661-5.88" transform="translate(56.472 12.994)" fill="#394969"/>
        <path id="Path_915" data-name="Path 915" d="M202.227,77.205a8.051,8.051,0,0,0-7.252-2.047c-2.843.427-5.47,1.552-8.4,2.418,2.673,1.221,5.787.109,8.222,2.158l0-.016c.036-.971-1.112-1.111-1.892-1.4-1.558-.583-3.264-.252-4.894-.767a57.686,57.686,0,0,1,5.967-1.766,9.222,9.222,0,0,1,8.958,2.541c3.081,2.914,6.9,3.436,10.942,2.851.393-.056.922-.112,1.057-.508-.477.04-.739.059-.985.089-4.428.541-8.4-.162-11.723-3.551" transform="translate(47.542 19.12)" fill="#394969"/>
        <path id="Path_916" data-name="Path 916" d="M286.036,4.748a9.838,9.838,0,0,0-7.357-4.17c-.289-.033-.649-.143-.826.144s.1.562.253.809a11.038,11.038,0,0,0,1.82,1.99,5.083,5.083,0,0,1,1.824,2.734c-.934-.265-1.681-.533-2.453-.671a1.045,1.045,0,0,0-1.166.5c-.187.408.314.557.531.787a67.036,67.036,0,0,1,4.8,5.777c2.87,3.806,5.732,7.622,9.982,10.06l.1.041a.608.608,0,0,0,.019-.1,1.634,1.634,0,0,0-.7-.765,32.969,32.969,0,0,1-7.92-7.947,72.14,72.14,0,0,0-4.889-6.1,2.694,2.694,0,0,1-.983-1.592c.577-.29,1.029.044,1.506.119.429.067.929.336,1.242-.138s.065-.975-.215-1.4a21.548,21.548,0,0,0-2.024-2.216c-.336-.385-1.108-.725-.749-1.292.314-.5,1.014-.112,1.536,0a4.73,4.73,0,0,1,.847.31,11.179,11.179,0,0,1,5,3.948c3.062,4.419,7.732,5.992,12.694,6.993.454.092.76.028.916-.166-5.527-1.216-10.508-2.777-13.785-7.659" transform="translate(70.787 0.136)" fill="#394969"/>
        <path id="Path_917" data-name="Path 917" d="M232.25,45.646c.688,1.691,3.092,1.571,3.659,3.47a.675.675,0,0,0,.09-.208,1.292,1.292,0,0,0-.538-1.177,9.4,9.4,0,0,0-1.232-.857c-.382-.255-.927-.383-.981-1.045a5.412,5.412,0,0,1,3.712.442,23.085,23.085,0,0,0,2.574,1.239,1.022,1.022,0,0,0,1.028-.038c-2.759-.871-5.086-3.374-8.311-1.825" transform="translate(59.182 11.506)" fill="#394969"/>
        <path id="Path_918" data-name="Path 918" d="M270.04,28.36a3.247,3.247,0,0,0-1.725-.422c-.3.035-.65.031-.8.324-.169.336.182.531.361.729a13.3,13.3,0,0,0,4.8,3.525,22.032,22.032,0,0,0,6.716,1.446c3.314.28,6.672.151,10.177,1.045-.6.2-.967.354-1.349.432a48.893,48.893,0,0,0-7.775,2.212,11.026,11.026,0,0,1-5.31.663,16.527,16.527,0,0,1-8.36-3.792,45.371,45.371,0,0,1-9.353-10.514,26.361,26.361,0,0,0-10.5-9.416,4.376,4.376,0,0,0-3.353-.339c5.474,4.918,9.947,10.263,11.63,17.567.487-.393.153-.993,0-1.481a28.087,28.087,0,0,0-6.873-11.848,31.941,31.941,0,0,0-3.721-3.811,3.483,3.483,0,0,1,2.628.522c4.485,2.175,7.619,5.775,10.385,9.783,3.01,4.36,6.415,8.368,10.919,11.268,3.265,2.1,6.819,3.313,10.712,2.153,3.118-.929,6.188-2.023,9.375-2.714a1.228,1.228,0,0,0,.978-.755,2.92,2.92,0,0,0-1.865-.74,72.9,72.9,0,0,0-7.629-.627,21.633,21.633,0,0,1-7.471-1.535,10.83,10.83,0,0,1-4.451-3.471c1.021-.286,1.653.272,2.37.413.443.087.946.258,1.237-.206a.708.708,0,0,0,.064-.138,2.306,2.306,0,0,1-1.828-.272" transform="translate(62.068 3.584)" fill="#394969"/>
        <path id="Path_919" data-name="Path 919" d="M280.586,25.7a15.631,15.631,0,0,1-15.269-3.948c-1.449-1.349-3.049-2.533-4.728-3.915a11.1,11.1,0,0,0,.964,3.365c1.241,2.743,3.531,4.546,6.007,6.382.085-.385-.3-.642-.562-.9-.323-.316-.715-.551-1.055-.847-2.123-1.843-4.034-3.831-4.692-6.919,2.024,1.629,3.795,3.255,5.745,4.653,3.34,2.4,6.967,3.658,11.16,2.917a60.328,60.328,0,0,1,11.638-1.247,3.206,3.206,0,0,0,.42-.1,1.427,1.427,0,0,1-.525-.217,32.2,32.2,0,0,0-9.1.772" transform="translate(66.403 4.547)" fill="#394969"/>
        <path id="Path_920" data-name="Path 920" d="M188.433,82.021c9.486,2.689,17.27,8.048,24.7,14.468.035-.591-.452-.985-.875-1.331a100.188,100.188,0,0,0-8.282-6.249,53.3,53.3,0,0,0-13.875-6.77c-.307-.093-.8-.046-.831-.494-.03-.385.383-.552.654-.759a6.075,6.075,0,0,1,2.467-1.059c.72-.157,1.763-.177,1.906-.952-2.209.777-4.693.715-5.864,3.147" transform="translate(48.016 20.1)" fill="#394969"/>
        <path id="Path_921" data-name="Path 921" d="M265.021,47.51c-5.081-1.536-10.226-2.16-15.373-.5a9.681,9.681,0,0,1-9.187-1.645,5.7,5.7,0,0,0-1.285-.753c-.355-.134-.86-.247-1.136.092-.322.4-.074.85.158,1.247.3.508.936.819.979,1.653.014-.013.029-.016.043-.03.351-.379.07-.74-.114-1.094-.2-.375-.748-.781-.317-1.175.454-.418.914.1,1.328.345.258.153.481.363.738.519a9.929,9.929,0,0,0,8.47,1.354,21.848,21.848,0,0,1,7.263-1.055,35.17,35.17,0,0,1,9.291,1.7,5.97,5.97,0,0,0,3.842.09c.471-.163,1.1-.274,1.113-.853,0-.016-.01-.025-.01-.04-1.981,1.156-3.889.729-5.8.151" transform="translate(60.618 11.336)" fill="#394969"/>
        <path id="Path_922" data-name="Path 922" d="M251.783,25.645a13.675,13.675,0,0,0-6.539-4.844,9.258,9.258,0,0,0-6.308.019c1,1.512,2.666,1.753,3.913,2.624.442.31,1.142.644.976,1.2-.153.516-.924.41-1.444.453-.877.072-2.21-.245-2.385.705-.189,1.03,1.218,1.218,2.014,1.631,1.005.522,2.132.866,2.486,2.178-2.187.545-4.573-.338-6.622,1.18a5.763,5.763,0,0,0,.739.314,24.952,24.952,0,0,1,9.377,4.883,85.749,85.749,0,0,1,7.966,7.756c3.2,3.337,6.563,6.484,10.9,8.329,1.262.538,2.585.941,3.966,1.434-.036-.525-.6-.681-1.057-.817-6.176-1.825-10.7-6-14.856-10.616a61.946,61.946,0,0,0-6.969-6.613,26.9,26.9,0,0,0-9.084-4.782c1.582-.489,2.964-.163,4.293-.407.576-.105,1.361-.1,1.528-.752.2-.775-.442-1.274-1.048-1.665-.759-.489-1.619-.8-2.382-1.284-.24-.153-.579-.3-.45-.673.093-.271.4-.274.639-.31s.5-.019.75-.055c.728-.107,1.691-.019,1.882-.9.182-.839-.647-1.27-1.272-1.693-.248-.168-.526-.292-.781-.452-.684-.43-1.561-.587-2.2-1.468a9.152,9.152,0,0,1,5.613.3,13.5,13.5,0,0,1,5.836,4.353,21.037,21.037,0,0,0,3.871,4.181c.425.316.932.783,1.463.434-2.176-1.08-3.483-2.884-4.812-4.649" transform="translate(60.615 5.163)" fill="#394969"/>
        <path id="Path_923" data-name="Path 923" d="M232.826,56.332c-3.413.831-6.824,1.971-10.395.735a4.518,4.518,0,0,0,.4,2.323c.324,1.345-.136,1.978-1.479,1.772a50.789,50.789,0,0,0-6.14-.383c-4.318-.134-8.642-.265-12.325-3.005-.408-.3-.548-.133-.76.26a3.8,3.8,0,0,0,1.705,5.586c1.116.541,2.342.852,3.511,1.281,1.353.5,2.737.954,3.621,2.359-2.037.528-4,1.042-5.969,1.547a7.748,7.748,0,0,1-3.864.06c-.478-.119-1.021-.312-1.394.162s.141.813.3,1.2c.532,1.313.371,1.61-1.074,1.576-1.737-.039-3.261.824-4.933,1.058a.97.97,0,0,0-.936.9c10.108,1.472,19.618,5.228,29.52,7.514.013-.522-.541-.62-.932-.734-2.118-.616-4.28-1.07-6.4-1.67-6.658-1.88-13.263-3.963-20.083-5.218a2.382,2.382,0,0,1-1.237-.413c1.823-.192,3.231-.936,4.8-1.073,1.739-.153,1.876-.312,1.678-2.008-.063-.531-.06-.993.611-.85,3.173.671,6.011-.8,8.987-1.368,1.227-.233,1.375-.8.525-1.738a6.107,6.107,0,0,0-2.574-1.5,34.3,34.3,0,0,1-3.677-1.325c-1.707-.846-2.421-2.013-2.236-3.544.173-1.428.547-1.629,1.826-.952a19.377,19.377,0,0,0,8.658,2.187c2.649.079,5.307.163,7.949.384,2.527.211,3.064-.228,2.528-2.659-.225-1.018.133-1.136.988-.955a11.284,11.284,0,0,0,4.773-.147c3.276-.708,6.5-1.729,9.926-1.5a1.179,1.179,0,0,0,1.06-.338,23.063,23.063,0,0,0-6.947.479" transform="translate(49.204 14.217)" fill="#394969"/>
        <path id="Path_924" data-name="Path 924" d="M19.937,192.453c-.422.733-.279,1.187.742,1.144a4.471,4.471,0,0,0,3.333-2.059,58.747,58.747,0,0,0,5.886-8.5c3.16-5.736,10.577-9.232,16.32-7.77a19.146,19.146,0,0,0-6.556,5c-1.038,1.154-2.038,2.346-3.013,3.555a26,26,0,0,1-8.69,7.54,13.969,13.969,0,0,0,9.86-3.319c1.139-.979,2.2-2.053,3.332-3.038,8.514-7.4,18.313-10.943,29.629-9.533a30.537,30.537,0,0,0,14.5-1.181,10.646,10.646,0,0,1,2.173-.562,6.066,6.066,0,0,1,2.112-.269h0c-.159-.43-.66-.391-1.059-.335a18.717,18.717,0,0,0-3.512.819,26.726,26.726,0,0,1-13.043,1.168,35.632,35.632,0,0,0-8.85-.243,38.346,38.346,0,0,0-23.483,11.047c-2.8,2.712-5.905,4.911-9.965,4.965a24.129,24.129,0,0,0,5.2-4.363c3.475-3.838,6.249-8.422,11.173-10.763a.756.756,0,0,0,.522-.674c-.033-.453-.458-.464-.791-.54a2.994,2.994,0,0,0-.749-.05c-6.851.235-12.5,2.521-15.862,8.991a39.921,39.921,0,0,1-6.368,8.723c-.55.591-1.436,1.295-2.075.7-.705-.656.324-1.267.742-1.8a5.489,5.489,0,0,0,1.3-2.336.821.821,0,0,0-.274-.915,3.737,3.737,0,0,1-1.192,2.812,13.5,13.5,0,0,0-1.349,1.789" transform="translate(5.024 44.108)" fill="#394969"/>
        <path id="Path_925" data-name="Path 925" d="M68.541,184.956c-3.441.213-6.909-.141-10.323.691a20.372,20.372,0,0,0-9.164,4.881c-.632.582-1.195,1.257-.658,2.069.553.838,1.153-.048,1.641-.264A35.246,35.246,0,0,1,67.48,189.5a33.346,33.346,0,0,0,16.853-2.768,39.76,39.76,0,0,0,13.949-10.937,10.8,10.8,0,0,1,4.842-3.364c5-1.759,10.087-3.234,15.151-4.781,6.134-1.872,10.179-5.74,11.953-11.932.193-.673.4-1.341.634-2a25.171,25.171,0,0,1,3.723-7.652c.232.448.033.755-.051,1.084a50.113,50.113,0,0,0-1.617,12.022c-.069,9.486,2.447,18.389,6.19,27,4.428,10.187,10,19.8,14.981,29.7,2.9,5.77,6.646,10.686,12.285,14.009a7.169,7.169,0,0,1,2.345,2.3,141.654,141.654,0,0,0,13.412,16.758,16.913,16.913,0,0,1,4.25,8.478,13.069,13.069,0,0,0,3.866,7.47c4.057,3.851,5.786,8.618,6.213,14.056a21.975,21.975,0,0,0,9.485,16.966c2.16,1.535,4.487,2.832,6.645,4.368,7.338,5.221,13.669,11.582,20,17.93a41.025,41.025,0,0,1,9.709,14.5,11.868,11.868,0,0,0,5.594,6.374c.7.393,1.414.75,2.082,1.186,1.979,1.29,2.4,2.535,1.225,4.552a7.271,7.271,0,0,0-.67,5.785A127.011,127.011,0,0,0,254.845,364a10.627,10.627,0,0,0,8.207,6.766,28.311,28.311,0,0,0,11.922-.169,29.7,29.7,0,0,0,8.527-3.544,1.092,1.092,0,0,0-.711.01,4.848,4.848,0,0,0-.962.424,27.735,27.735,0,0,1-16.54,3.215c-5.26-.518-8.814-3.032-10.508-8.047-1.2-3.561-2.433-7.115-3.506-10.721-.757-2.546-.915-4.956.458-7.4.946-1.684.428-3.178-1.163-4.325a22.05,22.05,0,0,0-2.574-1.555,10.615,10.615,0,0,1-5.186-5.79c-2.8-7.408-7.865-13.222-13.5-18.573-1.921-1.824-3.933-3.575-5.839-5.413a87.487,87.487,0,0,0-15.743-12.248,21.642,21.642,0,0,1-10.886-17.881,21.187,21.187,0,0,0-6.431-14.315,12.086,12.086,0,0,1-3.521-6.679,19.054,19.054,0,0,0-4.755-9.4,132.109,132.109,0,0,1-11.733-14.471,20.861,20.861,0,0,0-5.835-5.743,27.781,27.781,0,0,1-8.993-10.335c-.65-1.243-1.257-2.511-1.912-3.753-5.049-9.576-10.332-19.037-14.61-29a65.748,65.748,0,0,1-5.731-25.05,46.866,46.866,0,0,1,1.427-11.908,5.819,5.819,0,0,0,.228-1.178c.011-.349.036-.755-.361-.9-.327-.115-.541.193-.744.4a7.755,7.755,0,0,0-1.144,1.758c-1.719,3.15-2.466,6.673-3.841,9.953a14.378,14.378,0,0,1-5.923,6.991,28.424,28.424,0,0,1-6.511,2.7c-4.845,1.471-9.724,2.833-14.461,4.644a8.53,8.53,0,0,0-3.5,2.5,49.619,49.619,0,0,1-7.536,7.321,32.275,32.275,0,0,1-22.806,6.85,36.443,36.443,0,0,0-17.5,2.57,11.26,11.26,0,0,1-1.111.459c-.575.172-.758-.078-.6-.616a2.054,2.054,0,0,1,.7-.964,20.523,20.523,0,0,1,4.862-3.241,23.827,23.827,0,0,1,10.572-1.852,33.3,33.3,0,0,0,10.258-1.244,23.122,23.122,0,0,0,6.41-2.914c.294-.193.619-.464.589-.817-.27.177-.439.291-.6.4a26.86,26.86,0,0,1-13.183,4.052" transform="translate(12.277 37.201)" fill="#394969"/>
        <path id="Path_926" data-name="Path 926" d="M392.068,140.493c-.984-4.29-1.916-8.59-2.574-12.947a292.735,292.735,0,0,1-2.532-31.13,18.816,18.816,0,0,1,1.423-8.81,5.493,5.493,0,0,0-.336-5.318c-.6-1.035-1.128-2.118-1.645-3.2-3.119-6.519-4.874-13.536-7.362-20.285a3.163,3.163,0,0,1,1.084-3.621,15.222,15.222,0,0,0,4.939-10.143c.365-4.417-.586-8.67-1.424-12.941-.174-.886-.337-1.867-1.462-2.033-1.181-.176-1.449.811-1.861,1.61a48.351,48.351,0,0,1-5.866,9.573c-.732.858-1.526,1.641-2.808,1.354-6.622-1.488-10.912-9.136-9.888-13.8.194-.885.483-1.942-.737-2.468-1.169-.5-1.919.193-2.586.971q-1.66,1.941-3.241,3.95a2.169,2.169,0,0,1-2.675.754c-5.7-2.118-10.3-5.2-12.188-11.568A16.7,16.7,0,0,0,328.505,8.675c-.38-.112-.834-.552-1.24-.123s-.036.832.147,1.235c.173.38.285.838-.049,1.126-.4.343-.734-.118-1.056-.292a20.016,20.016,0,0,0-3.453-1.437q-3.134-1.02-6.265-2.05c-.782-.257-1.6-1.269-2.206-.906-.966.581.379,1.464.208,2.277-.009.045-.056.082-.137.191a4.745,4.745,0,0,1-2.567-1.863c-.854-1.171-1.62-2.405-2.433-3.606A7.721,7.721,0,0,0,306.064.141c-.713-.294-.978-.146-1.121.595A7.782,7.782,0,0,0,306.2,6.16a21.362,21.362,0,0,1,2.058,3.928c.444-.6-.055-1.217-.345-1.754-.665-1.235-1.358-2.454-1.993-3.708a5.4,5.4,0,0,1-.572-2.761c.063-1.282.344-1.449,1.436-.822A9.449,9.449,0,0,1,309.8,4.524a11.937,11.937,0,0,0,2.886,3.616c.516.369,1.084.916,1.759.563.719-.375.179-1.082.217-1.64.006-.1.054-.187.277-.338,3.455,1.921,7.533,2.4,11.143,4.182,1.277.63,1.7.4,1.708-.945,0-.967.4-.981,1.1-.769a14.527,14.527,0,0,1,1.541.6c5.117,2.2,8.032,6.3,9.805,11.369a17.856,17.856,0,0,0,2.268,4.723c2.318,3.192,5.667,4.856,9.209,6.219,1.95.752,2.842.469,4.206-1.157,1.063-1.266,2.034-2.611,3.216-3.773a1.415,1.415,0,0,1,1.646-.413c.671.31.66.954.6,1.562a9.511,9.511,0,0,0-.182,2.537c.893,5.241,3.516,9.205,8.445,11.473,2.534,1.166,3.688.841,5.491-1.3,2.323-2.752,3.793-6.006,5.54-9.1.335-.6.543-1.428,1.447-1.271.828.144.963.942,1.128,1.621.225.925.364,1.87.574,2.8a37.337,37.337,0,0,1,.753,10.164,13.435,13.435,0,0,1-4.294,9.182,4.656,4.656,0,0,0-1.19,5.806c1.074,2.532,1.792,5.211,2.665,7.826a81.173,81.173,0,0,0,6.07,14.709,4.708,4.708,0,0,1,.353,4.215,24.408,24.408,0,0,0-1.565,11.02c.326,5.29.581,10.587.955,15.878a167.521,167.521,0,0,0,3.812,25.537c.526,2.3,2.29,3.823,3.259,5.829.031.063.177.043.28.014a9.876,9.876,0,0,0-2.349-3.709,2.139,2.139,0,0,1-.507-1.06" transform="translate(77.677 0.001)" fill="#394969"/>
        <path id="Path_927" data-name="Path 927" d="M244.341,343.6c-2.725-.978-3.9-3.249-4.949-5.708-1.8-4.2-3.887-8.292-3.363-13.082.065-.6.107-1.2.148-1.8a.954.954,0,0,0-.2-.749,17.385,17.385,0,0,0-.412,5.485c.32,3.57,2.019,6.657,3.3,9.906,1.156,2.943,2.669,5.425,5.811,6.535a.475.475,0,0,0-.333-.59" transform="translate(60.011 82.12)" fill="#394969"/>
        <path id="Path_928" data-name="Path 928" d="M252.136,95.986c-2.08.866-2.828,1.847-2.914,3.816,3.639-2.377,7.615-2.163,11.641-1.592a29.813,29.813,0,0,0,9.869.225c.359-.07.9-.614,1.171-.009.2.44-.331.782-.615,1.088a21.807,21.807,0,0,1-8.161,5.472c-6.042,2.352-12.405,3.49-18.714,4.793A15.764,15.764,0,0,1,232.4,107.9a4.508,4.508,0,0,0-1.715-.494,115.008,115.008,0,0,0-33.824-.311c-8.283,1.22-16.06,3.705-22.8,8.9-3.473,2.68-5.657,2.677-9.235.119a20.3,20.3,0,0,0-10.066-3.959c-4.9-.449-9.416.867-13.787,2.887a41.985,41.985,0,0,1-12.34,3.54,31.419,31.419,0,0,0-18.435,8.933c-4.13,4.051-7.043,8.951-9.911,13.895-2.562,4.419-5.108,8.851-8.6,12.64-4.94,5.361-10.892,8.727-18.334,8.524-7.126-.195-14.223.393-21.339.363a21.316,21.316,0,0,0-8.883,1.931c-3.01,1.346-6.633,4.024-7.706,5.841,6.4-2.039,12.4-5.939,19.42-2.994-.272.376-.685.381-1.073.477-3.59.895-7.208,1.7-10.761,2.723-13.09,3.783-23.089,11.35-28.589,24.09-1.69,3.919-3.51,7.627-6.966,10.331,1.643,1.625,3.138-.368,4.724-.051A23.659,23.659,0,0,1,3.34,215.676c.914.237,1.63.452,2.358.611,1.22.265,1.556.92,1.059,2.074a14.2,14.2,0,0,1-3.822,5.659c-.906.742-1.842,1.446-2.935,2.3,4.677.079,8.225-1.444,10.395-5.532.374-.706.767-1.4,1.146-2.109,1.28-2.372,2.286-4.906,4.054-6.991a10.271,10.271,0,0,1,6.218-3.643,28.021,28.021,0,0,0-4.583,8.4,24.146,24.146,0,0,1-3.266,5.871c.124.316.45.265.688.378a6.682,6.682,0,0,0,4.281-2.538,15.563,15.563,0,0,0,2.082-3.8,19.389,19.389,0,0,1,6.4-8.151c-.277-.119-.537.049-.78.176a6.541,6.541,0,0,0-1.408,1.119,24.529,24.529,0,0,0-5.338,8.284,7.453,7.453,0,0,1-5.083,4.54c-.132.051-.265.157-.388.152-.481-.024.1-.124-.016-.182a18.851,18.851,0,0,0,2.742-4.629,41.333,41.333,0,0,1,3.432-7.18,16.443,16.443,0,0,0,1.207-1.72c.344-.686.085-1.06-.681-1.052A3.013,3.013,0,0,0,20.1,208a12.633,12.633,0,0,0-6.817,6.47c-1.216,2.363-2.442,4.719-3.808,7-1.818,3.034-4.7,4.138-8.311,4.473a16.286,16.286,0,0,0,5.487-6.351c1.153-2.625.885-3.294-1.931-3.99-.115-.028-.178-.09-.193-.271a30.733,30.733,0,0,0,4.155-3.811,21.487,21.487,0,0,0,3.239-4.689c.291-.494.733-1.084.211-1.646-.437-.473-1.026-.231-1.556-.063a3.416,3.416,0,0,1-2.4.171c3.813-3.113,5.425-7.348,7.269-11.467a37.36,37.36,0,0,1,8.7-12.153,44.85,44.85,0,0,1,16.669-9.636c4.148-1.382,8.425-2.261,12.645-3.362.566-.148,1.4-.152,1.4-.876s-.838-.755-1.379-.934a14.63,14.63,0,0,0-8.3-.024c-2.978.749-5.745,2.074-8.9,3.2,4.181-3.791,8.653-6.4,14.123-6.511,4.207-.089,8.4-.545,12.617-.363a6.668,6.668,0,0,0,1.349-.1,27.824,27.824,0,0,1,6.9-.124A23.263,23.263,0,0,0,86.28,159.2c4.647-2.953,7.942-7.156,10.852-11.707,2.944-4.6,5.43-9.484,8.557-13.979,5.608-8.066,13.071-13.188,22.923-14.492a46.568,46.568,0,0,0,13.215-3.9c6.112-2.777,12.367-3.688,18.787-1A23.9,23.9,0,0,1,165.361,117a6.4,6.4,0,0,0,7.475.309,18.963,18.963,0,0,0,1.735-1.191,43.5,43.5,0,0,1,14.7-7.045,77.553,77.553,0,0,1,12.286-2.133,90.464,90.464,0,0,1,11.543-.555,99.9,99.9,0,0,1,13.028.866c2.209.356,4.554.129,6.587,1.305a16.131,16.131,0,0,0,11.069,1.748,142.168,142.168,0,0,0,15.817-3.665c4.49-1.3,8.653-3.21,11.832-6.8.379-.429,1.034-.838.671-1.517-.32-.6-.984-.365-1.511-.284a27.513,27.513,0,0,1-7.638.016c-1.739-.22-3.476-.482-5.221-.636a15.8,15.8,0,0,0-7.942,1.507,3.678,3.678,0,0,1,2.5-2.559,77.23,77.23,0,0,1,7.429-2.432c.545-.171,1.245-.216,1.414-.876-.65.211-1.124.368-1.594.512-2.482.759-5,1.419-7.4,2.419" transform="translate(0 23.713)" fill="#394969"/>
        <path id="Path_929" data-name="Path 929" d="M288.633,19.882c-5.013-1.233-8.691-3.935-10.075-9.169a3.54,3.54,0,0,0-1.338-1.945c-.4-.3-.9-.629-1.378-.437-.616.248-.272.883-.245,1.323a20.026,20.026,0,0,0,11.2,17.418c.04.014.083.025.124.038,0-.009.008-.011.01-.02-.453-1.009-1.512-1.266-2.315-1.817-5.766-3.955-8.432-9.486-8.587-16.478,1.536.459,2.009,1.625,2.409,2.818a11.506,11.506,0,0,0,4.507,6.206c3.21,2.126,6.859,2.961,10.607,3.465a1.7,1.7,0,0,0,.241-.084,2.466,2.466,0,0,1-.349-.187c-1.6-.376-3.212-.737-4.812-1.131" transform="translate(70.197 2.11)" fill="#394969"/>
        <path id="Path_930" data-name="Path 930" d="M306.964,8.647a.913.913,0,0,0,.22,1.1c.353.429,1.069.763.545,1.492a1.5,1.5,0,0,1-1.771.473c-3.793-1.154-7.407-2.572-9.263-6.507a3.029,3.029,0,0,0-2.678-1.9c-1.422-.083-1.661.213-1.3,1.617a12.02,12.02,0,0,0,1.393,3.142c.644,1.085,1.274,2.187,2.008,3.456a1.181,1.181,0,0,0-.04-.765,8.082,8.082,0,0,0-.768-1.462,17.538,17.538,0,0,1-1.841-3.438c-.2-.629-.8-1.446-.077-1.926.821-.55,1.612.056,2.266.651a2.613,2.613,0,0,1,.571.694c1.863,3.522,4.954,5.4,8.642,6.5.98.294,1.964.622,2.852-.124.961-.807.051-1.622-.213-2.528a5.869,5.869,0,0,1,2.151.246c.55.1,1.19.435,1.636-.021-1.225-.282-2.3-.528-3.37-.778-.334-.078-.728-.3-.96.077" transform="translate(74.551 0.84)" fill="#394969"/>
        <path id="Path_931" data-name="Path 931" d="M247.181,339.616a20.48,20.48,0,0,0-3.891.156H247.2a.718.718,0,0,1,.014-.156Z" transform="translate(61.995 86.537)" fill="#394969"/>
        <path id="Path_932" data-name="Path 932" d="M247.181,339.65h.035a.876.876,0,0,1,.01-.116c-1.31.112-2.663-.378-3.936.271a20.48,20.48,0,0,1,3.891-.156" transform="translate(61.995 86.503)" fill="#394969"/>
        <path id="Path_933" data-name="Path 933" d="M248.451,339.612h-1.942a.1.1,0,0,1-.005.073c-.033.055-.065.083-.1.083h2.107a.805.805,0,0,1,.011-.156Z" transform="translate(62.79 86.541)" fill="#394969"/>
        <path id="Path_934" data-name="Path 934" d="M246.427,339.52h0a.2.2,0,0,1,.078.115c.646,0,1.292,0,1.94,0h.075a.746.746,0,0,1,.008-.105l-2.1-.01" transform="translate(62.794 86.518)" fill="#394969"/>
        <path id="Path_935" data-name="Path 935" d="M246.51,339.612h-.088a.717.717,0,0,0-.014.156c.031,0,.063-.028.1-.083a.1.1,0,0,0,.006-.073" transform="translate(62.789 86.541)" fill="#394969"/>
        <path id="Path_936" data-name="Path 936" d="M246.419,339.635h.088a.2.2,0,0,0-.078-.115.879.879,0,0,0-.01.115" transform="translate(62.792 86.518)" fill="#394969"/>
        <path id="Path_937" data-name="Path 937" d="M284.681,23.255c-.226.324-.619.142-.9.3.856.152.856.152.9-.3" transform="translate(72.313 5.927)" fill="#394969"/>
        <path id="Path_938" data-name="Path 938" d="M284.2,23.762a2.9,2.9,0,0,0,1.117-.026.844.844,0,0,0-.616-.45.685.685,0,0,1-.5.477" transform="translate(72.419 5.935)" fill="#394969"/>
        <path id="Path_939" data-name="Path 939" d="M283.78,23.551a1.422,1.422,0,0,0,.523.217.685.685,0,0,0,.5-.476l-.124-.038c-.045.448-.045.448-.9.3" transform="translate(72.313 5.927)" fill="#394969"/>
        <path id="Path_940" data-name="Path 940" d="M290.3,18.43a.566.566,0,0,1-.163.139c.082.01.139-.028.163-.139" transform="translate(73.932 4.698)" fill="#394969"/>
        <path id="Path_941" data-name="Path 941" d="M290.382,18.487a.812.812,0,0,0,0-.281l-.587.276c.128.021.3.128.423.144a.566.566,0,0,0,.163-.139" transform="translate(73.846 4.641)" fill="#394969"/>
        <path id="Path_942" data-name="Path 942" d="M290.149,18.618c-.026.014-.048.031-.075.043a1.068,1.068,0,0,0,1.065-.1l-.73-.317a.5.5,0,0,1-.1.238c-.023.113-.082.149-.162.139" transform="translate(73.917 4.649)" fill="#394969"/>
        <path id="Path_943" data-name="Path 943" d="M290.263,18.487a.494.494,0,0,0,.1-.238l-.1-.043a.812.812,0,0,1,0,.281" transform="translate(73.965 4.641)" fill="#394969"/>
        <path id="Path_944" data-name="Path 944" d="M289.8,18.426a2.474,2.474,0,0,0,.349.187.713.713,0,0,0,.074-.043c-.126-.016-.294-.123-.423-.144" transform="translate(73.846 4.697)" fill="#394969"/>
        <path id="Path_945" data-name="Path 945" d="M11.216,196.069c-.232.089-.532.351-.414.471.341.345.75.174,1.1-.093-.358.109-.717.217-.688-.378" transform="translate(2.746 49.963)" fill="#394969"/>
        <path id="Path_946" data-name="Path 946" d="M11.127,196.069c-.029.595.33.487.688.378-.236-.113-.562-.061-.688-.378" transform="translate(2.835 49.963)" fill="#394969"/>
        <path id="Path_947" data-name="Path 947" d="M251.72,198.825c-.245.6-.488,1.208-.676,1.832a3.784,3.784,0,0,0,1.954,4.95,36.618,36.618,0,0,0,4.92,2.245,36.487,36.487,0,0,1,8.124,4.2,7.464,7.464,0,0,1,.959.723c.286.284.66.617.5,1.019-.21.511-.752.422-1.19.32a14.651,14.651,0,0,0-3.968-.838,12.311,12.311,0,0,0,3.879,2.453,22.777,22.777,0,0,1,5.688,3.015c1.128.956,1.175,1.4.161,2.437a4.375,4.375,0,0,1-4.51,1.387c-7.119-2-14.072-4.4-20.071-8.918a14.756,14.756,0,0,0-3.376-1.944,5.9,5.9,0,0,0-3.818-.176,46.184,46.184,0,0,0,3.581,3.426c5.614,4.544,12.221,6.994,19.016,9.046,4.844,1.463,9.735,2.774,14.506,4.473a5.189,5.189,0,0,1,1.517.639c.361.28.59.711.075.956-1.58.753-1.427,1.684-.413,2.788a.546.546,0,0,1,.065.57c.211.639.764,1.023,1.146,1.535.128-.789.823-.6,1.3-.717a1.756,1.756,0,0,0,1.4-1.719,6.838,6.838,0,0,0-1.83-5.666,14.157,14.157,0,0,0-1.043-1.082,1.707,1.707,0,0,1-.327-2.62,1.918,1.918,0,0,0-.132-2.605,55.725,55.725,0,0,0-16.216-14.334c-1.4-.785-2.787-1.577-4.122-2.468a8.551,8.551,0,0,1-3.975-5.935c-.186-1.2-.591-1.925-1.745-1.959a2.675,2.675,0,0,0-.317,0l-.934,1.576c.419.5.055.949-.123,1.39" transform="translate(61.231 49.909)" fill="#394969"/>
        <path id="Path_948" data-name="Path 948" d="M254.013,206.172c2.2,1.059,4.512,1.9,6.743,2.9a23.871,23.871,0,0,1,6.875,4.409c-2.022-.028-3.845-1.3-6.071-.823a14.167,14.167,0,0,0,5.18,3.339,24.787,24.787,0,0,1,5.162,2.712c.931.711.863,1.208.083,1.981-1.679,1.66-3.559,1.5-5.579.866-7.04-2.219-13.886-4.8-19.816-9.395a6.879,6.879,0,0,0-6.87-1.162,36.6,36.6,0,0,0,12.089,8.9c6.26,2.989,12.977,4.643,19.576,6.639a68.783,68.783,0,0,1,8.006,2.762c-2.7,1.181-2.774,1.572-.806,3.577.07.072.132.151.2.226a.547.547,0,0,0-.065-.57c-1.014-1.1-1.167-2.034.413-2.787.514-.245.285-.676-.077-.956a5.17,5.17,0,0,0-1.516-.64c-4.771-1.7-9.662-3.01-14.506-4.473-6.795-2.052-13.4-4.5-19.015-9.046a45.947,45.947,0,0,1-3.581-3.426,5.9,5.9,0,0,1,3.818.177,14.756,14.756,0,0,1,3.375,1.944c6,4.52,12.952,6.918,20.071,8.917a4.374,4.374,0,0,0,4.51-1.385c1.014-1.04.967-1.481-.161-2.437a22.783,22.783,0,0,0-5.688-3.017,12.307,12.307,0,0,1-3.879-2.452,14.6,14.6,0,0,1,3.967.838c.439.1.981.191,1.191-.321.164-.4-.21-.735-.5-1.018a7.494,7.494,0,0,0-.957-.724,36.54,36.54,0,0,0-8.124-4.2,36.7,36.7,0,0,1-4.92-2.244,3.783,3.783,0,0,1-1.954-4.95c.188-.624.432-1.228.676-1.832.178-.442.542-.888.123-1.392-.232.6-.454,1.213-.7,1.813-1.546,3.791-.96,5.476,2.723,7.245" transform="translate(61.086 50.23)" fill="#394969"/>
        <path id="Path_949" data-name="Path 949" d="M277.727,234.707c2.058-.073,2.438-.54,2.614-2.581.243-2.8-1.23-4.753-3.059-6.534-.732-.713-1.217-1.222-.236-2.157.9-.858.7-1.873-.048-2.825a55.308,55.308,0,0,0-15.2-13.854c-1.848-1.088-3.713-2.152-5.5-3.328a8.352,8.352,0,0,1-3.915-6.584c-.1-1.272-.445-1.684-1.62-.954a.5.5,0,0,1-.26.053c1.153.034,1.56.762,1.745,1.959a8.552,8.552,0,0,0,3.974,5.935c1.336.891,2.724,1.683,4.122,2.467a55.728,55.728,0,0,1,16.216,14.335,1.918,1.918,0,0,1,.133,2.605,1.705,1.705,0,0,0,.327,2.62,14.148,14.148,0,0,1,1.042,1.082,6.834,6.834,0,0,1,1.829,5.665,1.755,1.755,0,0,1-1.394,1.719c-.482.119-1.177-.073-1.3.716.048-.327.275-.33.542-.34" transform="translate(63.831 49.826)" fill="#394969"/>
        <path id="Path_950" data-name="Path 950" d="M302.1,188.445a4.729,4.729,0,0,0,.119,2.087c.148-.961.257-1.675.366-2.389-.088.218-.134.507-.486.3" transform="translate(76.964 47.944)" fill="#394969"/>
        <path id="Path_951" data-name="Path 951" d="M302.571,188.143l-.486.3c.351.2.4-.083.486-.3" transform="translate(76.977 47.944)" fill="#394969"/>
        <path id="Path_952" data-name="Path 952" d="M234.818,204.087l-.626-.286c-.029.476-.029.476.626.286" transform="translate(59.674 51.934)" fill="#394969"/>
        <path id="Path_953" data-name="Path 953" d="M235.02,204.087c-.655.189-.655.189-.626-.286l-1,.414a1.57,1.57,0,0,0,1.63-.128" transform="translate(59.472 51.934)" fill="#394969"/>
        <path id="Path_954" data-name="Path 954" d="M314.911,80.293a1.022,1.022,0,0,0-.01-1.087c-.179.463-.218.774.01,1.087" transform="translate(80.205 20.184)" fill="#394969"/>
        <path id="Path_955" data-name="Path 955" d="M274.76,165.763c2.2,6.257,5.929,11.912,7.385,18.481a1.6,1.6,0,0,0,1.942,1.266,2.013,2.013,0,0,0,1.855-1.7,8.783,8.783,0,0,0,.088-1.949,79.952,79.952,0,0,1,1.954-19.527,119.029,119.029,0,0,0,2.88-20.356c-.071-1.148-.094-2.3-.231-3.442a1.38,1.38,0,0,0-1.407-1.309,1.291,1.291,0,0,0-1.405,1.272c-.749,5.328-4.269,7.875-9.09,9.151-1.448.384-2.911.74-4.32,1.244a3.561,3.561,0,0,0-2.623,3.9,49.693,49.693,0,0,0,2.973,12.967" transform="translate(69.253 34.97)" fill="#394969"/>
        <path id="Path_956" data-name="Path 956" d="M250.207,150.714c2.835,2.934,6.166,5.268,9.291,7.851a27.5,27.5,0,0,1,6.81,7.727c.364.655.789,1.378,1.747,1,.929-.365.779-1.161.67-1.917a2.942,2.942,0,0,0-.039-.3,20.609,20.609,0,0,0-3.444-7.592c-2.019-2.678-4.042-5.356-5.96-8.1-6.056-8.681-10.931-17.931-13.016-28.418a15.188,15.188,0,0,0-6.191-9.592,84.863,84.863,0,0,1-.614,15.062,16.08,16.08,0,0,0,.558,7.984,46.9,46.9,0,0,0,10.189,16.3" transform="translate(60.957 28.381)" fill="#394969"/>
        <path id="Path_957" data-name="Path 957" d="M146.488,162.417c-1-8.637-.469-17.083,3.219-25.125.872-1.9,1.766-3.806,2.482-5.771a2.727,2.727,0,0,0-1.955-3.628c-1.472-.405-2.319.6-3.21,1.482-3.643,3.631-6.455,7.9-9.32,12.127a8.942,8.942,0,0,0-1.645,6.84,39.011,39.011,0,0,0,.98,7.4,57.375,57.375,0,0,0,8.486,20.661,1.865,1.865,0,0,0,2.57.822c1.021-.484,1-1.316.747-2.3a93.946,93.946,0,0,1-2.354-12.516" transform="translate(34.634 32.567)" fill="#394969"/>
        <path id="Path_958" data-name="Path 958" d="M246.8,107.695a27.841,27.841,0,0,0,1.679,9.549,36.823,36.823,0,0,1,2.225,11.588,6.429,6.429,0,0,0,2.786,5.209c4.264,3.224,8.824,6.1,12.27,10.3a1.152,1.152,0,0,0,1.584.4c.6-.381.422-.966.26-1.487-.873-2.812-1.713-5.637-2.67-8.42a17.593,17.593,0,0,0-3.757-6.422,25.952,25.952,0,0,1-7.036-16.022c-.525-6.043-2.626-11.367-7.559-15.768.307,3.913.21,7.491.22,11.07" transform="translate(62.834 24.623)" fill="#394969"/>
        <path id="Path_959" data-name="Path 959" d="M301.374,56.556a4.464,4.464,0,0,0,1.355-.615,60.73,60.73,0,0,1,8.658-4.411,23.228,23.228,0,0,1,13.3-1.863c5.014.8,7.579-.744,9.622-5.16.521-1.127.21-1.734-.929-1.946a36.828,36.828,0,0,0-6.474-.591c-1.282.092-2.185.123-3.077.23-.942.112-1.883.255-2.811.453-8.222,1.762-14.719,6.476-20.682,12.1-.423.4-.758.839-.43,1.444.344.632.959.476,1.467.356" transform="translate(76.388 10.696)" fill="#394969"/>
        <path id="Path_960" data-name="Path 960" d="M227.259,162.184c-.192,2.605-.989,5.1-1.2,7.692a5.043,5.043,0,0,0,0,.6c.094.778-.01,1.684,1.01,1.961.96.261,1.319-.519,1.74-1.117q2.377-3.373,4.723-6.768a7.6,7.6,0,0,0,.78-8.095,77.085,77.085,0,0,1-5.743-17.142,4.867,4.867,0,0,0-1.134-2.247c-.665-.73-.951-.582-1.232.312a18.859,18.859,0,0,0-.433,9.923,51.138,51.138,0,0,1,1.487,14.88" transform="translate(57.412 34.81)" fill="#394969"/>
        <path id="Path_961" data-name="Path 961" d="M253.663,132.986c-.791.528-.558,1.2-.227,1.855,1.628,3.2,3.087,6.495,4.925,9.591a26.64,26.64,0,0,0,7.36,8.414,4.558,4.558,0,0,0,2.616,1.025,2.127,2.127,0,0,0,1.541-.456,13.7,13.7,0,0,0,3.571-4.392,2,2,0,0,0-.553-2.582,19.71,19.71,0,0,0-1.8-1.333c-5.472-3.6-11.162-6.907-15.72-11.731-.471-.5-1-.861-1.709-.39" transform="translate(64.502 33.833)" fill="#394969"/>
        <path id="Path_962" data-name="Path 962" d="M268.437,160.644c-.044.267-.1.493-.118.722-.3,3.717-2.272,6-5.8,7.173a35.835,35.835,0,0,0-5.748,2.556c-4.133,2.245-5.383,6.205-3.4,10.343.78,1.631,1.929,1.956,3.186.663a86.1,86.1,0,0,1,12.36-10.01c3.851-2.727,3.564-8.764-.474-11.446" transform="translate(64.328 40.936)" fill="#394969"/>
        <path id="Path_963" data-name="Path 963" d="M276.741,135.331a25.819,25.819,0,0,0,5.382-5.825c3.628-5.412,5.378-11.692,8.115-17.516a.839.839,0,0,0-.12-1.1,1.192,1.192,0,0,0-1.41-.084,6.064,6.064,0,0,0-2.028,1.974c-.713,1.088-1.39,2.2-2.1,3.289a30.742,30.742,0,0,1-9.53,9.638c-1.517.941-2.876,2.07-2.787,4.017-.016,1.968,1.006,3.439,1.791,4.988.851,1.681,1.257,1.762,2.689.62" transform="translate(69.377 28.188)" fill="#394969"/>
        <path id="Path_964" data-name="Path 964" d="M343.428,82.892c2.548,3.409,6.007,5.793,9.308,8.542a4,4,0,0,0-.536-4.082q-4.043-6.125-8.119-12.226a5.539,5.539,0,0,0-.877-1.014,1.674,1.674,0,0,0-2.2-.171,1.47,1.47,0,0,0-.6,1.837,21.521,21.521,0,0,0,3.017,7.114" transform="translate(86.718 18.759)" fill="#394969"/>
        <path id="Path_965" data-name="Path 965" d="M273.1,198.189c1.722.1,2.216-.493,1.671-2.151a10.182,10.182,0,0,1,.676-7.969c.551-1.114,1.21-2.177,1.818-3.264a4.2,4.2,0,0,0,.749-2.535,1.34,1.34,0,0,0-1.1-1.256c-.713-.161-.949.344-1.141.9a3.778,3.778,0,0,1-1.005,1.626c-1.212,1.116-2.365,2.3-3.517,3.473a7.983,7.983,0,0,0-2.334,5.815c.024,3.313,1.506,5.214,4.181,5.361" transform="translate(68.525 46.119)" fill="#394969"/>
        <path id="Path_966" data-name="Path 966" d="M286.776,185.1a86.333,86.333,0,0,1-1.259,11.907c-.344,1.912-.807,3.8-1.182,5.709-.124.632-.216,1.308.476,1.745a1.26,1.26,0,0,0,1.545-.018c1.269-1.03,2.547-1.993,2.875-3.832a25.614,25.614,0,0,0,.122-8.937,24.5,24.5,0,0,0-2.251-7.129c-.389.144-.319.38-.325.553" transform="translate(72.432 47.028)" fill="#394969"/>
        <path id="Path_967" data-name="Path 967" d="M312.332,223.128a5.812,5.812,0,0,0,.747,3.01c2.387,5.073,6.216,9.095,9.672,13.468a1.386,1.386,0,0,0,.049-1.227,60.044,60.044,0,0,0-7.477-16.062c-.422-.614-.9-1.079-1.733-.842a1.675,1.675,0,0,0-1.257,1.653" transform="translate(79.585 56.422)" fill="#394969"/>
      </g>
    </g>
    <g id="Group_307" data-name="Group 307" transform="translate(133.385 504.782)">
      <path id="Path_215" data-name="Path 215" d="M95.637,62.54l2.7,9.724h.035L101.1,62.54h2.2l2.716,9.707h.035L108.7,62.54h1.986l-3.53,12.421h-2.218l-2.717-9.723h-.035l-2.732,9.723H97.233L93.667,62.54Z" transform="translate(-24.434 0.364)" fill="#fff"/>
      <path id="Path_216" data-name="Path 216" d="M124.845,73.257v1.7h-7.914V62.54h7.7v1.7h-5.785V67.65h5.358v1.7h-5.358v3.9Z" transform="translate(-24.298 0.364)" fill="#fff"/>
      <path id="Path_217" data-name="Path 217" d="M132.528,74.961h-2l5.2-12.421h2.023l5.164,12.421h-2.024l-1.207-2.892h-5.926Zm4.187-10.309-2.271,5.731h4.542l-2.236-5.731Z" transform="translate(-24.219 0.364)" fill="#fff"/>
      <path id="Path_218" data-name="Path 218" d="M148.987,74.961V62.54H150.9V73.257h5.147v1.7Z" transform="translate(-24.112 0.364)" fill="#fff"/>
      <path id="Path_219" data-name="Path 219" d="M159.929,62.54h9.581v1.7h-3.833V74.961h-1.916V64.244h-3.832Z" transform="translate(-24.048 0.364)" fill="#fff"/>
      <path id="Path_220" data-name="Path 220" d="M175.8,74.961V62.54h1.916v5.128h5.59V62.54h1.916V74.961h-1.916V69.37h-5.59v5.59Z" transform="translate(-23.956 0.364)" fill="#fff"/>
      <path id="Path_221" data-name="Path 221" d="M201.649,62.54h2.218l3.976,9.263h.035l3.956-9.263h2.219V74.961h-1.916V65.929H212.1l-3.372,8.286h-1.74l-3.39-8.286h-.035v9.031h-1.916Z" transform="translate(-23.806 0.364)" fill="#fff"/>
      <path id="Path_222" data-name="Path 222" d="M222.146,74.961h-2l5.2-12.421h2.023l5.164,12.421H230.5L229.3,72.069H223.37Zm4.187-10.309-2.271,5.731H228.6l-2.236-5.731Z" transform="translate(-23.698 0.364)" fill="#fff"/>
      <path id="Path_223" data-name="Path 223" d="M238.605,74.961V62.54h2.289l6.566,9.9h.035v-9.9h1.917V74.961h-2.289l-6.567-9.883h-.035v9.883Z" transform="translate(-23.591 0.364)" fill="#fff"/>
      <path id="Path_224" data-name="Path 224" d="M257.5,74.961h-2l5.2-12.421h2.023l5.164,12.421h-2.024l-1.207-2.892h-5.926Zm4.187-10.309-2.271,5.731h4.542l-2.236-5.731Z" transform="translate(-23.493 0.364)" fill="#fff"/>
      <g id="Group_230" data-name="Group 230" transform="translate(61 0.001)">
        <g id="Group_229" data-name="Group 229" clip-path="url(#clip-path-2)">
          <path id="Path_225" data-name="Path 225" d="M282.437,65.221a4.592,4.592,0,0,0-3.283-1.155,4.688,4.688,0,0,0,0,9.37,10.637,10.637,0,0,0,2.715-.32V68.769h1.916v5.643a14,14,0,0,1-4.631.762,6.426,6.426,0,1,1,4.489-11.214Z" transform="translate(-84.393 0.362)" fill="#fff"/>
          <path id="Path_226" data-name="Path 226" d="M298.906,73.257v1.7h-7.914V62.54h7.7v1.7h-5.785V67.65h5.358v1.7h-5.358v3.9Z" transform="translate(-84.286 0.363)" fill="#fff"/>
          <path id="Path_227" data-name="Path 227" d="M305.709,62.54h2.218L311.9,71.8h.035l3.956-9.263h2.219V74.961H316.2V65.929h-.035l-3.371,8.286h-1.74l-3.39-8.286h-.035v9.031h-1.916Z" transform="translate(-84.201 0.363)" fill="#fff"/>
          <path id="Path_228" data-name="Path 228" d="M333.646,73.257v1.7h-7.914V62.54h7.7v1.7h-5.786V67.65h5.358v1.7h-5.358v3.9Z" transform="translate(-84.084 0.363)" fill="#fff"/>
          <path id="Path_229" data-name="Path 229" d="M340.448,74.961V62.54h2.289l6.566,9.9h.035v-9.9h1.917V74.961h-2.289L342.4,65.078h-.035v9.883Z" transform="translate(-83.999 0.363)" fill="#fff"/>
          <path id="Path_230" data-name="Path 230" d="M357.548,62.54h9.581v1.7H363.3V74.961H361.38V64.244h-3.832Z" transform="translate(-83.899 0.363)" fill="#fff"/>
          <path id="Path_231" data-name="Path 231" d="M94.246,29.927a.734.734,0,0,1,.661.413c1.035,2.521,3.1,6.9,9.052,6.9,4.173,0,6.86-2.4,6.86-5.91,0-5.579-7.191-5.248-12.563-8.472-2.357-1.405-3.762-3.265-3.762-6.075,0-4.918,3.967-8.1,9.587-8.1,2.645,0,5.373,1.363,5.951,1.363.247,0,.661-.33.952-.33.247,0,.578.124.619.33.331,1.9.869,5.042.869,5.62,0,.868-.331,1.158-.578,1.158-.331,0-.456-.206-.579-.578a7.75,7.75,0,0,0-2.727-3.885,8.136,8.136,0,0,0-5.415-1.983c-3.264,0-6.034,1.695-6.034,4.588,0,6.612,9.588,4.794,14.673,10.249a6.3,6.3,0,0,1,1.653,4.422c0,5.951-4.38,9.423-9.63,9.423-3.512,0-5.578-.207-8.141-1.571-.869-.5-2.026-6.323-2.026-6.695,0-.62.29-.868.578-.868" transform="translate(-85.434 0.05)" fill="#fff"/>
          <path id="Path_232" data-name="Path 232" d="M118.536,9.177c1.157,0,2.357.165,4.671.165,1.941,0,.785-.082,3.884-.082.371,0,.867.041.867.578,0,1.405-2.893-1.239-2.893,4.712v1.157c0,3.6-.04,6.489-.04,8.927,0,5.662,0,12.729,9.587,12.729,4.629,0,10.7-.041,10.7-12.233,0-7.026-.04-7.026-.04-8.762,0-2.231-.042-4.545-1.488-5.537-.992-.7-2.562-.248-2.562-.909,0-.331.165-.662.826-.662.5,0,2.728.082,3.181.082,1.736,0,2.728-.124,3.514-.124.867,0,.867.331.867.537,0,.662-1.529.909-1.984,1.777a4.972,4.972,0,0,0-.454,2.728c0,.7.04,1.529.04,2.769,0,15.787-1.61,19.217-6.695,21.367a19.965,19.965,0,0,1-5.909.908c-5.041,0-7.811-.826-9.8-2.644-3.306-3.017-3.346-6.778-3.346-15.25v-.7c0-2.851.082-4.67.082-5.951,0-2.851-.247-3.843-3.058-4.257-.869-.124-.909-.578-.909-.786,0-.289,0-.537.949-.537" transform="translate(-85.295 0.053)" fill="#fff"/>
          <path id="Path_233" data-name="Path 233" d="M169.251,8.807a17.231,17.231,0,0,1,10.29,2.934c.289,0,.827-.62,1.157-.62.414,0,.62.372.62.827.082,2.728.578,5.248.578,5.744,0,.661-.331.7-.5.7a.855.855,0,0,1-.7-.5,13.8,13.8,0,0,0-11.819-7.48c-6.612,0-11.9,4.34-11.9,12.234,0,7.48,4.5,14.877,12.274,14.877,4.3,0,8.265-2.272,8.637-4.752.041-.33.124-3.512.124-5.207a3.134,3.134,0,0,0-.7-2.314,2.975,2.975,0,0,0-1.819-.661c-.826-.082-1.53-.082-1.53-.909,0-.248.165-.455.744-.455,1.034,0,3.554.206,4.588.206,1.9,0,3.8-.041,3.926-.041.165,0,.661.041.661.372,0,.661-2.024.661-2.231,1.9a30.162,30.162,0,0,0-.289,4.629,36.547,36.547,0,0,0,.205,4.629c0,.5-1.157.331-2.6,1.115-.5.29-4.752,3.182-9.34,3.182-12.481,0-16.532-7.232-16.532-14.3,0-8.8,5.578-16.118,16.159-16.118" transform="translate(-85.088 0.051)" fill="#fff"/>
          <path id="Path_234" data-name="Path 234" d="M187.371,37.408c2.4-.909,2.106-1.736,14.381-27.855.371-.827.579-.95,1.24-.95.867,0,.331.082,2.975,6.653,1.942,4.795,7.77,18.309,8.1,18.97,2.066,4.174,4.586,2.273,4.586,3.761,0,.207-.083.62-1.115.62-.952,0-2.562-.247-3.72-.247-1.488,0-2.644.165-3.844.165-1.736,0-1.983-.082-1.983-.578,0-.909,2.066-.372,2.066-1.942,0-1.323-1.9-6.282-2.768-7.852-.165-.331-.331-.7-1.695-.7-.867,0-2.314.082-5,.082H198.4c-2.562,0-2.728.206-3.181,1.2-1.488,3.141-2.644,5.291-2.644,6.447,0,2.851,3.058,1.529,3.058,2.81,0,.331-.042.578-.7.578s-1.983-.041-3.43-.041c-1.612,0-2.644.166-3.554.166-.744,0-1.2-.083-1.2-.5a.8.8,0,0,1,.622-.786M199.23,25.34h1.282c1.819,0,3.925-.041,3.925-.041,1.074,0,1.613-.207,1.613-.662,0-.5-3.8-9.67-4.589-9.67-.536,0-4.339,9.092-4.339,9.587,0,.744.371.786,2.107.786" transform="translate(-84.892 0.049)" fill="#fff"/>
          <path id="Path_235" data-name="Path 235" d="M222.346,9.1h6.861c1.775,0,2.685-.125,4.132-.125,4.711,0,9.01,2.522,9.01,6.943,0,6.116-5.167,7.233-5.167,7.894s6.53,9.795,8.225,11.572a5.355,5.355,0,0,0,3.8,1.942.547.547,0,0,1,.579.5c0,.7-.083,1.033-3.059,1.033a8.475,8.475,0,0,1-3.555-.95c-2.191-1.28-5.29-6.489-7.4-9.918-1.736-2.81-2.563-3.224-3.059-3.224h-3.389c-.62,0-.7,0-.7,2.934,0,5.828.04,5.249.04,5.828,0,5,5.084,3.265,5.084,4.629,0,.413-.165.661-.743.661-.166,0-5.5-.289-5.911-.289-1.983,0-4.091.165-4.546.165-.413,0-.867-.124-.867-.661,0-1.447,3.472.371,3.472-4.174,0-2.645.04-8.431.04-13.018,0-4.34-.04-5.869-.04-6.984,0-4.464-4.01-2.81-4.01-4.092,0-.537.331-.661,1.2-.661m6.612,13.72a2.985,2.985,0,0,0,1.776.372h1.612c5.042,0,6.53-2.81,6.53-5.745,0-2.851-2.108-6.777-8.06-6.777-2.107,0-2.19.827-2.19,4.546v1.157c0,5.414,0,6.241.331,6.447" transform="translate(-84.692 0.052)" fill="#fff"/>
          <path id="Path_236" data-name="Path 236" d="M252.8,9.054c.331,0,.7.082,1.115.082.993,0,1.944.166,3.6.166,2.232,0,3.595-.166,4.338-.166.539,0,.7.082.7.413,0,1.777-3.1-.537-3.389,4.464-.126,2.562-.331,16.82-.331,17.275v1.653c0,1.364.289,3.059.992,3.265a4.651,4.651,0,0,0,1.776.331c13.184,0,11.654-3.927,12.853-3.927.248,0,.5.207.5.7,0,2.479-3.223,5.414-4.876,5.414-5.29,0-8.844-.413-11.366-.413-2.272,0-3.141.33-5.165.33-.827,0-1.2-.206-1.2-.5a.7.7,0,0,1,.661-.661,1.95,1.95,0,0,0,1.2-.413c.909-.7,1.405-1.777,1.405-8.1V23.85c0-2.273.123-4.588.123-7.15,0-1.2-.04-2.438-.082-3.761-.082-1.735-1.736-2.521-3.346-2.562-.578,0-.621-.248-.621-.578,0-.621.786-.744,1.116-.744" transform="translate(-84.515 0.052)" fill="#fff"/>
          <path id="Path_237" data-name="Path 237" d="M294.467,8.685c12.481,0,15.623,9.422,15.623,13.638,0,11.613-7.15,16.861-16.2,16.861-10.249,0-15.415-7.233-15.415-14.672,0-8.885,5.457-15.827,15.992-15.827m.745,28.681c4.587,0,11.488-3.637,11.488-11.241,0-10.414-6.365-15.787-13.639-15.787-5.537,0-10.95,3.637-10.95,12.068,0,5.248,3.76,14.96,13.1,14.96" transform="translate(-84.359 0.05)" fill="#fff"/>
          <path id="Path_238" data-name="Path 238" d="M312.178,37.408c2.4-.909,2.108-1.736,14.381-27.855.373-.827.579-.95,1.24-.95.869,0,.331.082,2.975,6.653,1.944,4.795,7.77,18.309,8.1,18.97,2.066,4.174,4.589,2.273,4.589,3.761,0,.207-.083.62-1.117.62-.949,0-2.562-.247-3.719-.247-1.488,0-2.644.165-3.842.165-1.736,0-1.983-.082-1.983-.578,0-.909,2.066-.372,2.066-1.942,0-1.323-1.9-6.282-2.77-7.852-.165-.331-.33-.7-1.693-.7-.869,0-2.314.082-5,.082h-2.19c-2.562,0-2.728.206-3.183,1.2-1.488,3.141-2.644,5.291-2.644,6.447,0,2.851,3.058,1.529,3.058,2.81,0,.331-.04.578-.7.578s-1.983-.041-3.431-.041c-1.611,0-2.645.166-3.555.166-.744,0-1.2-.083-1.2-.5a.8.8,0,0,1,.62-.786M324.039,25.34h1.28c1.818,0,3.927-.041,3.927-.041,1.074,0,1.611-.207,1.611-.662,0-.5-3.8-9.67-4.587-9.67-.538,0-4.34,9.092-4.34,9.587,0,.744.372.786,2.108.786" transform="translate(-84.167 0.049)" fill="#fff"/>
          <path id="Path_239" data-name="Path 239" d="M347.029,9.013h1.116c2.85,0,2.728.248,8.968.248,5.5,0,5.249-.207,9.382-.207.288,0,.7.124.7.992,0,.827-.331,2.108-.578,4.215-.04.5-.289.827-.619.827s-.579-.248-.579-.827c0-1.446-.5-2.769-1.9-2.851-3.637-.289-5.95-.5-7.439-.5-2.852,0-2.686.7-2.77,2.645-.082,1.488-.123,5-.123,6.9,0,.743,0,2.025.744,2.066.371,0,.743.041,1.032.041.621,0,1.116-.041,1.778-.041h1.28c3.553,0,3.967-.207,4.753-.744a1.93,1.93,0,0,0,.578-.578c.536-.827.165-1.653.992-1.653.5,0,.536.165.536.661,0,.744-.371,1.983-.371,3.43,0,1.405.289,2.6.289,3.39,0,.992-.247,1.033-.578,1.033-.62,0-.785-.455-.867-1.033-.125-.744-.125-1.654-.909-1.984a17.722,17.722,0,0,0-4.01-.578h-3.594c-.869,0-1.7.124-1.7.786,0,2.356-.083,3.637-.083,5.95,0,.579-.04,1.116-.04,1.654,0,1.074.33,4.3,3.306,4.3.949,0,1.24.455,1.24.744,0,.206-.208.786-1.283.786-1.28,0-2.934-.331-4.008-.331-2.274,0-2.975.247-5,.247-.413,0-.827,0-.827-.455,0-.743.082-.661,1.778-1.28,1.775-.621,1.528-3.348,1.61-13.1,0-2.273.125-4.629.125-7.192v-2.4c0-1.323-.165-2.81-1.943-3.637-.909-.455-2.066.041-2.066-.826,0-.125.125-.7,1.074-.7" transform="translate(-83.967 0.052)" fill="#fff"/>
          <rect id="Rectangle_176" data-name="Rectangle 176" width="274.996" height="0.436" transform="translate(8.233 50.577)" fill="#fff"/>
        </g>
      </g>
    </g>
  </g>
</svg>
