<svg xmlns="http://www.w3.org/2000/svg" width="57.391" height="59.67" viewBox="0 0 57.391 59.67">
  <g id="Group_322" data-name="Group 322" transform="translate(-10803.026 8504.001)">
    <path id="Path_240" data-name="Path 240" d="M56.348,40.709a5.129,5.129,0,0,0-.361-.428,26.675,26.675,0,0,1-2.07-2.645c-.564-.784-1.146-1.594-1.8-2.363q-.891-1.033-1.675-2.079a76.567,76.567,0,0,1-5.584-8.874l-.515-.918c-1.618-2.9-3.294-5.894-5.919-8.089a6.025,6.025,0,0,0-.642-.44c-.113-.069-.283-.176-.42-.271.073-.158.17-.346.239-.48a5.315,5.315,0,0,0,.49-1.156A11.994,11.994,0,0,0,38.36,9.68l0-.217c-.011-.84-.041-3.392-2.114-3.392-1.195.006-2.271,1.122-3.455,2.469-.14.159-.26.3-.355.4l-2.518,2.649c-.069.074-.2.21-.217.226a1.456,1.456,0,0,1-.238,0c-.329-.106-.659-.2-.993-.281l-.055-.019a20.235,20.235,0,0,0-3.146-.671c-1.116-.158-2.241-.254-3.367-.3-1.368-.057-2.728-.006-4.1.049-.265.011-.532.021-.8.042-.579.048-1.155.123-1.735.161a7.609,7.609,0,0,1-1.556-.037A15.664,15.664,0,0,1,9.376,9.673a7.081,7.081,0,0,0,2.931,2.869c.719.378,1.342.328,1.889.891a.464.464,0,0,1,.14.241c-.321-.087-.646-.161-.973-.226-.311-.062-.624-.117-.938-.162a5.617,5.617,0,0,0-1.109-.092,3.3,3.3,0,0,0-.495.061c-.388.086-.778.169-1.159.285-.111.034-.195.065-.286.089-2.588.9-4.93,1.1-6.725-.245a4.351,4.351,0,0,0,2.4,2.341,18.418,18.418,0,0,1-2.518,1.284,69.454,69.454,0,0,1-.084-8.341A38.11,38.11,0,0,1,8.811,5.652,53.919,53.919,0,0,1,27.623,2.346C41.511,2.349,50.7,7.391,52.8,8.67a71.469,71.469,0,0,1-1.952,20.612c-.064.253-.151.482-.217.733.447.659.916,1.317,1.409,1.97.12.159.242.295.361.448.253-.847.5-1.7.723-2.579A73.346,73.346,0,0,0,55.1,7.9l-.049-.552L54.6,7.032C54.181,6.744,44.221,0,27.623,0S1.068,6.744.651,7.032L.2,7.344l-.049.547A70.908,70.908,0,0,0,.691,22.36c.063.462.128.927.2,1.4.1.622.218,1.264.336,1.9.054.29.094.57.152.863.207,1.06.446,2.14.718,3.231A48.245,48.245,0,0,0,9.935,47.045a35.272,35.272,0,0,0,7.733,7.641c.255.185.527.348.787.525.407.276.808.561,1.228.819.349.216.71.412,1.067.616a36.225,36.225,0,0,0,6.5,2.9l.37.122.371-.122A34.976,34.976,0,0,0,41.886,51c-.04-.041-.085-.076-.126-.117q-.334-.343-.639-.724l-.377-.2-.737-.4a32.608,32.608,0,0,1-12.384,7.639,33.629,33.629,0,0,1-6.088-2.807l1.449-4.171Q24.47,45.96,25.936,41.7a9.85,9.85,0,0,0,5.928,2.381,13.414,13.414,0,0,0,2.27-.1,6.127,6.127,0,0,1,2.909.12A15.783,15.783,0,0,1,40.3,46.316a15.974,15.974,0,0,0,1.517,1.035,9.177,9.177,0,0,1,1.8,1.329,2.177,2.177,0,0,1,.2.321,6.39,6.39,0,0,0,4.838,3.6c2.657.377,4.245-1.583,5.508-3.155a11.765,11.765,0,0,1,1.408-1.567,5.308,5.308,0,0,0,.785-7.168m-2.342,5.329a13.574,13.574,0,0,0-1.73,1.895c-1.226,1.526-2.034,2.448-3.3,2.279a3.95,3.95,0,0,1-3.071-2.4,3.671,3.671,0,0,0-.518-.764,10.806,10.806,0,0,0-2.29-1.74,14.028,14.028,0,0,1-1.413-.974A17.233,17.233,0,0,0,38.032,41.9a8.016,8.016,0,0,0-4.14-.32,11.6,11.6,0,0,1-1.859.093c-1.786-.126-4.67-1.04-5.3-3.045l-1.107-3.534L24.442,38.6c-1.221,3.614-2.478,7.218-3.734,10.822l-1.235,3.549a60.148,60.148,0,0,1-7.634-7.3A45.839,45.839,0,0,1,4.391,29.254C4,27.7,3.684,26.166,3.424,24.676c-.076-.441-.132-.863-.2-1.3.178-.143.343-.292.525-.433A41.96,41.96,0,0,1,7.5,20.366a43.133,43.133,0,0,1,11.621-4.992,34.4,34.4,0,0,1,5.766-1.02,27.661,27.661,0,0,1,4.28-.144,3.056,3.056,0,0,0,1.4-.147,3.1,3.1,0,0,0,1.1-.814l2.518-2.65c.112-.118.255-.28.42-.467.25-.284.881-1,1.314-1.394.027.285.031.608.033.754l.006.283a9.76,9.76,0,0,1-.208,2.632,5.757,5.757,0,0,1-.288.608,3.664,3.664,0,0,0-.6,1.95c.1.994.992,1.55,1.646,1.955a3.469,3.469,0,0,1,.369.241c2.284,1.909,3.847,4.708,5.359,7.414l.52.927a78.336,78.336,0,0,0,5.76,9.143c.556.736,1.145,1.474,1.77,2.2.587.687,1.115,1.422,1.673,2.2a29.144,29.144,0,0,0,2.27,2.886,2.669,2.669,0,0,1,.193.229l0,.006a2.9,2.9,0,0,1-.419,3.873" transform="translate(10803.026 -8504.001)" fill="#fff"/>
  </g>
</svg>
