<svg xmlns="http://www.w3.org/2000/svg" width="452.425" height="470.376" viewBox="0 0 452.425 470.376">
  <g id="Group_143" data-name="Group 143" transform="translate(-724.406 -2898.12)">
    <g id="Group_119" data-name="Group 119" transform="translate(724.406 2898.12)">
      <path id="Path_29" data-name="Path 29" d="M444.2,320.922c-.9-1.173-1.864-2.325-2.848-3.372-5.885-6.325-10.954-13.383-16.315-20.86-4.44-6.178-9.027-12.566-14.221-18.64-4.67-5.424-9.069-10.912-13.195-16.4-18.012-23.813-31.835-48.317-44.024-69.973l-4.063-7.247c-12.755-22.85-25.97-46.474-46.663-63.753a48.458,48.458,0,0,0-5.068-3.456c-.9-.545-2.22-1.382-3.309-2.136.565-1.257,1.34-2.723,1.885-3.791a41.292,41.292,0,0,0,3.854-9.111A94.838,94.838,0,0,0,302.364,76.3l-.021-1.717c-.084-6.618-.314-26.745-16.671-26.745-9.425.042-17.907,8.838-27.227,19.457-1.11,1.257-2.053,2.346-2.806,3.121L235.784,91.294c-.545.565-1.571,1.655-1.717,1.78a11.017,11.017,0,0,1-1.885,0c-2.6-.838-5.194-1.613-7.833-2.22-.168-.042-.272-.1-.44-.147a161.794,161.794,0,0,0-24.8-5.3c-8.8-1.257-17.677-1.99-26.536-2.367-10.786-.44-21.509-.042-32.274.4-2.094.084-4.189.168-6.283.335-4.566.377-9.111.963-13.676,1.257a60.107,60.107,0,0,1-12.273-.293c-15.121-2.22-28.19-5.152-34.159-8.482,1.906,4.084,8.775,14.661,23.1,22.619,5.655,2.974,10.577,2.576,14.891,7.016a3.681,3.681,0,0,1,1.11,1.906c-2.534-.691-5.089-1.278-7.665-1.78-2.45-.482-4.922-.922-7.393-1.278a43.794,43.794,0,0,0-8.734-.733,26.757,26.757,0,0,0-3.9.482c-3.058.691-6.137,1.34-9.132,2.241-.88.272-1.529.524-2.262.712-20.4,7.058-38.872,8.692-53.009-1.927,1.34,2.513,6.22,13.99,18.912,18.451-6.849,3.937-14.137,8.021-19.855,10.116a551.653,551.653,0,0,1-.691-65.764c7.1-4.335,24.358-14.116,50.16-23.771,31.709-11.875,83.168-26.054,148.3-26.054,109.473.021,181.918,39.772,198.505,49.846,1.131,17.991,3.707,86.414-15.394,162.482-.5,1.99-1.194,3.812-1.717,5.78q5.278,7.791,11.1,15.54c.942,1.257,1.906,2.325,2.848,3.539,1.99-6.681,3.958-13.4,5.7-20.336,22.536-89.87,15.855-169.749,15.561-173.1l-.4-4.356-3.56-2.45C427.126,53.155,348.608.021,217.751,0,86.936.021,8.418,53.155,5.13,55.438l-3.56,2.45-.4,4.314c-.23,2.6-4.314,50.642,4.273,114.06.5,3.644,1.005,7.309,1.592,11.037.775,4.9,1.717,9.969,2.639,15,.419,2.283.754,4.5,1.194,6.807q2.45,12.535,5.655,25.468c13.257,53.218,34.055,99.064,61.784,136.281a277.428,277.428,0,0,0,60.967,60.234c2.011,1.445,4.147,2.744,6.2,4.147,3.2,2.178,6.367,4.419,9.676,6.451,2.744,1.7,5.592,3.246,8.419,4.859a284.52,284.52,0,0,0,51.27,22.871l2.932.964,2.932-.964c42.369-14.116,79.021-36.8,109.515-67.418-.314-.314-.67-.607-.984-.922-1.759-1.8-3.435-3.707-5.047-5.7l-2.974-1.592-5.8-3.121a257.111,257.111,0,0,1-97.619,60.213,266.415,266.415,0,0,1-48-22.138L181.2,395.858q11.718-33.552,23.269-67.167c12.064,11.435,30.222,17.614,46.726,18.766a104.214,104.214,0,0,0,17.886-.8c8.755-.88,17.048-1.717,22.933.943,8.8,3.958,16.525,10.158,25.677,17.488a129.723,129.723,0,0,0,11.959,8.168c5.278,3.33,10.744,6.765,14.158,10.472a15.685,15.685,0,0,1,1.55,2.534c5.948,10.723,16.357,25.342,38.139,28.358,20.944,2.974,33.468-12.482,43.416-24.881,3.812-4.754,7.435-9.236,11.1-12.357C454.479,363.5,457.244,338.158,444.2,320.922Zm-18.451,42.013c-5.068,4.293-9.425,9.7-13.634,14.933-9.655,12.043-16.043,19.289-25.991,17.97-10.577-1.466-17.551-6.891-24.211-18.891a29.2,29.2,0,0,0-4.084-6.032c-5.131-5.592-11.687-9.718-18.054-13.718a112.258,112.258,0,0,1-11.142-7.686c-8.755-7.016-17.823-14.263-28.819-19.226-10.535-4.733-22.242-3.56-32.63-2.513a93.333,93.333,0,0,1-14.661.733c-14.074-.984-36.819-8.21-41.762-24l-8.734-27.855-9.341,27.646c-9.634,28.483-19.541,56.9-29.447,85.3L153.5,417.577c-15.477-12.692-48.045-41.28-60.192-57.532C67.04,324.859,47.29,281.317,34.6,230.612c-3.079-12.273-5.571-24.337-7.624-36.086-.607-3.477-1.047-6.807-1.571-10.221,1.4-1.131,2.7-2.3,4.147-3.414a343.623,343.623,0,0,1,121.139-59.711,272.124,272.124,0,0,1,45.448-8.042c11.2-.963,22.808-1.927,33.74-1.131a20.776,20.776,0,0,0,19.687-7.561L269.42,83.566c.88-.921,2.011-2.2,3.309-3.686,1.969-2.241,6.932-7.917,10.367-11,.21,2.262.251,4.8.251,5.948l.042,2.241a76.518,76.518,0,0,1-1.654,20.755,46.44,46.44,0,0,1-2.262,4.8c-2.555,4.964-5.215,10.095-4.691,15.373.775,7.833,7.812,12.21,12.964,15.415a25.19,25.19,0,0,1,2.911,1.906c18.012,15.038,30.327,37.112,42.244,58.454l4.1,7.309c12.483,22.159,26.641,47.27,45.406,72.089,4.377,5.8,9.027,11.624,13.97,17.321,4.629,5.424,8.8,11.2,13.195,17.341,5.487,7.624,11.142,15.5,17.886,22.745a21.039,21.039,0,0,1,1.529,1.8l.042.042C435.986,341.551,434.478,355.542,425.744,362.935Z" transform="translate(-0.001)" fill="#d7dce0"/>
    </g>
  </g>
</svg>
